<?xml version="1.0" encoding="UTF-8"?>
<svg xmlns="http://www.w3.org/2000/svg" xmlns:xlink="http://www.w3.org/1999/xlink" width="1056pt" height="816pt" viewBox="0 0 1056 816" version="1.1">
<g id="surface19">
<path style=" stroke:none;fill-rule:nonzero;fill:rgb(26.27451%,87.058824%,38.431373%);fill-opacity:1;" d="M 48 768 C 368 656 -32 544 288 432 L 48 432 Z M 48 768 "/>
<path style="fill-rule:nonzero;fill:rgb(1.960784%,17.647059%,29.019608%);fill-opacity:1;stroke-width:1.6;stroke-linecap:butt;stroke-linejoin:bevel;stroke:rgb(100%,100%,100%);stroke-opacity:1;stroke-miterlimit:10;" d="M 73.152344 461.5 C 72.070312 461.5 71.132812 461.636719 70.339844 461.90625 C 68.945312 462.40625 67.890625 463.332031 67.183594 464.6875 L 59.183594 464.3125 L 62.371094 439.28125 L 87.339844 439.28125 L 87.339844 446.84375 L 68.808594 446.84375 L 67.183594 456.75 C 68.558594 455.855469 69.632812 455.261719 70.402344 454.96875 C 71.695312 454.488281 73.265625 454.25 75.121094 454.25 C 78.871094 454.25 82.140625 455.511719 84.933594 458.03125 C 87.726562 460.550781 89.121094 464.21875 89.121094 469.03125 C 89.121094 473.21875 87.777344 476.957031 85.089844 480.25 C 82.402344 483.542969 78.382812 485.1875 73.027344 485.1875 C 68.714844 485.1875 65.171875 484.03125 62.402344 481.71875 C 59.632812 479.40625 58.089844 476.125 57.777344 471.875 L 66.652344 471.875 C 67.007812 473.8125 67.683594 475.308594 68.683594 476.359375 C 69.683594 477.410156 71.140625 477.9375 73.058594 477.9375 C 75.265625 477.9375 76.949219 477.160156 78.105469 475.609375 C 79.261719 474.058594 79.839844 472.105469 79.839844 469.75 C 79.839844 467.4375 79.296875 465.484375 78.214844 463.890625 C 77.132812 462.296875 75.445312 461.5 73.152344 461.5 Z M 91.683594 484 "/>
<path style="fill-rule:nonzero;fill:rgb(1.960784%,10.196078%,20.392157%);fill-opacity:1;stroke-width:1;stroke-linecap:butt;stroke-linejoin:bevel;stroke:rgb(1.960784%,10.196078%,20.392157%);stroke-opacity:1;stroke-miterlimit:10;" d="M 79 496 C 90.597656 496 100 505.402344 100 517 C 100 528.597656 90.597656 538 79 538 L 48 538 L 48 496 Z M 79 496 "/>
<path style="fill-rule:nonzero;fill:rgb(100%,85.490196%,28.627451%);fill-opacity:1;stroke-width:1.3;stroke-linecap:butt;stroke-linejoin:bevel;stroke:rgb(100%,100%,100%);stroke-opacity:1;stroke-miterlimit:10;" d="M 66.308594 527.257812 C 65.007812 525.925781 64.355469 524.304688 64.355469 522.398438 C 64.355469 521.128906 64.644531 519.976562 65.222656 518.945312 C 65.800781 517.914062 66.648438 517.136719 67.761719 516.617188 C 66.667969 515.886719 65.957031 515.097656 65.628906 514.25 C 65.300781 513.402344 65.136719 512.605469 65.136719 511.867188 C 65.136719 510.222656 65.757812 508.816406 66.996094 507.65625 C 68.234375 506.496094 69.984375 505.914062 72.246094 505.914062 C 74.507812 505.914062 76.257812 506.496094 77.496094 507.65625 C 78.734375 508.816406 79.355469 510.222656 79.355469 511.867188 C 79.355469 512.605469 79.191406 513.402344 78.863281 514.25 C 78.535156 515.097656 77.824219 515.835938 76.730469 516.460938 C 77.84375 517.085938 78.683594 517.914062 79.246094 518.945312 C 79.808594 519.976562 80.089844 521.128906 80.089844 522.398438 C 80.089844 524.304688 79.382812 525.925781 77.972656 527.265625 C 76.5625 528.605469 74.589844 529.273438 72.058594 529.273438 C 69.527344 529.273438 67.609375 528.601562 66.308594 527.257812 Z M 68.980469 522.101562 C 68.980469 523.214844 69.269531 524.082031 69.847656 524.695312 C 70.425781 525.308594 71.226562 525.617188 72.246094 525.617188 C 73.265625 525.617188 74.066406 525.308594 74.644531 524.695312 C 75.222656 524.082031 75.511719 523.214844 75.511719 522.101562 C 75.511719 520.945312 75.21875 520.066406 74.628906 519.46875 C 74.039062 518.871094 73.246094 518.570312 72.246094 518.570312 C 71.246094 518.570312 70.453125 518.871094 69.863281 519.46875 C 69.273438 520.066406 68.980469 520.945312 68.980469 522.101562 Z M 70.152344 514.382812 C 70.652344 514.902344 71.351562 515.164062 72.246094 515.164062 C 73.152344 515.164062 73.851562 514.902344 74.347656 514.382812 C 74.84375 513.863281 75.089844 513.191406 75.089844 512.367188 C 75.089844 511.472656 74.84375 510.769531 74.347656 510.265625 C 73.851562 509.761719 73.152344 509.507812 72.246094 509.507812 C 71.351562 509.507812 70.648438 509.761719 70.144531 510.265625 C 69.640625 510.769531 69.386719 511.472656 69.386719 512.367188 C 69.386719 513.191406 69.640625 513.863281 70.152344 514.382812 Z M 81.308594 528.679688 "/>
<path style=" stroke:none;fill-rule:nonzero;fill:rgb(100%,85.490196%,28.627451%);fill-opacity:1;" d="M 288 432 C -32 544 368 656 48 768 L 288 768 Z M 288 432 "/>
<path style="fill-rule:nonzero;fill:rgb(1.960784%,17.647059%,29.019608%);fill-opacity:1;stroke-width:1.6;stroke-linecap:butt;stroke-linejoin:bevel;stroke:rgb(100%,100%,100%);stroke-opacity:1;stroke-miterlimit:10;" d="M 61.613281 481.15625 C 59.007812 478.488281 57.707031 475.25 57.707031 471.4375 C 57.707031 468.894531 58.285156 466.59375 59.441406 464.53125 C 60.597656 462.46875 62.289062 460.917969 64.519531 459.875 C 62.332031 458.417969 60.910156 456.839844 60.253906 455.140625 C 59.597656 453.441406 59.269531 451.855469 59.269531 450.375 C 59.269531 447.082031 60.507812 444.277344 62.988281 441.953125 C 65.46875 439.628906 68.96875 438.46875 73.488281 438.46875 C 78.007812 438.46875 81.507812 439.628906 83.988281 441.953125 C 86.46875 444.277344 87.707031 447.082031 87.707031 450.375 C 87.707031 451.855469 87.378906 453.441406 86.722656 455.140625 C 86.066406 456.839844 84.644531 458.3125 82.457031 459.5625 C 84.6875 460.8125 86.363281 462.46875 87.488281 464.53125 C 88.613281 466.59375 89.175781 468.894531 89.175781 471.4375 C 89.175781 475.25 87.765625 478.496094 84.941406 481.171875 C 82.117187 483.847656 78.175781 485.1875 73.113281 485.1875 C 68.050781 485.1875 64.21875 483.84375 61.613281 481.15625 Z M 66.957031 470.84375 C 66.957031 473.074219 67.535156 474.800781 68.691406 476.03125 C 69.847656 477.261719 71.445312 477.875 73.488281 477.875 C 75.53125 477.875 77.128906 477.261719 78.285156 476.03125 C 79.441406 474.800781 80.019531 473.074219 80.019531 470.84375 C 80.019531 468.53125 79.429688 466.777344 78.253906 465.578125 C 77.078125 464.378906 75.488281 463.78125 73.488281 463.78125 C 71.488281 463.78125 69.898438 464.378906 68.722656 465.578125 C 67.546875 466.777344 66.957031 468.53125 66.957031 470.84375 Z M 69.300781 455.40625 C 70.300781 456.449219 71.695312 456.96875 73.488281 456.96875 C 75.300781 456.96875 76.703125 456.449219 77.691406 455.40625 C 78.679688 454.363281 79.175781 453.019531 79.175781 451.375 C 79.175781 449.582031 78.679688 448.183594 77.691406 447.171875 C 76.703125 446.160156 75.300781 445.65625 73.488281 445.65625 C 71.695312 445.65625 70.296875 446.160156 69.285156 447.171875 C 68.273438 448.183594 67.769531 449.582031 67.769531 451.375 C 67.769531 453.019531 68.28125 454.363281 69.300781 455.40625 Z M 91.613281 484 " transform="matrix(-1,0.000000000000000122,-0.000000000000000122,-1,336,1200)"/>
<path style="fill-rule:nonzero;fill:rgb(1.960784%,10.196078%,20.392157%);fill-opacity:1;stroke-width:1;stroke-linecap:butt;stroke-linejoin:bevel;stroke:rgb(1.960784%,10.196078%,20.392157%);stroke-opacity:1;stroke-miterlimit:10;" d="M 79 496 C 90.597656 496 100 505.402344 100 517 C 100 528.597656 90.597656 538 79 538 L 48 538 L 48 496 Z M 79 496 " transform="matrix(-1,0.000000000000000122,-0.000000000000000122,-1,336,1200)"/>
<path style="fill-rule:nonzero;fill:rgb(26.27451%,87.058824%,38.431373%);fill-opacity:1;stroke-width:1.3;stroke-linecap:butt;stroke-linejoin:bevel;stroke:rgb(100%,100%,100%);stroke-opacity:1;stroke-miterlimit:10;" d="M 72.082031 517.226562 C 71.539062 517.226562 71.070312 517.292969 70.675781 517.429688 C 69.976562 517.679688 69.453125 518.144531 69.097656 518.820312 L 65.097656 518.632812 L 66.691406 506.117188 L 79.175781 506.117188 L 79.175781 509.898438 L 69.910156 509.898438 L 69.097656 514.851562 C 69.785156 514.402344 70.320312 514.105469 70.707031 513.960938 C 71.351562 513.722656 72.140625 513.601562 73.066406 513.601562 C 74.941406 513.601562 76.578125 514.230469 77.972656 515.492188 C 79.367187 516.753906 80.066406 518.585938 80.066406 520.992188 C 80.066406 523.085938 79.394531 524.957031 78.050781 526.601562 C 76.707031 528.246094 74.695312 529.070312 72.019531 529.070312 C 69.863281 529.070312 68.09375 528.492188 66.707031 527.335938 C 65.320312 526.179688 64.550781 524.539062 64.394531 522.414062 L 68.832031 522.414062 C 69.007812 523.382812 69.347656 524.128906 69.847656 524.65625 C 70.347656 525.183594 71.078125 525.445312 72.035156 525.445312 C 73.140625 525.445312 73.980469 525.058594 74.558594 524.28125 C 75.136719 523.503906 75.425781 522.527344 75.425781 521.351562 C 75.425781 520.195312 75.15625 519.21875 74.613281 518.421875 C 74.070312 517.625 73.226562 517.226562 72.082031 517.226562 Z M 81.347656 528.476562 " transform="matrix(-1,0.000000000000000122,-0.000000000000000122,-1,336,1200)"/>
<path style=" stroke:none;fill-rule:nonzero;fill:rgb(26.27451%,87.058824%,38.431373%);fill-opacity:1;" d="M 288 768 C 608 656 208 544 528 432 L 288 432 Z M 288 768 "/>
<path style="fill-rule:nonzero;fill:rgb(1.960784%,17.647059%,29.019608%);fill-opacity:1;stroke-width:1.6;stroke-linecap:butt;stroke-linejoin:bevel;stroke:rgb(100%,100%,100%);stroke-opacity:1;stroke-miterlimit:10;" d="M 313.152344 461.5 C 312.070313 461.5 311.132813 461.636719 310.339844 461.90625 C 308.945313 462.40625 307.890625 463.332031 307.183594 464.6875 L 299.183594 464.3125 L 302.371094 439.28125 L 327.339844 439.28125 L 327.339844 446.84375 L 308.808594 446.84375 L 307.183594 456.75 C 308.558594 455.855469 309.632813 455.261719 310.402344 454.96875 C 311.695313 454.488281 313.265625 454.25 315.121094 454.25 C 318.871094 454.25 322.140625 455.511719 324.933594 458.03125 C 327.726563 460.550781 329.121094 464.21875 329.121094 469.03125 C 329.121094 473.21875 327.777344 476.957031 325.089844 480.25 C 322.402344 483.542969 318.382813 485.1875 313.027344 485.1875 C 308.714844 485.1875 305.171875 484.03125 302.402344 481.71875 C 299.632813 479.40625 298.089844 476.125 297.777344 471.875 L 306.652344 471.875 C 307.007813 473.8125 307.683594 475.308594 308.683594 476.359375 C 309.683594 477.410156 311.140625 477.9375 313.058594 477.9375 C 315.265625 477.9375 316.949219 477.160156 318.105469 475.609375 C 319.261719 474.058594 319.839844 472.105469 319.839844 469.75 C 319.839844 467.4375 319.296875 465.484375 318.214844 463.890625 C 317.132813 462.296875 315.445313 461.5 313.152344 461.5 Z M 331.683594 484 " transform="matrix(1,-0.000000000000000245,0.000000000000000245,1,-0.000000000000113687,0)"/>
<path style="fill-rule:nonzero;fill:rgb(1.960784%,10.196078%,20.392157%);fill-opacity:1;stroke-width:1;stroke-linecap:butt;stroke-linejoin:bevel;stroke:rgb(1.960784%,10.196078%,20.392157%);stroke-opacity:1;stroke-miterlimit:10;" d="M 319 496 C 330.597656 496 340 505.402344 340 517 C 340 528.597656 330.597656 538 319 538 L 288 538 L 288 496 Z M 319 496 " transform="matrix(1,-0.000000000000000245,0.000000000000000245,1,-0.000000000000113687,0)"/>
<path style="fill-rule:nonzero;fill:rgb(95.686275%,45.882353%,0.392157%);fill-opacity:1;stroke-width:1.3;stroke-linecap:butt;stroke-linejoin:bevel;stroke:rgb(100%,100%,100%);stroke-opacity:1;stroke-miterlimit:10;" d="M 311.8125 529.40625 C 310.113281 529.40625 308.589844 528.902344 307.234375 527.898438 C 305.878906 526.894531 305.105469 525.425781 304.90625 523.5 L 309.34375 523.5 C 309.449219 524.167969 309.730469 524.707031 310.1875 525.125 C 310.644531 525.542969 311.253906 525.75 312.015625 525.75 C 313.484375 525.75 314.515625 524.9375 315.109375 523.3125 C 315.433594 522.417969 315.636719 521.109375 315.71875 519.390625 C 315.3125 519.902344 314.878906 520.292969 314.421875 520.5625 C 313.589844 521.0625 312.5625 521.3125 311.34375 521.3125 C 309.542969 521.3125 307.941406 520.691406 306.546875 519.445313 C 305.152344 518.199219 304.453125 516.40625 304.453125 514.0625 C 304.453125 511.636719 305.152344 509.667969 306.554688 508.164063 C 307.957031 506.660156 309.777344 505.90625 312.015625 505.90625 C 315.464844 505.90625 317.828125 507.433594 319.109375 510.484375 C 319.839844 512.214844 320.203125 514.488281 320.203125 517.3125 C 320.203125 520.050781 319.855469 522.339844 319.15625 524.171875 C 317.824219 527.660156 315.375 529.40625 311.8125 529.40625 Z M 310.25 510.265625 C 309.394531 510.933594 308.96875 512.0625 308.96875 513.65625 C 308.96875 515 309.242188 516.007813 309.789063 516.679688 C 310.335938 517.351563 311.175781 517.6875 312.3125 517.6875 C 312.925781 517.6875 313.503906 517.511719 314.046875 517.15625 C 315.058594 516.511719 315.5625 515.390625 315.5625 513.796875 C 315.5625 512.515625 315.261719 511.5 314.664063 510.75 C 314.066406 510 313.246094 509.625 312.203125 509.625 C 311.441406 509.625 310.792969 509.839844 310.25 510.265625 Z M 321.296875 528.75 " transform="matrix(1,-0.000000000000000245,0.000000000000000245,1,-0.000000000000113687,0)"/>
<path style=" stroke:none;fill-rule:nonzero;fill:rgb(95.686275%,45.882353%,0.392157%);fill-opacity:1;" d="M 528 432 C 208 544 608 656 288 768 L 528 768 Z M 528 432 "/>
<path style="fill-rule:nonzero;fill:rgb(1.960784%,17.647059%,29.019608%);fill-opacity:1;stroke-width:1.6;stroke-linecap:butt;stroke-linejoin:bevel;stroke:rgb(100%,100%,100%);stroke-opacity:1;stroke-miterlimit:10;" d="M 312.625 485.3125 C 309.230469 485.3125 306.175781 484.308594 303.46875 482.296875 C 300.761719 480.285156 299.207031 477.355469 298.8125 473.5 L 307.6875 473.5 C 307.894531 474.832031 308.457031 475.917969 309.375 476.75 C 310.292969 477.582031 311.511719 478 313.03125 478 C 315.96875 478 318.03125 476.375 319.21875 473.125 C 319.863281 471.332031 320.269531 468.71875 320.4375 465.28125 C 319.625 466.300781 318.761719 467.082031 317.84375 467.625 C 316.175781 468.625 314.125 469.125 311.6875 469.125 C 308.082031 469.125 304.886719 467.878906 302.09375 465.390625 C 299.300781 462.902344 297.90625 459.3125 297.90625 454.625 C 297.90625 449.769531 299.308594 445.839844 302.109375 442.828125 C 304.910156 439.816406 308.550781 438.3125 313.03125 438.3125 C 319.925781 438.3125 324.65625 441.363281 327.21875 447.46875 C 328.675781 450.925781 329.40625 455.480469 329.40625 461.125 C 329.40625 466.605469 328.707031 471.175781 327.3125 474.84375 C 324.644531 481.824219 319.75 485.3125 312.625 485.3125 Z M 309.5 447.03125 C 307.792969 448.363281 306.9375 450.625 306.9375 453.8125 C 306.9375 456.5 307.484375 458.515625 308.578125 459.859375 C 309.671875 461.203125 311.355469 461.875 313.625 461.875 C 314.855469 461.875 316.011719 461.519531 317.09375 460.8125 C 319.113281 459.519531 320.125 457.28125 320.125 454.09375 C 320.125 451.53125 319.527344 449.5 318.328125 448 C 317.128906 446.5 315.488281 445.75 313.40625 445.75 C 311.886719 445.75 310.582031 446.175781 309.5 447.03125 Z M 331.59375 484 " transform="matrix(-1,0.000000000000000367,-0.000000000000000367,-1,816,1200)"/>
<path style="fill-rule:nonzero;fill:rgb(1.960784%,10.196078%,20.392157%);fill-opacity:1;stroke-width:1;stroke-linecap:butt;stroke-linejoin:bevel;stroke:rgb(1.960784%,10.196078%,20.392157%);stroke-opacity:1;stroke-miterlimit:10;" d="M 319 496 C 330.597656 496 340 505.402344 340 517 C 340 528.597656 330.597656 538 319 538 L 288 538 L 288 496 Z M 319 496 " transform="matrix(-1,0.000000000000000367,-0.000000000000000367,-1,816,1200)"/>
<path style="fill-rule:nonzero;fill:rgb(26.27451%,87.058824%,38.431373%);fill-opacity:1;stroke-width:1.3;stroke-linecap:butt;stroke-linejoin:bevel;stroke:rgb(100%,100%,100%);stroke-opacity:1;stroke-miterlimit:10;" d="M 312.082031 517.226562 C 311.539062 517.226562 311.070312 517.292969 310.675781 517.429687 C 309.976562 517.679687 309.453125 518.144531 309.097656 518.820312 L 305.097656 518.632812 L 306.691406 506.117187 L 319.175781 506.117187 L 319.175781 509.898437 L 309.910156 509.898437 L 309.097656 514.851562 C 309.785156 514.402344 310.320312 514.105469 310.707031 513.960937 C 311.351562 513.722656 312.140625 513.601562 313.066406 513.601562 C 314.941406 513.601562 316.578125 514.230469 317.972656 515.492187 C 319.367188 516.753906 320.066406 518.585937 320.066406 520.992187 C 320.066406 523.085937 319.394531 524.957031 318.050781 526.601562 C 316.707031 528.246094 314.695312 529.070312 312.019531 529.070312 C 309.863281 529.070312 308.09375 528.492187 306.707031 527.335937 C 305.320312 526.179687 304.550781 524.539062 304.394531 522.414062 L 308.832031 522.414062 C 309.007812 523.382812 309.347656 524.128906 309.847656 524.65625 C 310.347656 525.183594 311.078125 525.445312 312.035156 525.445312 C 313.140625 525.445312 313.980469 525.058594 314.558594 524.28125 C 315.136719 523.503906 315.425781 522.527344 315.425781 521.351562 C 315.425781 520.195312 315.15625 519.21875 314.613281 518.421875 C 314.070312 517.625 313.226562 517.226562 312.082031 517.226562 Z M 321.347656 528.476562 " transform="matrix(-1,0.000000000000000367,-0.000000000000000367,-1,816,1200)"/>
<path style=" stroke:none;fill-rule:nonzero;fill:rgb(26.27451%,87.058824%,38.431373%);fill-opacity:1;" d="M 528 768 C 848 656 448 544 768 432 L 528 432 Z M 528 768 "/>
<path style="fill-rule:nonzero;fill:rgb(1.960784%,17.647059%,29.019608%);fill-opacity:1;stroke-width:1.6;stroke-linecap:butt;stroke-linejoin:bevel;stroke:rgb(100%,100%,100%);stroke-opacity:1;stroke-miterlimit:10;" d="M 553.152344 461.5 C 552.070312 461.5 551.132812 461.636719 550.339844 461.90625 C 548.945312 462.40625 547.890625 463.332031 547.183594 464.6875 L 539.183594 464.3125 L 542.371094 439.28125 L 567.339844 439.28125 L 567.339844 446.84375 L 548.808594 446.84375 L 547.183594 456.75 C 548.558594 455.855469 549.632812 455.261719 550.402344 454.96875 C 551.695312 454.488281 553.265625 454.25 555.121094 454.25 C 558.871094 454.25 562.140625 455.511719 564.933594 458.03125 C 567.726562 460.550781 569.121094 464.21875 569.121094 469.03125 C 569.121094 473.21875 567.777344 476.957031 565.089844 480.25 C 562.402344 483.542969 558.382812 485.1875 553.027344 485.1875 C 548.714844 485.1875 545.171875 484.03125 542.402344 481.71875 C 539.632812 479.40625 538.089844 476.125 537.777344 471.875 L 546.652344 471.875 C 547.007812 473.8125 547.683594 475.308594 548.683594 476.359375 C 549.683594 477.410156 551.140625 477.9375 553.058594 477.9375 C 555.265625 477.9375 556.949219 477.160156 558.105469 475.609375 C 559.261719 474.058594 559.839844 472.105469 559.839844 469.75 C 559.839844 467.4375 559.296875 465.484375 558.214844 463.890625 C 557.132812 462.296875 555.445312 461.5 553.152344 461.5 Z M 571.683594 484 " transform="matrix(1,-0.00000000000000049,0.00000000000000049,1,-0.000000000000284217,0.000000000000113687)"/>
<path style="fill-rule:nonzero;fill:rgb(1.960784%,10.196078%,20.392157%);fill-opacity:1;stroke-width:1;stroke-linecap:butt;stroke-linejoin:bevel;stroke:rgb(1.960784%,10.196078%,20.392157%);stroke-opacity:1;stroke-miterlimit:10;" d="M 559 496 C 570.597656 496 580 505.402344 580 517 C 580 528.597656 570.597656 538 559 538 L 528 538 L 528 496 Z M 559 496 " transform="matrix(1,-0.00000000000000049,0.00000000000000049,1,-0.000000000000284217,0.000000000000113687)"/>
<path style="fill-rule:nonzero;fill:rgb(99.607843%,23.921569%,32.156863%);fill-opacity:1;stroke-width:1.3;stroke-linecap:butt;stroke-linejoin:bevel;stroke:rgb(100%,100%,100%);stroke-opacity:1;stroke-miterlimit:10;" d="M 555.378906 523.78125 L 546.894531 523.78125 L 545.300781 528.515625 L 540.269531 528.515625 L 548.488281 505.484375 L 553.925781 505.484375 L 562.082031 528.515625 L 556.863281 528.515625 Z M 554.035156 519.8125 L 551.160156 510.75 L 548.191406 519.8125 Z M 562.566406 528.515625 " transform="matrix(1,-0.00000000000000049,0.00000000000000049,1,-0.000000000000284217,0.000000000000113687)"/>
<path style=" stroke:none;fill-rule:nonzero;fill:rgb(99.607843%,23.921569%,32.156863%);fill-opacity:1;" d="M 768 432 C 448 544 848 656 528 768 L 768 768 Z M 768 432 "/>
<path style="fill-rule:nonzero;fill:rgb(1.960784%,17.647059%,29.019608%);fill-opacity:1;stroke-width:1.6;stroke-linecap:butt;stroke-linejoin:bevel;stroke:rgb(100%,100%,100%);stroke-opacity:1;stroke-miterlimit:10;" d="M 560.914062 474.53125 L 543.945312 474.53125 L 540.757812 484 L 530.695312 484 L 547.132812 437.9375 L 558.007812 437.9375 L 574.320312 484 L 563.882812 484 Z M 558.226562 466.59375 L 552.476562 448.46875 L 546.539062 466.59375 Z M 575.289062 484 " transform="matrix(-1,0.000000000000000612,-0.000000000000000612,-1,1296,1200)"/>
<path style="fill-rule:nonzero;fill:rgb(1.960784%,10.196078%,20.392157%);fill-opacity:1;stroke-width:1;stroke-linecap:butt;stroke-linejoin:bevel;stroke:rgb(1.960784%,10.196078%,20.392157%);stroke-opacity:1;stroke-miterlimit:10;" d="M 559 496 C 570.597656 496 580 505.402344 580 517 C 580 528.597656 570.597656 538 559 538 L 528 538 L 528 496 Z M 559 496 " transform="matrix(-1,0.000000000000000612,-0.000000000000000612,-1,1296,1200)"/>
<path style="fill-rule:nonzero;fill:rgb(26.27451%,87.058824%,38.431373%);fill-opacity:1;stroke-width:1.3;stroke-linecap:butt;stroke-linejoin:bevel;stroke:rgb(100%,100%,100%);stroke-opacity:1;stroke-miterlimit:10;" d="M 552.082031 517.226562 C 551.539062 517.226562 551.070312 517.292969 550.675781 517.429687 C 549.976562 517.679687 549.453125 518.144531 549.097656 518.820312 L 545.097656 518.632812 L 546.691406 506.117187 L 559.175781 506.117187 L 559.175781 509.898437 L 549.910156 509.898437 L 549.097656 514.851562 C 549.785156 514.402344 550.320312 514.105469 550.707031 513.960937 C 551.351562 513.722656 552.140625 513.601562 553.066406 513.601562 C 554.941406 513.601562 556.578125 514.230469 557.972656 515.492187 C 559.367188 516.753906 560.066406 518.585937 560.066406 520.992187 C 560.066406 523.085937 559.394531 524.957031 558.050781 526.601562 C 556.707031 528.246094 554.695312 529.070312 552.019531 529.070312 C 549.863281 529.070312 548.09375 528.492187 546.707031 527.335937 C 545.320312 526.179687 544.550781 524.539062 544.394531 522.414062 L 548.832031 522.414062 C 549.007812 523.382812 549.347656 524.128906 549.847656 524.65625 C 550.347656 525.183594 551.078125 525.445312 552.035156 525.445312 C 553.140625 525.445312 553.980469 525.058594 554.558594 524.28125 C 555.136719 523.503906 555.425781 522.527344 555.425781 521.351562 C 555.425781 520.195312 555.15625 519.21875 554.613281 518.421875 C 554.070312 517.625 553.226562 517.226562 552.082031 517.226562 Z M 561.347656 528.476562 " transform="matrix(-1,0.000000000000000612,-0.000000000000000612,-1,1296,1200)"/>
<path style=" stroke:none;fill-rule:nonzero;fill:rgb(82.352941%,98.823529%,29.411765%);fill-opacity:1;" d="M 768 768 C 1088 656 688 544 1008 432 L 768 432 Z M 768 768 "/>
<path style="fill-rule:nonzero;fill:rgb(1.960784%,17.647059%,29.019608%);fill-opacity:1;stroke-width:1.6;stroke-linecap:butt;stroke-linejoin:bevel;stroke:rgb(100%,100%,100%);stroke-opacity:1;stroke-miterlimit:10;" d="M 795.667969 454.59375 C 799.6875 454.59375 802.984375 455.957031 805.558594 458.6875 C 808.132813 461.417969 809.417969 464.90625 809.417969 469.15625 C 809.417969 473.386719 808.15625 477.113281 805.636719 480.34375 C 803.117188 483.574219 799.199219 485.1875 793.886719 485.1875 C 788.179688 485.1875 783.96875 482.800781 781.261719 478.03125 C 779.15625 474.300781 778.105469 469.488281 778.105469 463.59375 C 778.105469 460.136719 778.25 457.324219 778.542969 455.15625 C 779.0625 451.300781 780.074219 448.09375 781.574219 445.53125 C 782.867188 443.34375 784.558594 441.582031 786.652344 440.25 C 788.746094 438.917969 791.25 438.25 794.167969 438.25 C 798.375 438.25 801.730469 439.328125 804.230469 441.484375 C 806.730469 443.640625 808.136719 446.511719 808.449219 450.09375 L 799.574219 450.09375 C 799.574219 449.363281 799.292969 448.5625 798.730469 447.6875 C 797.773438 446.269531 796.324219 445.5625 794.386719 445.5625 C 791.492188 445.5625 789.429688 447.1875 788.199219 450.4375 C 787.53125 452.230469 787.074219 454.875 786.824219 458.375 C 787.929688 457.0625 789.210938 456.105469 790.667969 455.5 C 792.125 454.894531 793.792969 454.59375 795.667969 454.59375 Z M 789.667969 463.09375 C 787.917969 464.449219 787.042969 466.636719 787.042969 469.65625 C 787.042969 472.09375 787.699219 474.082031 789.011719 475.625 C 790.324219 477.167969 791.992188 477.9375 794.011719 477.9375 C 795.992188 477.9375 797.546875 477.191406 798.683594 475.703125 C 799.820313 474.214844 800.386719 472.28125 800.386719 469.90625 C 800.386719 467.261719 799.742188 465.234375 798.449219 463.828125 C 797.15625 462.421875 795.574219 461.71875 793.699219 461.71875 C 792.179688 461.71875 790.835938 462.175781 789.667969 463.09375 Z M 811.699219 484 " transform="matrix(1,-0.000000000000000735,0.000000000000000735,1,-0.000000000000341061,0.000000000000341061)"/>
<path style="fill-rule:nonzero;fill:rgb(1.960784%,10.196078%,20.392157%);fill-opacity:1;stroke-width:1;stroke-linecap:butt;stroke-linejoin:bevel;stroke:rgb(1.960784%,10.196078%,20.392157%);stroke-opacity:1;stroke-miterlimit:10;" d="M 799 496 C 810.597656 496 820 505.402344 820 517 C 820 528.597656 810.597656 538 799 538 L 768 538 L 768 496 Z M 799 496 " transform="matrix(1,-0.000000000000000735,0.000000000000000735,1,-0.000000000000341061,0.000000000000341061)"/>
<path style="fill-rule:nonzero;fill:rgb(99.607843%,92.54902%,1.568627%);fill-opacity:1;stroke-width:1.3;stroke-linecap:butt;stroke-linejoin:bevel;stroke:rgb(100%,100%,100%);stroke-opacity:1;stroke-miterlimit:10;" d="M 797.386719 512.804688 C 796.199219 514.492188 795.203125 516.230469 794.402344 518.023438 C 793.765625 519.429688 793.195313 521.148438 792.683594 523.179688 C 792.171875 525.210938 791.917969 526.878906 791.917969 528.179688 L 787.292969 528.179688 C 787.429688 524.117188 788.761719 519.894531 791.292969 515.507813 C 792.929688 512.789063 794.296875 510.894531 795.402344 509.820313 L 784.105469 509.820313 L 784.167969 505.820313 L 800.167969 505.820313 L 800.167969 509.304688 C 799.5 509.960938 798.574219 511.128906 797.386719 512.804688 Z M 801.089844 528.179688 " transform="matrix(1,-0.000000000000000735,0.000000000000000735,1,-0.000000000000341061,0.000000000000341061)"/>
<path style=" stroke:none;fill-rule:nonzero;fill:rgb(99.607843%,92.54902%,1.568627%);fill-opacity:1;" d="M 1008 432 C 688 544 1088 656 768 768 L 1008 768 Z M 1008 432 "/>
<path style="fill-rule:nonzero;fill:rgb(1.960784%,17.647059%,29.019608%);fill-opacity:1;stroke-width:1.6;stroke-linecap:butt;stroke-linejoin:bevel;stroke:rgb(100%,100%,100%);stroke-opacity:1;stroke-miterlimit:10;" d="M 803.832031 453.25 C 801.457031 456.625 799.46875 460.105469 797.863281 463.6875 C 796.59375 466.5 795.445312 469.9375 794.425781 474 C 793.40625 478.0625 792.894531 481.394531 792.894531 484 L 783.644531 484 C 783.914062 475.875 786.582031 467.425781 791.644531 458.65625 C 794.914062 453.21875 797.65625 449.425781 799.863281 447.28125 L 777.269531 447.28125 L 777.394531 439.28125 L 809.394531 439.28125 L 809.394531 446.25 C 808.0625 447.5625 806.207031 449.894531 803.832031 453.25 Z M 811.238281 484 " transform="matrix(-1,0.000000000000000857,-0.000000000000000857,-1,1776,1200)"/>
<path style="fill-rule:nonzero;fill:rgb(1.960784%,10.196078%,20.392157%);fill-opacity:1;stroke-width:1;stroke-linecap:butt;stroke-linejoin:bevel;stroke:rgb(1.960784%,10.196078%,20.392157%);stroke-opacity:1;stroke-miterlimit:10;" d="M 799 496 C 810.597656 496 820 505.402344 820 517 C 820 528.597656 810.597656 538 799 538 L 768 538 L 768 496 Z M 799 496 " transform="matrix(-1,0.000000000000000857,-0.000000000000000857,-1,1776,1200)"/>
<path style="fill-rule:nonzero;fill:rgb(82.352941%,98.823529%,29.411765%);fill-opacity:1;stroke-width:1.3;stroke-linecap:butt;stroke-linejoin:bevel;stroke:rgb(100%,100%,100%);stroke-opacity:1;stroke-miterlimit:10;" d="M 793.34375 514.03125 C 795.355469 514.03125 797.003906 514.714844 798.289062 516.078125 C 799.574219 517.441406 800.21875 519.1875 800.21875 521.3125 C 800.21875 523.425781 799.589844 525.292969 798.328125 526.90625 C 797.066406 528.519531 795.109375 529.328125 792.453125 529.328125 C 789.597656 529.328125 787.496094 528.136719 786.140625 525.75 C 785.089844 523.886719 784.5625 521.480469 784.5625 518.53125 C 784.5625 516.800781 784.636719 515.394531 784.78125 514.3125 C 785.042969 512.386719 785.546875 510.78125 786.296875 509.5 C 786.941406 508.40625 787.789062 507.527344 788.835937 506.859375 C 789.882812 506.191406 791.136719 505.859375 792.59375 505.859375 C 794.699219 505.859375 796.375 506.398437 797.625 507.476562 C 798.875 508.554687 799.578125 509.988281 799.734375 511.78125 L 795.296875 511.78125 C 795.296875 511.417969 795.15625 511.015625 794.875 510.578125 C 794.394531 509.871094 793.671875 509.515625 792.703125 509.515625 C 791.253906 509.515625 790.222656 510.328125 789.609375 511.953125 C 789.277344 512.847656 789.046875 514.171875 788.921875 515.921875 C 789.472656 515.265625 790.113281 514.785156 790.84375 514.484375 C 791.574219 514.183594 792.40625 514.03125 793.34375 514.03125 Z M 790.34375 518.28125 C 789.46875 518.957031 789.03125 520.050781 789.03125 521.5625 C 789.03125 522.78125 789.359375 523.777344 790.015625 524.546875 C 790.671875 525.316406 791.503906 525.703125 792.515625 525.703125 C 793.503906 525.703125 794.285156 525.332031 794.851562 524.585937 C 795.417969 523.839844 795.703125 522.875 795.703125 521.6875 C 795.703125 520.363281 795.378906 519.351562 794.734375 518.648437 C 794.089844 517.945312 793.296875 517.59375 792.359375 517.59375 C 791.597656 517.59375 790.925781 517.824219 790.34375 518.28125 Z M 801.359375 528.734375 " transform="matrix(-1,0.000000000000000857,-0.000000000000000857,-1,1776,1200)"/>
<path style=" stroke:none;fill-rule:nonzero;fill:rgb(82.352941%,98.823529%,29.411765%);fill-opacity:1;" d="M 48 432 C 368 320 -32 208 288 96 L 48 96 Z M 48 432 "/>
<path style="fill-rule:nonzero;fill:rgb(1.960784%,17.647059%,29.019608%);fill-opacity:1;stroke-width:1.6;stroke-linecap:butt;stroke-linejoin:bevel;stroke:rgb(100%,100%,100%);stroke-opacity:1;stroke-miterlimit:10;" d="M 75.667969 118.59375 C 79.6875 118.59375 82.984375 119.957031 85.558594 122.6875 C 88.132813 125.417969 89.417969 128.90625 89.417969 133.15625 C 89.417969 137.386719 88.15625 141.113281 85.636719 144.34375 C 83.117188 147.574219 79.199219 149.1875 73.886719 149.1875 C 68.179688 149.1875 63.96875 146.800781 61.261719 142.03125 C 59.15625 138.300781 58.105469 133.488281 58.105469 127.59375 C 58.105469 124.136719 58.25 121.324219 58.542969 119.15625 C 59.0625 115.300781 60.074219 112.09375 61.574219 109.53125 C 62.867188 107.34375 64.558594 105.582031 66.652344 104.25 C 68.746094 102.917969 71.25 102.25 74.167969 102.25 C 78.375 102.25 81.730469 103.328125 84.230469 105.484375 C 86.730469 107.640625 88.136719 110.511719 88.449219 114.09375 L 79.574219 114.09375 C 79.574219 113.363281 79.292969 112.5625 78.730469 111.6875 C 77.773438 110.269531 76.324219 109.5625 74.386719 109.5625 C 71.492188 109.5625 69.429688 111.1875 68.199219 114.4375 C 67.53125 116.230469 67.074219 118.875 66.824219 122.375 C 67.929688 121.0625 69.210938 120.105469 70.667969 119.5 C 72.125 118.894531 73.792969 118.59375 75.667969 118.59375 Z M 69.667969 127.09375 C 67.917969 128.449219 67.042969 130.636719 67.042969 133.65625 C 67.042969 136.09375 67.699219 138.082031 69.011719 139.625 C 70.324219 141.167969 71.992188 141.9375 74.011719 141.9375 C 75.992188 141.9375 77.546875 141.191406 78.683594 139.703125 C 79.820313 138.214844 80.386719 136.28125 80.386719 133.90625 C 80.386719 131.261719 79.742188 129.234375 78.449219 127.828125 C 77.15625 126.421875 75.574219 125.71875 73.699219 125.71875 C 72.179688 125.71875 70.835938 126.175781 69.667969 127.09375 Z M 91.699219 148 " transform="matrix(1,-0.00000000000000098,0.00000000000000098,1,-0.000000000000454747,0.000000000000568434)"/>
<path style="fill-rule:nonzero;fill:rgb(1.960784%,10.196078%,20.392157%);fill-opacity:1;stroke-width:1;stroke-linecap:butt;stroke-linejoin:bevel;stroke:rgb(1.960784%,10.196078%,20.392157%);stroke-opacity:1;stroke-miterlimit:10;" d="M 79 160 C 90.597656 160 100 169.402344 100 181 C 100 192.597656 90.597656 202 79 202 L 48 202 L 48 160 Z M 79 160 " transform="matrix(1,-0.00000000000000098,0.00000000000000098,1,-0.000000000000454747,0.000000000000568434)"/>
<path style="fill-rule:nonzero;fill:rgb(100%,85.490196%,28.627451%);fill-opacity:1;stroke-width:1.3;stroke-linecap:butt;stroke-linejoin:bevel;stroke:rgb(100%,100%,100%);stroke-opacity:1;stroke-miterlimit:10;" d="M 66.308594 191.257812 C 65.007813 189.925781 64.355469 188.304687 64.355469 186.398437 C 64.355469 185.128906 64.644531 183.976562 65.222656 182.945312 C 65.800781 181.914062 66.648438 181.136719 67.761719 180.617187 C 66.667969 179.886719 65.957031 179.097656 65.628906 178.25 C 65.300781 177.402344 65.136719 176.605469 65.136719 175.867187 C 65.136719 174.222656 65.757813 172.816406 66.996094 171.65625 C 68.234375 170.496094 69.984375 169.914062 72.246094 169.914062 C 74.507813 169.914062 76.257813 170.496094 77.496094 171.65625 C 78.734375 172.816406 79.355469 174.222656 79.355469 175.867187 C 79.355469 176.605469 79.191406 177.402344 78.863281 178.25 C 78.535156 179.097656 77.824219 179.835937 76.730469 180.460937 C 77.84375 181.085937 78.683594 181.914062 79.246094 182.945312 C 79.808594 183.976562 80.089844 185.128906 80.089844 186.398437 C 80.089844 188.304687 79.382813 189.925781 77.972656 191.265625 C 76.5625 192.605469 74.589844 193.273437 72.058594 193.273437 C 69.527344 193.273437 67.609375 192.601562 66.308594 191.257812 Z M 68.980469 186.101562 C 68.980469 187.214844 69.269531 188.082031 69.847656 188.695312 C 70.425781 189.308594 71.226563 189.617187 72.246094 189.617187 C 73.265625 189.617187 74.066406 189.308594 74.644531 188.695312 C 75.222656 188.082031 75.511719 187.214844 75.511719 186.101562 C 75.511719 184.945312 75.21875 184.066406 74.628906 183.46875 C 74.039063 182.871094 73.246094 182.570312 72.246094 182.570312 C 71.246094 182.570312 70.453125 182.871094 69.863281 183.46875 C 69.273438 184.066406 68.980469 184.945312 68.980469 186.101562 Z M 70.152344 178.382812 C 70.652344 178.902344 71.351563 179.164062 72.246094 179.164062 C 73.152344 179.164062 73.851563 178.902344 74.347656 178.382812 C 74.84375 177.863281 75.089844 177.191406 75.089844 176.367187 C 75.089844 175.472656 74.84375 174.769531 74.347656 174.265625 C 73.851563 173.761719 73.152344 173.507812 72.246094 173.507812 C 71.351563 173.507812 70.648438 173.761719 70.144531 174.265625 C 69.640625 174.769531 69.386719 175.472656 69.386719 176.367187 C 69.386719 177.191406 69.640625 177.863281 70.152344 178.382812 Z M 81.308594 192.679687 " transform="matrix(1,-0.00000000000000098,0.00000000000000098,1,-0.000000000000454747,0.000000000000568434)"/>
<path style=" stroke:none;fill-rule:nonzero;fill:rgb(100%,85.490196%,28.627451%);fill-opacity:1;" d="M 288 96 C -32 208 368 320 48 432 L 288 432 Z M 288 96 "/>
<path style="fill-rule:nonzero;fill:rgb(1.960784%,17.647059%,29.019608%);fill-opacity:1;stroke-width:1.6;stroke-linecap:butt;stroke-linejoin:bevel;stroke:rgb(100%,100%,100%);stroke-opacity:1;stroke-miterlimit:10;" d="M 61.613281 145.15625 C 59.007812 142.488281 57.707031 139.25 57.707031 135.4375 C 57.707031 132.894531 58.285156 130.59375 59.441406 128.53125 C 60.597656 126.46875 62.289062 124.917969 64.519531 123.875 C 62.332031 122.417969 60.910156 120.839844 60.253906 119.140625 C 59.597656 117.441406 59.269531 115.855469 59.269531 114.375 C 59.269531 111.082031 60.507812 108.277344 62.988281 105.953125 C 65.46875 103.628906 68.96875 102.46875 73.488281 102.46875 C 78.007812 102.46875 81.507812 103.628906 83.988281 105.953125 C 86.46875 108.277344 87.707031 111.082031 87.707031 114.375 C 87.707031 115.855469 87.378906 117.441406 86.722656 119.140625 C 86.066406 120.839844 84.644531 122.3125 82.457031 123.5625 C 84.6875 124.8125 86.363281 126.46875 87.488281 128.53125 C 88.613281 130.59375 89.175781 132.894531 89.175781 135.4375 C 89.175781 139.25 87.765625 142.496094 84.941406 145.171875 C 82.117187 147.847656 78.175781 149.1875 73.113281 149.1875 C 68.050781 149.1875 64.21875 147.84375 61.613281 145.15625 Z M 66.957031 134.84375 C 66.957031 137.074219 67.535156 138.800781 68.691406 140.03125 C 69.847656 141.261719 71.445312 141.875 73.488281 141.875 C 75.53125 141.875 77.128906 141.261719 78.285156 140.03125 C 79.441406 138.800781 80.019531 137.074219 80.019531 134.84375 C 80.019531 132.53125 79.429687 130.777344 78.253906 129.578125 C 77.078125 128.378906 75.488281 127.78125 73.488281 127.78125 C 71.488281 127.78125 69.898437 128.378906 68.722656 129.578125 C 67.546875 130.777344 66.957031 132.53125 66.957031 134.84375 Z M 69.300781 119.40625 C 70.300781 120.449219 71.695312 120.96875 73.488281 120.96875 C 75.300781 120.96875 76.703125 120.449219 77.691406 119.40625 C 78.679687 118.363281 79.175781 117.019531 79.175781 115.375 C 79.175781 113.582031 78.679687 112.183594 77.691406 111.171875 C 76.703125 110.160156 75.300781 109.65625 73.488281 109.65625 C 71.695312 109.65625 70.296875 110.160156 69.285156 111.171875 C 68.273437 112.183594 67.769531 113.582031 67.769531 115.375 C 67.769531 117.019531 68.28125 118.363281 69.300781 119.40625 Z M 91.613281 148 " transform="matrix(-1,0.000000000000001102,-0.000000000000001102,-1,336,528)"/>
<path style="fill-rule:nonzero;fill:rgb(1.960784%,10.196078%,20.392157%);fill-opacity:1;stroke-width:1;stroke-linecap:butt;stroke-linejoin:bevel;stroke:rgb(1.960784%,10.196078%,20.392157%);stroke-opacity:1;stroke-miterlimit:10;" d="M 79 160 C 90.597656 160 100 169.402344 100 181 C 100 192.597656 90.597656 202 79 202 L 48 202 L 48 160 Z M 79 160 " transform="matrix(-1,0.000000000000001102,-0.000000000000001102,-1,336,528)"/>
<path style="fill-rule:nonzero;fill:rgb(82.352941%,98.823529%,29.411765%);fill-opacity:1;stroke-width:1.3;stroke-linecap:butt;stroke-linejoin:bevel;stroke:rgb(100%,100%,100%);stroke-opacity:1;stroke-miterlimit:10;" d="M 73.34375 178.03125 C 75.355469 178.03125 77.003906 178.714844 78.289062 180.078125 C 79.574219 181.441406 80.21875 183.1875 80.21875 185.3125 C 80.21875 187.425781 79.589844 189.292969 78.328125 190.90625 C 77.066406 192.519531 75.109375 193.328125 72.453125 193.328125 C 69.597656 193.328125 67.496094 192.136719 66.140625 189.75 C 65.089844 187.886719 64.5625 185.480469 64.5625 182.53125 C 64.5625 180.800781 64.636719 179.394531 64.78125 178.3125 C 65.042969 176.386719 65.546875 174.78125 66.296875 173.5 C 66.941406 172.40625 67.789062 171.527344 68.835937 170.859375 C 69.882812 170.191406 71.136719 169.859375 72.59375 169.859375 C 74.699219 169.859375 76.375 170.398438 77.625 171.476563 C 78.875 172.554688 79.578125 173.988281 79.734375 175.78125 L 75.296875 175.78125 C 75.296875 175.417969 75.15625 175.015625 74.875 174.578125 C 74.394531 173.871094 73.671875 173.515625 72.703125 173.515625 C 71.253906 173.515625 70.222656 174.328125 69.609375 175.953125 C 69.277344 176.847656 69.046875 178.171875 68.921875 179.921875 C 69.472656 179.265625 70.113281 178.785156 70.84375 178.484375 C 71.574219 178.183594 72.40625 178.03125 73.34375 178.03125 Z M 70.34375 182.28125 C 69.46875 182.957031 69.03125 184.050781 69.03125 185.5625 C 69.03125 186.78125 69.359375 187.777344 70.015625 188.546875 C 70.671875 189.316406 71.503906 189.703125 72.515625 189.703125 C 73.503906 189.703125 74.285156 189.332031 74.851562 188.585938 C 75.417969 187.839844 75.703125 186.875 75.703125 185.6875 C 75.703125 184.363281 75.378906 183.351563 74.734375 182.648438 C 74.089844 181.945313 73.296875 181.59375 72.359375 181.59375 C 71.597656 181.59375 70.925781 181.824219 70.34375 182.28125 Z M 81.359375 192.734375 " transform="matrix(-1,0.000000000000001102,-0.000000000000001102,-1,336,528)"/>
<path style=" stroke:none;fill-rule:nonzero;fill:rgb(82.352941%,98.823529%,29.411765%);fill-opacity:1;" d="M 288 432 C 608 320 208 208 528 96 L 288 96 Z M 288 432 "/>
<path style="fill-rule:nonzero;fill:rgb(1.960784%,17.647059%,29.019608%);fill-opacity:1;stroke-width:1.6;stroke-linecap:butt;stroke-linejoin:bevel;stroke:rgb(100%,100%,100%);stroke-opacity:1;stroke-miterlimit:10;" d="M 315.667969 118.59375 C 319.6875 118.59375 322.984375 119.957031 325.558594 122.6875 C 328.132813 125.417969 329.417969 128.90625 329.417969 133.15625 C 329.417969 137.386719 328.15625 141.113281 325.636719 144.34375 C 323.117188 147.574219 319.199219 149.1875 313.886719 149.1875 C 308.179688 149.1875 303.96875 146.800781 301.261719 142.03125 C 299.15625 138.300781 298.105469 133.488281 298.105469 127.59375 C 298.105469 124.136719 298.25 121.324219 298.542969 119.15625 C 299.0625 115.300781 300.074219 112.09375 301.574219 109.53125 C 302.867188 107.34375 304.558594 105.582031 306.652344 104.25 C 308.746094 102.917969 311.25 102.25 314.167969 102.25 C 318.375 102.25 321.730469 103.328125 324.230469 105.484375 C 326.730469 107.640625 328.136719 110.511719 328.449219 114.09375 L 319.574219 114.09375 C 319.574219 113.363281 319.292969 112.5625 318.730469 111.6875 C 317.773438 110.269531 316.324219 109.5625 314.386719 109.5625 C 311.492188 109.5625 309.429688 111.1875 308.199219 114.4375 C 307.53125 116.230469 307.074219 118.875 306.824219 122.375 C 307.929688 121.0625 309.210938 120.105469 310.667969 119.5 C 312.125 118.894531 313.792969 118.59375 315.667969 118.59375 Z M 309.667969 127.09375 C 307.917969 128.449219 307.042969 130.636719 307.042969 133.65625 C 307.042969 136.09375 307.699219 138.082031 309.011719 139.625 C 310.324219 141.167969 311.992188 141.9375 314.011719 141.9375 C 315.992188 141.9375 317.546875 141.191406 318.683594 139.703125 C 319.820313 138.214844 320.386719 136.28125 320.386719 133.90625 C 320.386719 131.261719 319.742188 129.234375 318.449219 127.828125 C 317.15625 126.421875 315.574219 125.71875 313.699219 125.71875 C 312.179688 125.71875 310.835938 126.175781 309.667969 127.09375 Z M 331.699219 148 " transform="matrix(1,-0.000000000000001225,0.000000000000001225,1,-0.000000000000483169,0.000000000000625278)"/>
<path style="fill-rule:nonzero;fill:rgb(1.960784%,10.196078%,20.392157%);fill-opacity:1;stroke-width:1;stroke-linecap:butt;stroke-linejoin:bevel;stroke:rgb(1.960784%,10.196078%,20.392157%);stroke-opacity:1;stroke-miterlimit:10;" d="M 319 160 C 330.597656 160 340 169.402344 340 181 C 340 192.597656 330.597656 202 319 202 L 288 202 L 288 160 Z M 319 160 " transform="matrix(1,-0.000000000000001225,0.000000000000001225,1,-0.000000000000483169,0.000000000000625278)"/>
<path style="fill-rule:nonzero;fill:rgb(95.686275%,45.882353%,0.392157%);fill-opacity:1;stroke-width:1.3;stroke-linecap:butt;stroke-linejoin:bevel;stroke:rgb(100%,100%,100%);stroke-opacity:1;stroke-miterlimit:10;" d="M 311.8125 193.40625 C 310.113281 193.40625 308.589844 192.902344 307.234375 191.898438 C 305.878906 190.894531 305.105469 189.425781 304.90625 187.5 L 309.34375 187.5 C 309.449219 188.167969 309.730469 188.707031 310.1875 189.125 C 310.644531 189.542969 311.253906 189.75 312.015625 189.75 C 313.484375 189.75 314.515625 188.9375 315.109375 187.3125 C 315.433594 186.417969 315.636719 185.109375 315.71875 183.390625 C 315.3125 183.902344 314.878906 184.292969 314.421875 184.5625 C 313.589844 185.0625 312.5625 185.3125 311.34375 185.3125 C 309.542969 185.3125 307.941406 184.691406 306.546875 183.445313 C 305.152344 182.199219 304.453125 180.40625 304.453125 178.0625 C 304.453125 175.636719 305.152344 173.667969 306.554688 172.164063 C 307.957031 170.660156 309.777344 169.90625 312.015625 169.90625 C 315.464844 169.90625 317.828125 171.433594 319.109375 174.484375 C 319.839844 176.214844 320.203125 178.488281 320.203125 181.3125 C 320.203125 184.050781 319.855469 186.339844 319.15625 188.171875 C 317.824219 191.660156 315.375 193.40625 311.8125 193.40625 Z M 310.25 174.265625 C 309.394531 174.933594 308.96875 176.0625 308.96875 177.65625 C 308.96875 179 309.242188 180.007813 309.789063 180.679688 C 310.335938 181.351563 311.175781 181.6875 312.3125 181.6875 C 312.925781 181.6875 313.503906 181.511719 314.046875 181.15625 C 315.058594 180.511719 315.5625 179.390625 315.5625 177.796875 C 315.5625 176.515625 315.261719 175.5 314.664063 174.75 C 314.066406 174 313.246094 173.625 312.203125 173.625 C 311.441406 173.625 310.792969 173.839844 310.25 174.265625 Z M 321.296875 192.75 " transform="matrix(1,-0.000000000000001225,0.000000000000001225,1,-0.000000000000483169,0.000000000000625278)"/>
<path style=" stroke:none;fill-rule:nonzero;fill:rgb(95.686275%,45.882353%,0.392157%);fill-opacity:1;" d="M 528 96 C 208 208 608 320 288 432 L 528 432 Z M 528 96 "/>
<path style="fill-rule:nonzero;fill:rgb(1.960784%,17.647059%,29.019608%);fill-opacity:1;stroke-width:1.6;stroke-linecap:butt;stroke-linejoin:bevel;stroke:rgb(100%,100%,100%);stroke-opacity:1;stroke-miterlimit:10;" d="M 312.625 149.3125 C 309.230469 149.3125 306.175781 148.308594 303.46875 146.296875 C 300.761719 144.285156 299.207031 141.355469 298.8125 137.5 L 307.6875 137.5 C 307.894531 138.832031 308.457031 139.917969 309.375 140.75 C 310.292969 141.582031 311.511719 142 313.03125 142 C 315.96875 142 318.03125 140.375 319.21875 137.125 C 319.863281 135.332031 320.269531 132.71875 320.4375 129.28125 C 319.625 130.300781 318.761719 131.082031 317.84375 131.625 C 316.175781 132.625 314.125 133.125 311.6875 133.125 C 308.082031 133.125 304.886719 131.878906 302.09375 129.390625 C 299.300781 126.902344 297.90625 123.3125 297.90625 118.625 C 297.90625 113.769531 299.308594 109.839844 302.109375 106.828125 C 304.910156 103.816406 308.550781 102.3125 313.03125 102.3125 C 319.925781 102.3125 324.65625 105.363281 327.21875 111.46875 C 328.675781 114.925781 329.40625 119.480469 329.40625 125.125 C 329.40625 130.605469 328.707031 135.175781 327.3125 138.84375 C 324.644531 145.824219 319.75 149.3125 312.625 149.3125 Z M 309.5 111.03125 C 307.792969 112.363281 306.9375 114.625 306.9375 117.8125 C 306.9375 120.5 307.484375 122.515625 308.578125 123.859375 C 309.671875 125.203125 311.355469 125.875 313.625 125.875 C 314.855469 125.875 316.011719 125.519531 317.09375 124.8125 C 319.113281 123.519531 320.125 121.28125 320.125 118.09375 C 320.125 115.53125 319.527344 113.5 318.328125 112 C 317.128906 110.5 315.488281 109.75 313.40625 109.75 C 311.886719 109.75 310.582031 110.175781 309.5 111.03125 Z M 331.59375 148 " transform="matrix(-1,0.000000000000001347,-0.000000000000001347,-1,816,528)"/>
<path style="fill-rule:nonzero;fill:rgb(1.960784%,10.196078%,20.392157%);fill-opacity:1;stroke-width:1;stroke-linecap:butt;stroke-linejoin:bevel;stroke:rgb(1.960784%,10.196078%,20.392157%);stroke-opacity:1;stroke-miterlimit:10;" d="M 319 160 C 330.597656 160 340 169.402344 340 181 C 340 192.597656 330.597656 202 319 202 L 288 202 L 288 160 Z M 319 160 " transform="matrix(-1,0.000000000000001347,-0.000000000000001347,-1,816,528)"/>
<path style="fill-rule:nonzero;fill:rgb(82.352941%,98.823529%,29.411765%);fill-opacity:1;stroke-width:1.3;stroke-linecap:butt;stroke-linejoin:bevel;stroke:rgb(100%,100%,100%);stroke-opacity:1;stroke-miterlimit:10;" d="M 313.34375 178.03125 C 315.355469 178.03125 317.003906 178.714844 318.289062 180.078125 C 319.574219 181.441406 320.21875 183.1875 320.21875 185.3125 C 320.21875 187.425781 319.589844 189.292969 318.328125 190.90625 C 317.066406 192.519531 315.109375 193.328125 312.453125 193.328125 C 309.597656 193.328125 307.496094 192.136719 306.140625 189.75 C 305.089844 187.886719 304.5625 185.480469 304.5625 182.53125 C 304.5625 180.800781 304.636719 179.394531 304.78125 178.3125 C 305.042969 176.386719 305.546875 174.78125 306.296875 173.5 C 306.941406 172.40625 307.789062 171.527344 308.835937 170.859375 C 309.882812 170.191406 311.136719 169.859375 312.59375 169.859375 C 314.699219 169.859375 316.375 170.398437 317.625 171.476562 C 318.875 172.554687 319.578125 173.988281 319.734375 175.78125 L 315.296875 175.78125 C 315.296875 175.417969 315.15625 175.015625 314.875 174.578125 C 314.394531 173.871094 313.671875 173.515625 312.703125 173.515625 C 311.253906 173.515625 310.222656 174.328125 309.609375 175.953125 C 309.277344 176.847656 309.046875 178.171875 308.921875 179.921875 C 309.472656 179.265625 310.113281 178.785156 310.84375 178.484375 C 311.574219 178.183594 312.40625 178.03125 313.34375 178.03125 Z M 310.34375 182.28125 C 309.46875 182.957031 309.03125 184.050781 309.03125 185.5625 C 309.03125 186.78125 309.359375 187.777344 310.015625 188.546875 C 310.671875 189.316406 311.503906 189.703125 312.515625 189.703125 C 313.503906 189.703125 314.285156 189.332031 314.851562 188.585937 C 315.417969 187.839844 315.703125 186.875 315.703125 185.6875 C 315.703125 184.363281 315.378906 183.351562 314.734375 182.648437 C 314.089844 181.945312 313.296875 181.59375 312.359375 181.59375 C 311.597656 181.59375 310.925781 181.824219 310.34375 182.28125 Z M 321.359375 192.734375 " transform="matrix(-1,0.000000000000001347,-0.000000000000001347,-1,816,528)"/>
<path style=" stroke:none;fill-rule:nonzero;fill:rgb(82.352941%,98.823529%,29.411765%);fill-opacity:1;" d="M 528 432 C 848 320 448 208 768 96 L 528 96 Z M 528 432 "/>
<path style="fill-rule:nonzero;fill:rgb(1.960784%,17.647059%,29.019608%);fill-opacity:1;stroke-width:1.6;stroke-linecap:butt;stroke-linejoin:bevel;stroke:rgb(100%,100%,100%);stroke-opacity:1;stroke-miterlimit:10;" d="M 555.667969 118.59375 C 559.6875 118.59375 562.984375 119.957031 565.558594 122.6875 C 568.132813 125.417969 569.417969 128.90625 569.417969 133.15625 C 569.417969 137.386719 568.15625 141.113281 565.636719 144.34375 C 563.117188 147.574219 559.199219 149.1875 553.886719 149.1875 C 548.179688 149.1875 543.96875 146.800781 541.261719 142.03125 C 539.15625 138.300781 538.105469 133.488281 538.105469 127.59375 C 538.105469 124.136719 538.25 121.324219 538.542969 119.15625 C 539.0625 115.300781 540.074219 112.09375 541.574219 109.53125 C 542.867188 107.34375 544.558594 105.582031 546.652344 104.25 C 548.746094 102.917969 551.25 102.25 554.167969 102.25 C 558.375 102.25 561.730469 103.328125 564.230469 105.484375 C 566.730469 107.640625 568.136719 110.511719 568.449219 114.09375 L 559.574219 114.09375 C 559.574219 113.363281 559.292969 112.5625 558.730469 111.6875 C 557.773438 110.269531 556.324219 109.5625 554.386719 109.5625 C 551.492188 109.5625 549.429688 111.1875 548.199219 114.4375 C 547.53125 116.230469 547.074219 118.875 546.824219 122.375 C 547.929688 121.0625 549.210938 120.105469 550.667969 119.5 C 552.125 118.894531 553.792969 118.59375 555.667969 118.59375 Z M 549.667969 127.09375 C 547.917969 128.449219 547.042969 130.636719 547.042969 133.65625 C 547.042969 136.09375 547.699219 138.082031 549.011719 139.625 C 550.324219 141.167969 551.992188 141.9375 554.011719 141.9375 C 555.992188 141.9375 557.546875 141.191406 558.683594 139.703125 C 559.820313 138.214844 560.386719 136.28125 560.386719 133.90625 C 560.386719 131.261719 559.742188 129.234375 558.449219 127.828125 C 557.15625 126.421875 555.574219 125.71875 553.699219 125.71875 C 552.179688 125.71875 550.835938 126.175781 549.667969 127.09375 Z M 571.699219 148 " transform="matrix(1,-0.00000000000000147,0.00000000000000147,1,-0.000000000000511591,0.000000000000738964)"/>
<path style="fill-rule:nonzero;fill:rgb(1.960784%,10.196078%,20.392157%);fill-opacity:1;stroke-width:1;stroke-linecap:butt;stroke-linejoin:bevel;stroke:rgb(1.960784%,10.196078%,20.392157%);stroke-opacity:1;stroke-miterlimit:10;" d="M 559 160 C 570.597656 160 580 169.402344 580 181 C 580 192.597656 570.597656 202 559 202 L 528 202 L 528 160 Z M 559 160 " transform="matrix(1,-0.00000000000000147,0.00000000000000147,1,-0.000000000000511591,0.000000000000738964)"/>
<path style="fill-rule:nonzero;fill:rgb(99.607843%,23.921569%,32.156863%);fill-opacity:1;stroke-width:1.3;stroke-linecap:butt;stroke-linejoin:bevel;stroke:rgb(100%,100%,100%);stroke-opacity:1;stroke-miterlimit:10;" d="M 555.378906 187.78125 L 546.894531 187.78125 L 545.300781 192.515625 L 540.269531 192.515625 L 548.488281 169.484375 L 553.925781 169.484375 L 562.082031 192.515625 L 556.863281 192.515625 Z M 554.035156 183.8125 L 551.160156 174.75 L 548.191406 183.8125 Z M 562.566406 192.515625 " transform="matrix(1,-0.00000000000000147,0.00000000000000147,1,-0.000000000000511591,0.000000000000738964)"/>
<path style=" stroke:none;fill-rule:nonzero;fill:rgb(99.607843%,23.921569%,32.156863%);fill-opacity:1;" d="M 768 96 C 448 208 848 320 528 432 L 768 432 Z M 768 96 "/>
<path style="fill-rule:nonzero;fill:rgb(1.960784%,17.647059%,29.019608%);fill-opacity:1;stroke-width:1.6;stroke-linecap:butt;stroke-linejoin:bevel;stroke:rgb(100%,100%,100%);stroke-opacity:1;stroke-miterlimit:10;" d="M 560.914062 138.53125 L 543.945312 138.53125 L 540.757812 148 L 530.695312 148 L 547.132812 101.9375 L 558.007812 101.9375 L 574.320312 148 L 563.882812 148 Z M 558.226562 130.59375 L 552.476562 112.46875 L 546.539062 130.59375 Z M 575.289062 148 " transform="matrix(-1,0.000000000000001592,-0.000000000000001592,-1,1296,528)"/>
<path style="fill-rule:nonzero;fill:rgb(1.960784%,10.196078%,20.392157%);fill-opacity:1;stroke-width:1;stroke-linecap:butt;stroke-linejoin:bevel;stroke:rgb(1.960784%,10.196078%,20.392157%);stroke-opacity:1;stroke-miterlimit:10;" d="M 559 160 C 570.597656 160 580 169.402344 580 181 C 580 192.597656 570.597656 202 559 202 L 528 202 L 528 160 Z M 559 160 " transform="matrix(-1,0.000000000000001592,-0.000000000000001592,-1,1296,528)"/>
<path style="fill-rule:nonzero;fill:rgb(82.352941%,98.823529%,29.411765%);fill-opacity:1;stroke-width:1.3;stroke-linecap:butt;stroke-linejoin:bevel;stroke:rgb(100%,100%,100%);stroke-opacity:1;stroke-miterlimit:10;" d="M 553.34375 178.03125 C 555.355469 178.03125 557.003906 178.714844 558.289062 180.078125 C 559.574219 181.441406 560.21875 183.1875 560.21875 185.3125 C 560.21875 187.425781 559.589844 189.292969 558.328125 190.90625 C 557.066406 192.519531 555.109375 193.328125 552.453125 193.328125 C 549.597656 193.328125 547.496094 192.136719 546.140625 189.75 C 545.089844 187.886719 544.5625 185.480469 544.5625 182.53125 C 544.5625 180.800781 544.636719 179.394531 544.78125 178.3125 C 545.042969 176.386719 545.546875 174.78125 546.296875 173.5 C 546.941406 172.40625 547.789062 171.527344 548.835937 170.859375 C 549.882812 170.191406 551.136719 169.859375 552.59375 169.859375 C 554.699219 169.859375 556.375 170.398437 557.625 171.476562 C 558.875 172.554687 559.578125 173.988281 559.734375 175.78125 L 555.296875 175.78125 C 555.296875 175.417969 555.15625 175.015625 554.875 174.578125 C 554.394531 173.871094 553.671875 173.515625 552.703125 173.515625 C 551.253906 173.515625 550.222656 174.328125 549.609375 175.953125 C 549.277344 176.847656 549.046875 178.171875 548.921875 179.921875 C 549.472656 179.265625 550.113281 178.785156 550.84375 178.484375 C 551.574219 178.183594 552.40625 178.03125 553.34375 178.03125 Z M 550.34375 182.28125 C 549.46875 182.957031 549.03125 184.050781 549.03125 185.5625 C 549.03125 186.78125 549.359375 187.777344 550.015625 188.546875 C 550.671875 189.316406 551.503906 189.703125 552.515625 189.703125 C 553.503906 189.703125 554.285156 189.332031 554.851562 188.585937 C 555.417969 187.839844 555.703125 186.875 555.703125 185.6875 C 555.703125 184.363281 555.378906 183.351562 554.734375 182.648437 C 554.089844 181.945312 553.296875 181.59375 552.359375 181.59375 C 551.597656 181.59375 550.925781 181.824219 550.34375 182.28125 Z M 561.359375 192.734375 " transform="matrix(-1,0.000000000000001592,-0.000000000000001592,-1,1296,528)"/>
<path style=" stroke:none;fill-rule:nonzero;fill:rgb(99.607843%,92.54902%,1.568627%);fill-opacity:1;" d="M 768 432 C 1088 320 688 208 1008 96 L 768 96 Z M 768 432 "/>
<path style="fill-rule:nonzero;fill:rgb(1.960784%,17.647059%,29.019608%);fill-opacity:1;stroke-width:1.6;stroke-linecap:butt;stroke-linejoin:bevel;stroke:rgb(100%,100%,100%);stroke-opacity:1;stroke-miterlimit:10;" d="M 803.832031 117.25 C 801.457031 120.625 799.46875 124.105469 797.863281 127.6875 C 796.59375 130.5 795.445313 133.9375 794.425781 138 C 793.40625 142.0625 792.894531 145.394531 792.894531 148 L 783.644531 148 C 783.914063 139.875 786.582031 131.425781 791.644531 122.65625 C 794.914063 117.21875 797.65625 113.425781 799.863281 111.28125 L 777.269531 111.28125 L 777.394531 103.28125 L 809.394531 103.28125 L 809.394531 110.25 C 808.0625 111.5625 806.207031 113.894531 803.832031 117.25 Z M 811.238281 148 " transform="matrix(1,-0.000000000000001715,0.000000000000001715,1,-0.000000000000682121,0.000000000000909495)"/>
<path style="fill-rule:nonzero;fill:rgb(1.960784%,10.196078%,20.392157%);fill-opacity:1;stroke-width:1;stroke-linecap:butt;stroke-linejoin:bevel;stroke:rgb(1.960784%,10.196078%,20.392157%);stroke-opacity:1;stroke-miterlimit:10;" d="M 799 160 C 810.597656 160 820 169.402344 820 181 C 820 192.597656 810.597656 202 799 202 L 768 202 L 768 160 Z M 799 160 " transform="matrix(1,-0.000000000000001715,0.000000000000001715,1,-0.000000000000682121,0.000000000000909495)"/>
<path style="fill-rule:nonzero;fill:rgb(100%,85.490196%,28.627451%);fill-opacity:1;stroke-width:1.3;stroke-linecap:butt;stroke-linejoin:bevel;stroke:rgb(100%,100%,100%);stroke-opacity:1;stroke-miterlimit:10;" d="M 786.308594 191.257813 C 785.007813 189.925781 784.355469 188.304688 784.355469 186.398438 C 784.355469 185.128906 784.644531 183.976563 785.222656 182.945313 C 785.800781 181.914063 786.648438 181.136719 787.761719 180.617188 C 786.667969 179.886719 785.957031 179.097656 785.628906 178.25 C 785.300781 177.402344 785.136719 176.605469 785.136719 175.867188 C 785.136719 174.222656 785.757813 172.816406 786.996094 171.65625 C 788.234375 170.496094 789.984375 169.914063 792.246094 169.914063 C 794.507813 169.914063 796.257813 170.496094 797.496094 171.65625 C 798.734375 172.816406 799.355469 174.222656 799.355469 175.867188 C 799.355469 176.605469 799.191406 177.402344 798.863281 178.25 C 798.535156 179.097656 797.824219 179.835938 796.730469 180.460938 C 797.84375 181.085938 798.683594 181.914063 799.246094 182.945313 C 799.808594 183.976563 800.089844 185.128906 800.089844 186.398438 C 800.089844 188.304688 799.382813 189.925781 797.972656 191.265625 C 796.5625 192.605469 794.589844 193.273438 792.058594 193.273438 C 789.527344 193.273438 787.609375 192.601563 786.308594 191.257813 Z M 788.980469 186.101563 C 788.980469 187.214844 789.269531 188.082031 789.847656 188.695313 C 790.425781 189.308594 791.226563 189.617188 792.246094 189.617188 C 793.265625 189.617188 794.066406 189.308594 794.644531 188.695313 C 795.222656 188.082031 795.511719 187.214844 795.511719 186.101563 C 795.511719 184.945313 795.21875 184.066406 794.628906 183.46875 C 794.039063 182.871094 793.246094 182.570313 792.246094 182.570313 C 791.246094 182.570313 790.453125 182.871094 789.863281 183.46875 C 789.273438 184.066406 788.980469 184.945313 788.980469 186.101563 Z M 790.152344 178.382813 C 790.652344 178.902344 791.351563 179.164063 792.246094 179.164063 C 793.152344 179.164063 793.851563 178.902344 794.347656 178.382813 C 794.84375 177.863281 795.089844 177.191406 795.089844 176.367188 C 795.089844 175.472656 794.84375 174.769531 794.347656 174.265625 C 793.851563 173.761719 793.152344 173.507813 792.246094 173.507813 C 791.351563 173.507813 790.648438 173.761719 790.144531 174.265625 C 789.640625 174.769531 789.386719 175.472656 789.386719 176.367188 C 789.386719 177.191406 789.640625 177.863281 790.152344 178.382813 Z M 801.308594 192.679688 " transform="matrix(1,-0.000000000000001715,0.000000000000001715,1,-0.000000000000682121,0.000000000000909495)"/>
<path style=" stroke:none;fill-rule:nonzero;fill:rgb(100%,85.490196%,28.627451%);fill-opacity:1;" d="M 1008 96 C 688 208 1088 320 768 432 L 1008 432 Z M 1008 96 "/>
<path style="fill-rule:nonzero;fill:rgb(1.960784%,17.647059%,29.019608%);fill-opacity:1;stroke-width:1.6;stroke-linecap:butt;stroke-linejoin:bevel;stroke:rgb(100%,100%,100%);stroke-opacity:1;stroke-miterlimit:10;" d="M 781.613281 145.15625 C 779.007812 142.488281 777.707031 139.25 777.707031 135.4375 C 777.707031 132.894531 778.285156 130.59375 779.441406 128.53125 C 780.597656 126.46875 782.289062 124.917969 784.519531 123.875 C 782.332031 122.417969 780.910156 120.839844 780.253906 119.140625 C 779.597656 117.441406 779.269531 115.855469 779.269531 114.375 C 779.269531 111.082031 780.507812 108.277344 782.988281 105.953125 C 785.46875 103.628906 788.96875 102.46875 793.488281 102.46875 C 798.007812 102.46875 801.507812 103.628906 803.988281 105.953125 C 806.46875 108.277344 807.707031 111.082031 807.707031 114.375 C 807.707031 115.855469 807.378906 117.441406 806.722656 119.140625 C 806.066406 120.839844 804.644531 122.3125 802.457031 123.5625 C 804.6875 124.8125 806.363281 126.46875 807.488281 128.53125 C 808.613281 130.59375 809.175781 132.894531 809.175781 135.4375 C 809.175781 139.25 807.765625 142.496094 804.941406 145.171875 C 802.117187 147.847656 798.175781 149.1875 793.113281 149.1875 C 788.050781 149.1875 784.21875 147.84375 781.613281 145.15625 Z M 786.957031 134.84375 C 786.957031 137.074219 787.535156 138.800781 788.691406 140.03125 C 789.847656 141.261719 791.445312 141.875 793.488281 141.875 C 795.53125 141.875 797.128906 141.261719 798.285156 140.03125 C 799.441406 138.800781 800.019531 137.074219 800.019531 134.84375 C 800.019531 132.53125 799.429687 130.777344 798.253906 129.578125 C 797.078125 128.378906 795.488281 127.78125 793.488281 127.78125 C 791.488281 127.78125 789.898437 128.378906 788.722656 129.578125 C 787.546875 130.777344 786.957031 132.53125 786.957031 134.84375 Z M 789.300781 119.40625 C 790.300781 120.449219 791.695312 120.96875 793.488281 120.96875 C 795.300781 120.96875 796.703125 120.449219 797.691406 119.40625 C 798.679687 118.363281 799.175781 117.019531 799.175781 115.375 C 799.175781 113.582031 798.679687 112.183594 797.691406 111.171875 C 796.703125 110.160156 795.300781 109.65625 793.488281 109.65625 C 791.695312 109.65625 790.296875 110.160156 789.285156 111.171875 C 788.273437 112.183594 787.769531 113.582031 787.769531 115.375 C 787.769531 117.019531 788.28125 118.363281 789.300781 119.40625 Z M 811.613281 148 " transform="matrix(-1,0.000000000000001837,-0.000000000000001837,-1,1776,528)"/>
<path style="fill-rule:nonzero;fill:rgb(1.960784%,10.196078%,20.392157%);fill-opacity:1;stroke-width:1;stroke-linecap:butt;stroke-linejoin:bevel;stroke:rgb(1.960784%,10.196078%,20.392157%);stroke-opacity:1;stroke-miterlimit:10;" d="M 799 160 C 810.597656 160 820 169.402344 820 181 C 820 192.597656 810.597656 202 799 202 L 768 202 L 768 160 Z M 799 160 " transform="matrix(-1,0.000000000000001837,-0.000000000000001837,-1,1776,528)"/>
<path style="fill-rule:nonzero;fill:rgb(99.607843%,92.54902%,1.568627%);fill-opacity:1;stroke-width:1.3;stroke-linecap:butt;stroke-linejoin:bevel;stroke:rgb(100%,100%,100%);stroke-opacity:1;stroke-miterlimit:10;" d="M 797.386719 176.804687 C 796.199219 178.492187 795.203125 180.230469 794.402344 182.023437 C 793.765625 183.429687 793.195312 185.148437 792.683594 187.179687 C 792.171875 189.210937 791.917969 190.878906 791.917969 192.179687 L 787.292969 192.179687 C 787.429687 188.117187 788.761719 183.894531 791.292969 179.507812 C 792.929687 176.789062 794.296875 174.894531 795.402344 173.820312 L 784.105469 173.820312 L 784.167969 169.820312 L 800.167969 169.820312 L 800.167969 173.304687 C 799.5 173.960937 798.574219 175.128906 797.386719 176.804687 Z M 801.089844 192.179687 " transform="matrix(-1,0.000000000000001837,-0.000000000000001837,-1,1776,528)"/>
</g>
</svg>
