<?xml version="1.0" encoding="UTF-8"?>
<svg xmlns="http://www.w3.org/2000/svg" xmlns:xlink="http://www.w3.org/1999/xlink" width="1056pt" height="816pt" viewBox="0 0 1056 816" version="1.1">
<g id="surface4">
<path style=" stroke:none;fill-rule:nonzero;fill:rgb(30.196078%,40.392157%,74.509804%);fill-opacity:1;" d="M 48 768 C 368 656 -32 544 288 432 L 48 432 Z M 48 768 "/>
<path style="fill-rule:nonzero;fill:rgb(1.960784%,17.647059%,29.019608%);fill-opacity:1;stroke-width:1.6;stroke-linecap:butt;stroke-linejoin:bevel;stroke:rgb(100%,100%,100%);stroke-opacity:1;stroke-miterlimit:10;" d="M 86.914062 484 L 77.789062 484 L 77.789062 452.75 L 67.132812 452.75 L 67.132812 446.6875 C 69.945312 446.5625 71.914062 446.375 73.039062 446.125 C 74.832031 445.730469 76.289062 444.9375 77.414062 443.75 C 78.183594 442.9375 78.769531 441.855469 79.164062 440.5 C 79.394531 439.6875 79.507812 439.082031 79.507812 438.6875 L 86.914062 438.6875 Z M 98.289062 484 "/>
<path style="fill-rule:nonzero;fill:rgb(1.960784%,10.196078%,20.392157%);fill-opacity:1;stroke-width:1;stroke-linecap:butt;stroke-linejoin:bevel;stroke:rgb(1.960784%,10.196078%,20.392157%);stroke-opacity:1;stroke-miterlimit:10;" d="M 79 496 C 90.597656 496 100 505.402344 100 517 C 100 528.597656 90.597656 538 79 538 L 48 538 L 48 496 Z M 79 496 "/>
<path style="fill-rule:nonzero;fill:rgb(99.607843%,23.921569%,32.156863%);fill-opacity:1;stroke-width:1.3;stroke-linecap:butt;stroke-linejoin:bevel;stroke:rgb(100%,100%,100%);stroke-opacity:1;stroke-miterlimit:10;" d="M 75.378906 523.78125 L 66.894531 523.78125 L 65.300781 528.515625 L 60.269531 528.515625 L 68.488281 505.484375 L 73.925781 505.484375 L 82.082031 528.515625 L 76.863281 528.515625 Z M 74.035156 519.8125 L 71.160156 510.75 L 68.191406 519.8125 Z M 82.566406 528.515625 "/>
<path style=" stroke:none;fill-rule:nonzero;fill:rgb(99.607843%,23.921569%,32.156863%);fill-opacity:1;" d="M 288 432 C -32 544 368 656 48 768 L 288 768 Z M 288 432 "/>
<path style="fill-rule:nonzero;fill:rgb(1.960784%,17.647059%,29.019608%);fill-opacity:1;stroke-width:1.6;stroke-linecap:butt;stroke-linejoin:bevel;stroke:rgb(100%,100%,100%);stroke-opacity:1;stroke-miterlimit:10;" d="M 80.914062 474.53125 L 63.945312 474.53125 L 60.757812 484 L 50.695312 484 L 67.132812 437.9375 L 78.007812 437.9375 L 94.320312 484 L 83.882812 484 Z M 78.226562 466.59375 L 72.476562 448.46875 L 66.539062 466.59375 Z M 95.289062 484 " transform="matrix(-1,0.000000000000000122,-0.000000000000000122,-1,336,1200)"/>
<path style="fill-rule:nonzero;fill:rgb(1.960784%,10.196078%,20.392157%);fill-opacity:1;stroke-width:1;stroke-linecap:butt;stroke-linejoin:bevel;stroke:rgb(1.960784%,10.196078%,20.392157%);stroke-opacity:1;stroke-miterlimit:10;" d="M 79 496 C 90.597656 496 100 505.402344 100 517 C 100 528.597656 90.597656 538 79 538 L 48 538 L 48 496 Z M 79 496 " transform="matrix(-1,0.000000000000000122,-0.000000000000000122,-1,336,1200)"/>
<path style="fill-rule:nonzero;fill:rgb(30.196078%,40.392157%,74.509804%);fill-opacity:1;stroke-width:1.3;stroke-linecap:butt;stroke-linejoin:bevel;stroke:rgb(100%,100%,100%);stroke-opacity:1;stroke-miterlimit:10;" d="M 79.515625 528.328125 L 74.953125 528.328125 L 74.953125 512.703125 L 69.625 512.703125 L 69.625 509.671875 C 71.03125 509.609375 72.015625 509.515625 72.578125 509.390625 C 73.472656 509.191406 74.203125 508.796875 74.765625 508.203125 C 75.152344 507.796875 75.441406 507.253906 75.640625 506.578125 C 75.753906 506.171875 75.8125 505.871094 75.8125 505.671875 L 79.515625 505.671875 Z M 85.203125 528.328125 " transform="matrix(-1,0.000000000000000122,-0.000000000000000122,-1,336,1200)"/>
<path style=" stroke:none;fill-rule:nonzero;fill:rgb(0%,55.686275%,88.627451%);fill-opacity:1;" d="M 288 768 C 608 656 208 544 528 432 L 288 432 Z M 288 768 "/>
<path style="fill-rule:nonzero;fill:rgb(1.960784%,17.647059%,29.019608%);fill-opacity:1;stroke-width:1.6;stroke-linecap:butt;stroke-linejoin:bevel;stroke:rgb(100%,100%,100%);stroke-opacity:1;stroke-miterlimit:10;" d="M 318.519531 447.90625 C 317.457031 446.636719 315.9375 446 313.957031 446 C 311.25 446 309.40625 447.011719 308.425781 449.03125 C 307.863281 450.199219 307.53125 452.050781 307.425781 454.59375 L 298.769531 454.59375 C 298.914063 450.738281 299.613281 447.625 300.863281 445.25 C 303.238281 440.730469 307.457031 438.46875 313.519531 438.46875 C 318.3125 438.46875 322.125 439.796875 324.957031 442.453125 C 327.789063 445.109375 329.207031 448.625 329.207031 453 C 329.207031 456.355469 328.207031 459.332031 326.207031 461.9375 C 324.894531 463.667969 322.738281 465.59375 319.738281 467.71875 L 316.175781 470.25 C 313.945313 471.832031 312.421875 472.980469 311.597656 473.6875 C 310.773438 474.394531 310.082031 475.21875 309.519531 476.15625 L 329.300781 476.15625 L 329.300781 484 L 298.269531 484 C 298.351563 480.75 299.050781 477.78125 300.363281 475.09375 C 301.632813 472.074219 304.632813 468.875 309.363281 465.5 C 313.46875 462.5625 316.125 460.457031 317.332031 459.1875 C 319.1875 457.207031 320.113281 455.042969 320.113281 452.6875 C 320.113281 450.769531 319.582031 449.175781 318.519531 447.90625 Z M 331.863281 484 " transform="matrix(1,-0.000000000000000245,0.000000000000000245,1,-0.000000000000113687,0)"/>
<path style="fill-rule:nonzero;fill:rgb(1.960784%,10.196078%,20.392157%);fill-opacity:1;stroke-width:1;stroke-linecap:butt;stroke-linejoin:bevel;stroke:rgb(1.960784%,10.196078%,20.392157%);stroke-opacity:1;stroke-miterlimit:10;" d="M 319 496 C 330.597656 496 340 505.402344 340 517 C 340 528.597656 330.597656 538 319 538 L 288 538 L 288 496 Z M 319 496 " transform="matrix(1,-0.000000000000000245,0.000000000000000245,1,-0.000000000000113687,0)"/>
<path style="fill-rule:nonzero;fill:rgb(0%,76.470588%,95.294118%);fill-opacity:1;stroke-width:1.3;stroke-linecap:butt;stroke-linejoin:bevel;stroke:rgb(100%,100%,100%);stroke-opacity:1;stroke-miterlimit:10;" d="M 309.675781 510.523438 C 309.175781 511.191406 308.9375 512.082031 308.957031 513.195313 L 304.800781 513.195313 C 304.84375 512.070313 305.035156 511.003906 305.378906 509.992188 C 305.742188 509.105469 306.316406 508.289063 307.097656 507.539063 C 307.679688 507.007813 308.375 506.601563 309.175781 506.320313 C 309.976563 506.039063 310.960938 505.898438 312.128906 505.898438 C 314.296875 505.898438 316.042969 506.457031 317.371094 507.578125 C 318.699219 508.699219 319.363281 510.199219 319.363281 512.085938 C 319.363281 513.417969 318.96875 514.542969 318.175781 515.460938 C 317.675781 516.035156 317.15625 516.425781 316.613281 516.632813 C 317.019531 516.632813 317.601563 516.980469 318.363281 517.679688 C 319.5 518.730469 320.066406 520.167969 320.066406 521.992188 C 320.066406 523.910156 319.402344 525.59375 318.074219 527.046875 C 316.746094 528.5 314.78125 529.226563 312.175781 529.226563 C 308.96875 529.226563 306.738281 528.179688 305.488281 526.085938 C 304.832031 524.972656 304.46875 523.511719 304.394531 521.710938 L 308.769531 521.710938 C 308.769531 522.617188 308.914063 523.367188 309.207031 523.960938 C 309.75 525.054688 310.734375 525.601563 312.160156 525.601563 C 313.035156 525.601563 313.796875 525.300781 314.449219 524.703125 C 315.101563 524.105469 315.425781 523.242188 315.425781 522.117188 C 315.425781 520.628906 314.820313 519.632813 313.613281 519.132813 C 312.925781 518.851563 311.84375 518.710938 310.363281 518.710938 L 310.363281 515.523438 C 311.8125 515.503906 312.820313 515.363281 313.394531 515.101563 C 314.382813 514.664063 314.878906 513.777344 314.878906 512.445313 C 314.878906 511.582031 314.625 510.878906 314.121094 510.335938 C 313.617188 509.792969 312.90625 509.523438 311.988281 509.523438 C 310.9375 509.523438 310.164063 509.855469 309.675781 510.523438 Z M 321.347656 528.664063 " transform="matrix(1,-0.000000000000000245,0.000000000000000245,1,-0.000000000000113687,0)"/>
<path style=" stroke:none;fill-rule:nonzero;fill:rgb(0%,76.470588%,95.294118%);fill-opacity:1;" d="M 528 432 C 208 544 608 656 288 768 L 528 768 Z M 528 432 "/>
<path style="fill-rule:nonzero;fill:rgb(1.960784%,17.647059%,29.019608%);fill-opacity:1;stroke-width:1.6;stroke-linecap:butt;stroke-linejoin:bevel;stroke:rgb(100%,100%,100%);stroke-opacity:1;stroke-miterlimit:10;" d="M 308.339844 447.71875 C 307.339844 449.050781 306.859375 450.832031 306.902344 453.0625 L 298.589844 453.0625 C 298.671875 450.8125 299.058594 448.675781 299.746094 446.65625 C 300.476562 444.886719 301.621094 443.25 303.183594 441.75 C 304.351563 440.6875 305.734375 439.875 307.339844 439.3125 C 308.945313 438.75 310.914063 438.46875 313.246094 438.46875 C 317.578125 438.46875 321.074219 439.589844 323.730469 441.828125 C 326.386719 444.066406 327.714844 447.074219 327.714844 450.84375 C 327.714844 453.511719 326.921875 455.761719 325.339844 457.59375 C 324.339844 458.738281 323.296875 459.519531 322.214844 459.9375 C 323.027344 459.9375 324.195313 460.636719 325.714844 462.03125 C 327.984375 464.136719 329.121094 467.011719 329.121094 470.65625 C 329.121094 474.488281 327.792969 477.859375 325.136719 480.765625 C 322.480469 483.671875 318.546875 485.125 313.339844 485.125 C 306.921875 485.125 302.464844 483.03125 299.964844 478.84375 C 298.652344 476.613281 297.921875 473.699219 297.777344 470.09375 L 306.527344 470.09375 C 306.527344 471.90625 306.820313 473.40625 307.402344 474.59375 C 308.484375 476.78125 310.453125 477.875 313.308594 477.875 C 315.058594 477.875 316.585938 477.277344 317.886719 476.078125 C 319.1875 474.878906 319.839844 473.15625 319.839844 470.90625 C 319.839844 467.925781 318.632813 465.9375 316.214844 464.9375 C 314.839844 464.375 312.671875 464.09375 309.714844 464.09375 L 309.714844 457.71875 C 312.609375 457.675781 314.632813 457.394531 315.777344 456.875 C 317.757813 456 318.746094 454.230469 318.746094 451.5625 C 318.746094 449.832031 318.242188 448.425781 317.230469 447.34375 C 316.21875 446.261719 314.796875 445.71875 312.964844 445.71875 C 310.859375 445.71875 309.320313 446.386719 308.339844 447.71875 Z M 331.683594 484 " transform="matrix(-1,0.000000000000000367,-0.000000000000000367,-1,816,1200)"/>
<path style="fill-rule:nonzero;fill:rgb(1.960784%,10.196078%,20.392157%);fill-opacity:1;stroke-width:1;stroke-linecap:butt;stroke-linejoin:bevel;stroke:rgb(1.960784%,10.196078%,20.392157%);stroke-opacity:1;stroke-miterlimit:10;" d="M 319 496 C 330.597656 496 340 505.402344 340 517 C 340 528.597656 330.597656 538 319 538 L 288 538 L 288 496 Z M 319 496 " transform="matrix(-1,0.000000000000000367,-0.000000000000000367,-1,816,1200)"/>
<path style="fill-rule:nonzero;fill:rgb(0%,55.686275%,88.627451%);fill-opacity:1;stroke-width:1.3;stroke-linecap:butt;stroke-linejoin:bevel;stroke:rgb(100%,100%,100%);stroke-opacity:1;stroke-miterlimit:10;" d="M 314.78125 510.335937 C 314.25 509.699219 313.488281 509.382812 312.5 509.382812 C 311.144531 509.382812 310.222656 509.886719 309.734375 510.898437 C 309.453125 511.480469 309.285156 512.410156 309.234375 513.679687 L 304.90625 513.679687 C 304.980469 511.753906 305.328125 510.195312 305.953125 509.007812 C 307.140625 506.746094 309.25 505.617187 312.28125 505.617187 C 314.675781 505.617187 316.582031 506.28125 318 507.609375 C 319.417969 508.9375 320.125 510.695312 320.125 512.882812 C 320.125 514.558594 319.625 516.050781 318.625 517.351562 C 317.96875 518.214844 316.890625 519.179687 315.390625 520.242187 L 313.609375 521.507812 C 312.496094 522.300781 311.730469 522.871094 311.320312 523.226562 C 310.910156 523.582031 310.5625 523.992187 310.28125 524.460937 L 320.171875 524.460937 L 320.171875 528.382812 L 304.65625 528.382812 C 304.699219 526.757812 305.046875 525.273437 305.703125 523.929687 C 306.339844 522.417969 307.839844 520.820312 310.203125 519.132812 C 312.253906 517.664062 313.582031 516.613281 314.1875 515.976562 C 315.113281 514.988281 315.578125 513.902344 315.578125 512.726562 C 315.578125 511.769531 315.3125 510.972656 314.78125 510.335937 Z M 321.453125 528.382812 " transform="matrix(-1,0.000000000000000367,-0.000000000000000367,-1,816,1200)"/>
<path style=" stroke:none;fill-rule:nonzero;fill:rgb(0%,55.686275%,88.627451%);fill-opacity:1;" d="M 528 768 C 848 656 448 544 768 432 L 528 432 Z M 528 768 "/>
<path style="fill-rule:nonzero;fill:rgb(1.960784%,17.647059%,29.019608%);fill-opacity:1;stroke-width:1.6;stroke-linecap:butt;stroke-linejoin:bevel;stroke:rgb(100%,100%,100%);stroke-opacity:1;stroke-miterlimit:10;" d="M 558.519531 447.90625 C 557.457031 446.636719 555.9375 446 553.957031 446 C 551.25 446 549.40625 447.011719 548.425781 449.03125 C 547.863281 450.199219 547.53125 452.050781 547.425781 454.59375 L 538.769531 454.59375 C 538.914062 450.738281 539.613281 447.625 540.863281 445.25 C 543.238281 440.730469 547.457031 438.46875 553.519531 438.46875 C 558.3125 438.46875 562.125 439.796875 564.957031 442.453125 C 567.789062 445.109375 569.207031 448.625 569.207031 453 C 569.207031 456.355469 568.207031 459.332031 566.207031 461.9375 C 564.894531 463.667969 562.738281 465.59375 559.738281 467.71875 L 556.175781 470.25 C 553.945312 471.832031 552.421875 472.980469 551.597656 473.6875 C 550.773438 474.394531 550.082031 475.21875 549.519531 476.15625 L 569.300781 476.15625 L 569.300781 484 L 538.269531 484 C 538.351562 480.75 539.050781 477.78125 540.363281 475.09375 C 541.632812 472.074219 544.632812 468.875 549.363281 465.5 C 553.46875 462.5625 556.125 460.457031 557.332031 459.1875 C 559.1875 457.207031 560.113281 455.042969 560.113281 452.6875 C 560.113281 450.769531 559.582031 449.175781 558.519531 447.90625 Z M 571.863281 484 " transform="matrix(1,-0.00000000000000049,0.00000000000000049,1,-0.000000000000284217,0.000000000000113687)"/>
<path style="fill-rule:nonzero;fill:rgb(1.960784%,10.196078%,20.392157%);fill-opacity:1;stroke-width:1;stroke-linecap:butt;stroke-linejoin:bevel;stroke:rgb(1.960784%,10.196078%,20.392157%);stroke-opacity:1;stroke-miterlimit:10;" d="M 559 496 C 570.597656 496 580 505.402344 580 517 C 580 528.597656 570.597656 538 559 538 L 528 538 L 528 496 Z M 559 496 " transform="matrix(1,-0.00000000000000049,0.00000000000000049,1,-0.000000000000284217,0.000000000000113687)"/>
<path style="fill-rule:nonzero;fill:rgb(0%,67.45098%,69.803922%);fill-opacity:1;stroke-width:1.3;stroke-linecap:butt;stroke-linejoin:bevel;stroke:rgb(100%,100%,100%);stroke-opacity:1;stroke-miterlimit:10;" d="M 560.140625 519.898438 L 560.140625 523.382813 L 557.578125 523.382813 L 557.578125 528.257813 L 553.21875 528.257813 L 553.21875 523.382813 L 544.25 523.382813 L 544.25 519.492188 L 552.578125 505.742188 L 557.578125 505.742188 L 557.578125 519.898438 Z M 547.546875 519.898438 L 553.21875 519.898438 L 553.21875 510.117188 Z M 561.203125 528.257813 " transform="matrix(1,-0.00000000000000049,0.00000000000000049,1,-0.000000000000284217,0.000000000000113687)"/>
<path style=" stroke:none;fill-rule:nonzero;fill:rgb(0%,67.45098%,69.803922%);fill-opacity:1;" d="M 768 432 C 448 544 848 656 528 768 L 768 768 Z M 768 432 "/>
<path style="fill-rule:nonzero;fill:rgb(1.960784%,17.647059%,29.019608%);fill-opacity:1;stroke-width:1.6;stroke-linecap:butt;stroke-linejoin:bevel;stroke:rgb(100%,100%,100%);stroke-opacity:1;stroke-miterlimit:10;" d="M 569.308594 467.28125 L 569.308594 474.25 L 564.183594 474.25 L 564.183594 484 L 555.464844 484 L 555.464844 474.25 L 537.527344 474.25 L 537.527344 466.46875 L 554.183594 438.96875 L 564.183594 438.96875 L 564.183594 467.28125 Z M 544.121094 467.28125 L 555.464844 467.28125 L 555.464844 447.71875 Z M 571.433594 484 " transform="matrix(-1,0.000000000000000612,-0.000000000000000612,-1,1296,1200)"/>
<path style="fill-rule:nonzero;fill:rgb(1.960784%,10.196078%,20.392157%);fill-opacity:1;stroke-width:1;stroke-linecap:butt;stroke-linejoin:bevel;stroke:rgb(1.960784%,10.196078%,20.392157%);stroke-opacity:1;stroke-miterlimit:10;" d="M 559 496 C 570.597656 496 580 505.402344 580 517 C 580 528.597656 570.597656 538 559 538 L 528 538 L 528 496 Z M 559 496 " transform="matrix(-1,0.000000000000000612,-0.000000000000000612,-1,1296,1200)"/>
<path style="fill-rule:nonzero;fill:rgb(0%,55.686275%,88.627451%);fill-opacity:1;stroke-width:1.3;stroke-linecap:butt;stroke-linejoin:bevel;stroke:rgb(100%,100%,100%);stroke-opacity:1;stroke-miterlimit:10;" d="M 554.78125 510.335937 C 554.25 509.699219 553.488281 509.382812 552.5 509.382812 C 551.144531 509.382812 550.222656 509.886719 549.734375 510.898437 C 549.453125 511.480469 549.285156 512.410156 549.234375 513.679687 L 544.90625 513.679687 C 544.980469 511.753906 545.328125 510.195312 545.953125 509.007812 C 547.140625 506.746094 549.25 505.617187 552.28125 505.617187 C 554.675781 505.617187 556.582031 506.28125 558 507.609375 C 559.417969 508.9375 560.125 510.695312 560.125 512.882812 C 560.125 514.558594 559.625 516.050781 558.625 517.351562 C 557.96875 518.214844 556.890625 519.179687 555.390625 520.242187 L 553.609375 521.507812 C 552.496094 522.300781 551.730469 522.871094 551.320312 523.226562 C 550.910156 523.582031 550.5625 523.992187 550.28125 524.460937 L 560.171875 524.460937 L 560.171875 528.382812 L 544.65625 528.382812 C 544.699219 526.757812 545.046875 525.273437 545.703125 523.929687 C 546.339844 522.417969 547.839844 520.820312 550.203125 519.132812 C 552.253906 517.664062 553.582031 516.613281 554.1875 515.976562 C 555.113281 514.988281 555.578125 513.902344 555.578125 512.726562 C 555.578125 511.769531 555.3125 510.972656 554.78125 510.335937 Z M 561.453125 528.382812 " transform="matrix(-1,0.000000000000000612,-0.000000000000000612,-1,1296,1200)"/>
<path style=" stroke:none;fill-rule:nonzero;fill:rgb(0%,55.686275%,88.627451%);fill-opacity:1;" d="M 768 768 C 1088 656 688 544 1008 432 L 768 432 Z M 768 768 "/>
<path style="fill-rule:nonzero;fill:rgb(1.960784%,17.647059%,29.019608%);fill-opacity:1;stroke-width:1.6;stroke-linecap:butt;stroke-linejoin:bevel;stroke:rgb(100%,100%,100%);stroke-opacity:1;stroke-miterlimit:10;" d="M 798.519531 447.90625 C 797.457031 446.636719 795.9375 446 793.957031 446 C 791.25 446 789.40625 447.011719 788.425781 449.03125 C 787.863281 450.199219 787.53125 452.050781 787.425781 454.59375 L 778.769531 454.59375 C 778.914063 450.738281 779.613281 447.625 780.863281 445.25 C 783.238281 440.730469 787.457031 438.46875 793.519531 438.46875 C 798.3125 438.46875 802.125 439.796875 804.957031 442.453125 C 807.789063 445.109375 809.207031 448.625 809.207031 453 C 809.207031 456.355469 808.207031 459.332031 806.207031 461.9375 C 804.894531 463.667969 802.738281 465.59375 799.738281 467.71875 L 796.175781 470.25 C 793.945313 471.832031 792.421875 472.980469 791.597656 473.6875 C 790.773438 474.394531 790.082031 475.21875 789.519531 476.15625 L 809.300781 476.15625 L 809.300781 484 L 778.269531 484 C 778.351563 480.75 779.050781 477.78125 780.363281 475.09375 C 781.632813 472.074219 784.632813 468.875 789.363281 465.5 C 793.46875 462.5625 796.125 460.457031 797.332031 459.1875 C 799.1875 457.207031 800.113281 455.042969 800.113281 452.6875 C 800.113281 450.769531 799.582031 449.175781 798.519531 447.90625 Z M 811.863281 484 " transform="matrix(1,-0.000000000000000735,0.000000000000000735,1,-0.000000000000341061,0.000000000000341061)"/>
<path style="fill-rule:nonzero;fill:rgb(1.960784%,10.196078%,20.392157%);fill-opacity:1;stroke-width:1;stroke-linecap:butt;stroke-linejoin:bevel;stroke:rgb(1.960784%,10.196078%,20.392157%);stroke-opacity:1;stroke-miterlimit:10;" d="M 799 496 C 810.597656 496 820 505.402344 820 517 C 820 528.597656 810.597656 538 799 538 L 768 538 L 768 496 Z M 799 496 " transform="matrix(1,-0.000000000000000735,0.000000000000000735,1,-0.000000000000341061,0.000000000000341061)"/>
<path style="fill-rule:nonzero;fill:rgb(26.27451%,87.058824%,38.431373%);fill-opacity:1;stroke-width:1.3;stroke-linecap:butt;stroke-linejoin:bevel;stroke:rgb(100%,100%,100%);stroke-opacity:1;stroke-miterlimit:10;" d="M 792.082031 517.226563 C 791.539063 517.226563 791.070313 517.292969 790.675781 517.429688 C 789.976563 517.679688 789.453125 518.144531 789.097656 518.820313 L 785.097656 518.632813 L 786.691406 506.117188 L 799.175781 506.117188 L 799.175781 509.898438 L 789.910156 509.898438 L 789.097656 514.851563 C 789.785156 514.402344 790.320313 514.105469 790.707031 513.960938 C 791.351563 513.722656 792.140625 513.601563 793.066406 513.601563 C 794.941406 513.601563 796.578125 514.230469 797.972656 515.492188 C 799.367188 516.753906 800.066406 518.585938 800.066406 520.992188 C 800.066406 523.085938 799.394531 524.957031 798.050781 526.601563 C 796.707031 528.246094 794.695313 529.070313 792.019531 529.070313 C 789.863281 529.070313 788.09375 528.492188 786.707031 527.335938 C 785.320313 526.179688 784.550781 524.539063 784.394531 522.414063 L 788.832031 522.414063 C 789.007813 523.382813 789.347656 524.128906 789.847656 524.65625 C 790.347656 525.183594 791.078125 525.445313 792.035156 525.445313 C 793.140625 525.445313 793.980469 525.058594 794.558594 524.28125 C 795.136719 523.503906 795.425781 522.527344 795.425781 521.351563 C 795.425781 520.195313 795.15625 519.21875 794.613281 518.421875 C 794.070313 517.625 793.226563 517.226563 792.082031 517.226563 Z M 801.347656 528.476563 " transform="matrix(1,-0.000000000000000735,0.000000000000000735,1,-0.000000000000341061,0.000000000000341061)"/>
<path style=" stroke:none;fill-rule:nonzero;fill:rgb(26.27451%,87.058824%,38.431373%);fill-opacity:1;" d="M 1008 432 C 688 544 1088 656 768 768 L 1008 768 Z M 1008 432 "/>
<path style="fill-rule:nonzero;fill:rgb(1.960784%,17.647059%,29.019608%);fill-opacity:1;stroke-width:1.6;stroke-linecap:butt;stroke-linejoin:bevel;stroke:rgb(100%,100%,100%);stroke-opacity:1;stroke-miterlimit:10;" d="M 793.152344 461.5 C 792.070312 461.5 791.132812 461.636719 790.339844 461.90625 C 788.945312 462.40625 787.890625 463.332031 787.183594 464.6875 L 779.183594 464.3125 L 782.371094 439.28125 L 807.339844 439.28125 L 807.339844 446.84375 L 788.808594 446.84375 L 787.183594 456.75 C 788.558594 455.855469 789.632812 455.261719 790.402344 454.96875 C 791.695312 454.488281 793.265625 454.25 795.121094 454.25 C 798.871094 454.25 802.140625 455.511719 804.933594 458.03125 C 807.726562 460.550781 809.121094 464.21875 809.121094 469.03125 C 809.121094 473.21875 807.777344 476.957031 805.089844 480.25 C 802.402344 483.542969 798.382812 485.1875 793.027344 485.1875 C 788.714844 485.1875 785.171875 484.03125 782.402344 481.71875 C 779.632812 479.40625 778.089844 476.125 777.777344 471.875 L 786.652344 471.875 C 787.007812 473.8125 787.683594 475.308594 788.683594 476.359375 C 789.683594 477.410156 791.140625 477.9375 793.058594 477.9375 C 795.265625 477.9375 796.949219 477.160156 798.105469 475.609375 C 799.261719 474.058594 799.839844 472.105469 799.839844 469.75 C 799.839844 467.4375 799.296875 465.484375 798.214844 463.890625 C 797.132812 462.296875 795.445312 461.5 793.152344 461.5 Z M 811.683594 484 " transform="matrix(-1,0.000000000000000857,-0.000000000000000857,-1,1776,1200)"/>
<path style="fill-rule:nonzero;fill:rgb(1.960784%,10.196078%,20.392157%);fill-opacity:1;stroke-width:1;stroke-linecap:butt;stroke-linejoin:bevel;stroke:rgb(1.960784%,10.196078%,20.392157%);stroke-opacity:1;stroke-miterlimit:10;" d="M 799 496 C 810.597656 496 820 505.402344 820 517 C 820 528.597656 810.597656 538 799 538 L 768 538 L 768 496 Z M 799 496 " transform="matrix(-1,0.000000000000000857,-0.000000000000000857,-1,1776,1200)"/>
<path style="fill-rule:nonzero;fill:rgb(0%,55.686275%,88.627451%);fill-opacity:1;stroke-width:1.3;stroke-linecap:butt;stroke-linejoin:bevel;stroke:rgb(100%,100%,100%);stroke-opacity:1;stroke-miterlimit:10;" d="M 794.78125 510.335937 C 794.25 509.699219 793.488281 509.382812 792.5 509.382812 C 791.144531 509.382812 790.222656 509.886719 789.734375 510.898437 C 789.453125 511.480469 789.285156 512.410156 789.234375 513.679687 L 784.90625 513.679687 C 784.980469 511.753906 785.328125 510.195312 785.953125 509.007812 C 787.140625 506.746094 789.25 505.617187 792.28125 505.617187 C 794.675781 505.617187 796.582031 506.28125 798 507.609375 C 799.417969 508.9375 800.125 510.695312 800.125 512.882812 C 800.125 514.558594 799.625 516.050781 798.625 517.351562 C 797.96875 518.214844 796.890625 519.179687 795.390625 520.242187 L 793.609375 521.507812 C 792.496094 522.300781 791.730469 522.871094 791.320312 523.226562 C 790.910156 523.582031 790.5625 523.992187 790.28125 524.460937 L 800.171875 524.460937 L 800.171875 528.382812 L 784.65625 528.382812 C 784.699219 526.757812 785.046875 525.273437 785.703125 523.929687 C 786.339844 522.417969 787.839844 520.820312 790.203125 519.132812 C 792.253906 517.664062 793.582031 516.613281 794.1875 515.976562 C 795.113281 514.988281 795.578125 513.902344 795.578125 512.726562 C 795.578125 511.769531 795.3125 510.972656 794.78125 510.335937 Z M 801.453125 528.382812 " transform="matrix(-1,0.000000000000000857,-0.000000000000000857,-1,1776,1200)"/>
<path style=" stroke:none;fill-rule:nonzero;fill:rgb(0%,55.686275%,88.627451%);fill-opacity:1;" d="M 48 432 C 368 320 -32 208 288 96 L 48 96 Z M 48 432 "/>
<path style="fill-rule:nonzero;fill:rgb(1.960784%,17.647059%,29.019608%);fill-opacity:1;stroke-width:1.6;stroke-linecap:butt;stroke-linejoin:bevel;stroke:rgb(100%,100%,100%);stroke-opacity:1;stroke-miterlimit:10;" d="M 78.519531 111.90625 C 77.457031 110.636719 75.9375 110 73.957031 110 C 71.25 110 69.40625 111.011719 68.425781 113.03125 C 67.863281 114.199219 67.53125 116.050781 67.425781 118.59375 L 58.769531 118.59375 C 58.914063 114.738281 59.613281 111.625 60.863281 109.25 C 63.238281 104.730469 67.457031 102.46875 73.519531 102.46875 C 78.3125 102.46875 82.125 103.796875 84.957031 106.453125 C 87.789063 109.109375 89.207031 112.625 89.207031 117 C 89.207031 120.355469 88.207031 123.332031 86.207031 125.9375 C 84.894531 127.667969 82.738281 129.59375 79.738281 131.71875 L 76.175781 134.25 C 73.945313 135.832031 72.421875 136.980469 71.597656 137.6875 C 70.773438 138.394531 70.082031 139.21875 69.519531 140.15625 L 89.300781 140.15625 L 89.300781 148 L 58.269531 148 C 58.351563 144.75 59.050781 141.78125 60.363281 139.09375 C 61.632813 136.074219 64.632813 132.875 69.363281 129.5 C 73.46875 126.5625 76.125 124.457031 77.332031 123.1875 C 79.1875 121.207031 80.113281 119.042969 80.113281 116.6875 C 80.113281 114.769531 79.582031 113.175781 78.519531 111.90625 Z M 91.863281 148 " transform="matrix(1,-0.00000000000000098,0.00000000000000098,1,-0.000000000000454747,0.000000000000568434)"/>
<path style="fill-rule:nonzero;fill:rgb(1.960784%,10.196078%,20.392157%);fill-opacity:1;stroke-width:1;stroke-linecap:butt;stroke-linejoin:bevel;stroke:rgb(1.960784%,10.196078%,20.392157%);stroke-opacity:1;stroke-miterlimit:10;" d="M 79 160 C 90.597656 160 100 169.402344 100 181 C 100 192.597656 90.597656 202 79 202 L 48 202 L 48 160 Z M 79 160 " transform="matrix(1,-0.00000000000000098,0.00000000000000098,1,-0.000000000000454747,0.000000000000568434)"/>
<path style="fill-rule:nonzero;fill:rgb(82.352941%,98.823529%,29.411765%);fill-opacity:1;stroke-width:1.3;stroke-linecap:butt;stroke-linejoin:bevel;stroke:rgb(100%,100%,100%);stroke-opacity:1;stroke-miterlimit:10;" d="M 73.34375 178.03125 C 75.355469 178.03125 77.003906 178.714844 78.289063 180.078125 C 79.574219 181.441406 80.21875 183.1875 80.21875 185.3125 C 80.21875 187.425781 79.589844 189.292969 78.328125 190.90625 C 77.066406 192.519531 75.109375 193.328125 72.453125 193.328125 C 69.597656 193.328125 67.496094 192.136719 66.140625 189.75 C 65.089844 187.886719 64.5625 185.480469 64.5625 182.53125 C 64.5625 180.800781 64.636719 179.394531 64.78125 178.3125 C 65.042969 176.386719 65.546875 174.78125 66.296875 173.5 C 66.941406 172.40625 67.789063 171.527344 68.835938 170.859375 C 69.882813 170.191406 71.136719 169.859375 72.59375 169.859375 C 74.699219 169.859375 76.375 170.398437 77.625 171.476562 C 78.875 172.554687 79.578125 173.988281 79.734375 175.78125 L 75.296875 175.78125 C 75.296875 175.417969 75.15625 175.015625 74.875 174.578125 C 74.394531 173.871094 73.671875 173.515625 72.703125 173.515625 C 71.253906 173.515625 70.222656 174.328125 69.609375 175.953125 C 69.277344 176.847656 69.046875 178.171875 68.921875 179.921875 C 69.472656 179.265625 70.113281 178.785156 70.84375 178.484375 C 71.574219 178.183594 72.40625 178.03125 73.34375 178.03125 Z M 70.34375 182.28125 C 69.46875 182.957031 69.03125 184.050781 69.03125 185.5625 C 69.03125 186.78125 69.359375 187.777344 70.015625 188.546875 C 70.671875 189.316406 71.503906 189.703125 72.515625 189.703125 C 73.503906 189.703125 74.285156 189.332031 74.851563 188.585937 C 75.417969 187.839844 75.703125 186.875 75.703125 185.6875 C 75.703125 184.363281 75.378906 183.351562 74.734375 182.648437 C 74.089844 181.945312 73.296875 181.59375 72.359375 181.59375 C 71.597656 181.59375 70.925781 181.824219 70.34375 182.28125 Z M 81.359375 192.734375 " transform="matrix(1,-0.00000000000000098,0.00000000000000098,1,-0.000000000000454747,0.000000000000568434)"/>
<path style=" stroke:none;fill-rule:nonzero;fill:rgb(82.352941%,98.823529%,29.411765%);fill-opacity:1;" d="M 288 96 C -32 208 368 320 48 432 L 288 432 Z M 288 96 "/>
<path style="fill-rule:nonzero;fill:rgb(1.960784%,17.647059%,29.019608%);fill-opacity:1;stroke-width:1.6;stroke-linecap:butt;stroke-linejoin:bevel;stroke:rgb(100%,100%,100%);stroke-opacity:1;stroke-miterlimit:10;" d="M 75.667969 118.59375 C 79.6875 118.59375 82.984375 119.957031 85.558594 122.6875 C 88.132812 125.417969 89.417969 128.90625 89.417969 133.15625 C 89.417969 137.386719 88.15625 141.113281 85.636719 144.34375 C 83.117187 147.574219 79.199219 149.1875 73.886719 149.1875 C 68.179687 149.1875 63.96875 146.800781 61.261719 142.03125 C 59.15625 138.300781 58.105469 133.488281 58.105469 127.59375 C 58.105469 124.136719 58.25 121.324219 58.542969 119.15625 C 59.0625 115.300781 60.074219 112.09375 61.574219 109.53125 C 62.867187 107.34375 64.558594 105.582031 66.652344 104.25 C 68.746094 102.917969 71.25 102.25 74.167969 102.25 C 78.375 102.25 81.730469 103.328125 84.230469 105.484375 C 86.730469 107.640625 88.136719 110.511719 88.449219 114.09375 L 79.574219 114.09375 C 79.574219 113.363281 79.292969 112.5625 78.730469 111.6875 C 77.773437 110.269531 76.324219 109.5625 74.386719 109.5625 C 71.492187 109.5625 69.429687 111.1875 68.199219 114.4375 C 67.53125 116.230469 67.074219 118.875 66.824219 122.375 C 67.929687 121.0625 69.210937 120.105469 70.667969 119.5 C 72.125 118.894531 73.792969 118.59375 75.667969 118.59375 Z M 69.667969 127.09375 C 67.917969 128.449219 67.042969 130.636719 67.042969 133.65625 C 67.042969 136.09375 67.699219 138.082031 69.011719 139.625 C 70.324219 141.167969 71.992187 141.9375 74.011719 141.9375 C 75.992187 141.9375 77.546875 141.191406 78.683594 139.703125 C 79.820312 138.214844 80.386719 136.28125 80.386719 133.90625 C 80.386719 131.261719 79.742187 129.234375 78.449219 127.828125 C 77.15625 126.421875 75.574219 125.71875 73.699219 125.71875 C 72.179687 125.71875 70.835937 126.175781 69.667969 127.09375 Z M 91.699219 148 " transform="matrix(-1,0.000000000000001102,-0.000000000000001102,-1,336,528)"/>
<path style="fill-rule:nonzero;fill:rgb(1.960784%,10.196078%,20.392157%);fill-opacity:1;stroke-width:1;stroke-linecap:butt;stroke-linejoin:bevel;stroke:rgb(1.960784%,10.196078%,20.392157%);stroke-opacity:1;stroke-miterlimit:10;" d="M 79 160 C 90.597656 160 100 169.402344 100 181 C 100 192.597656 90.597656 202 79 202 L 48 202 L 48 160 Z M 79 160 " transform="matrix(-1,0.000000000000001102,-0.000000000000001102,-1,336,528)"/>
<path style="fill-rule:nonzero;fill:rgb(0%,55.686275%,88.627451%);fill-opacity:1;stroke-width:1.3;stroke-linecap:butt;stroke-linejoin:bevel;stroke:rgb(100%,100%,100%);stroke-opacity:1;stroke-miterlimit:10;" d="M 74.78125 174.335938 C 74.25 173.699219 73.488281 173.382813 72.5 173.382813 C 71.144531 173.382813 70.222656 173.886719 69.734375 174.898438 C 69.453125 175.480469 69.285156 176.410156 69.234375 177.679688 L 64.90625 177.679688 C 64.980469 175.753906 65.328125 174.195313 65.953125 173.007813 C 67.140625 170.746094 69.25 169.617188 72.28125 169.617188 C 74.675781 169.617188 76.582031 170.28125 78 171.609375 C 79.417969 172.9375 80.125 174.695313 80.125 176.882813 C 80.125 178.558594 79.625 180.050781 78.625 181.351563 C 77.96875 182.214844 76.890625 183.179688 75.390625 184.242188 L 73.609375 185.507813 C 72.496094 186.300781 71.730469 186.871094 71.320312 187.226563 C 70.910156 187.582031 70.5625 187.992188 70.28125 188.460938 L 80.171875 188.460938 L 80.171875 192.382813 L 64.65625 192.382813 C 64.699219 190.757813 65.046875 189.273438 65.703125 187.929688 C 66.339844 186.417969 67.839844 184.820313 70.203125 183.132813 C 72.253906 181.664063 73.582031 180.613281 74.1875 179.976563 C 75.113281 178.988281 75.578125 177.902344 75.578125 176.726563 C 75.578125 175.769531 75.3125 174.972656 74.78125 174.335938 Z M 81.453125 192.382813 " transform="matrix(-1,0.000000000000001102,-0.000000000000001102,-1,336,528)"/>
<path style=" stroke:none;fill-rule:nonzero;fill:rgb(0%,55.686275%,88.627451%);fill-opacity:1;" d="M 288 432 C 608 320 208 208 528 96 L 288 96 Z M 288 432 "/>
<path style="fill-rule:nonzero;fill:rgb(1.960784%,17.647059%,29.019608%);fill-opacity:1;stroke-width:1.6;stroke-linecap:butt;stroke-linejoin:bevel;stroke:rgb(100%,100%,100%);stroke-opacity:1;stroke-miterlimit:10;" d="M 318.519531 111.90625 C 317.457031 110.636719 315.9375 110 313.957031 110 C 311.25 110 309.40625 111.011719 308.425781 113.03125 C 307.863281 114.199219 307.53125 116.050781 307.425781 118.59375 L 298.769531 118.59375 C 298.914063 114.738281 299.613281 111.625 300.863281 109.25 C 303.238281 104.730469 307.457031 102.46875 313.519531 102.46875 C 318.3125 102.46875 322.125 103.796875 324.957031 106.453125 C 327.789063 109.109375 329.207031 112.625 329.207031 117 C 329.207031 120.355469 328.207031 123.332031 326.207031 125.9375 C 324.894531 127.667969 322.738281 129.59375 319.738281 131.71875 L 316.175781 134.25 C 313.945313 135.832031 312.421875 136.980469 311.597656 137.6875 C 310.773438 138.394531 310.082031 139.21875 309.519531 140.15625 L 329.300781 140.15625 L 329.300781 148 L 298.269531 148 C 298.351563 144.75 299.050781 141.78125 300.363281 139.09375 C 301.632813 136.074219 304.632813 132.875 309.363281 129.5 C 313.46875 126.5625 316.125 124.457031 317.332031 123.1875 C 319.1875 121.207031 320.113281 119.042969 320.113281 116.6875 C 320.113281 114.769531 319.582031 113.175781 318.519531 111.90625 Z M 331.863281 148 " transform="matrix(1,-0.000000000000001225,0.000000000000001225,1,-0.000000000000483169,0.000000000000625278)"/>
<path style="fill-rule:nonzero;fill:rgb(1.960784%,10.196078%,20.392157%);fill-opacity:1;stroke-width:1;stroke-linecap:butt;stroke-linejoin:bevel;stroke:rgb(1.960784%,10.196078%,20.392157%);stroke-opacity:1;stroke-miterlimit:10;" d="M 319 160 C 330.597656 160 340 169.402344 340 181 C 340 192.597656 330.597656 202 319 202 L 288 202 L 288 160 Z M 319 160 " transform="matrix(1,-0.000000000000001225,0.000000000000001225,1,-0.000000000000483169,0.000000000000625278)"/>
<path style="fill-rule:nonzero;fill:rgb(99.607843%,92.54902%,1.568627%);fill-opacity:1;stroke-width:1.3;stroke-linecap:butt;stroke-linejoin:bevel;stroke:rgb(100%,100%,100%);stroke-opacity:1;stroke-miterlimit:10;" d="M 317.386719 176.804688 C 316.199219 178.492188 315.203125 180.230469 314.402344 182.023438 C 313.765625 183.429688 313.195313 185.148438 312.683594 187.179688 C 312.171875 189.210938 311.917969 190.878906 311.917969 192.179688 L 307.292969 192.179688 C 307.429688 188.117188 308.761719 183.894531 311.292969 179.507813 C 312.929688 176.789063 314.296875 174.894531 315.402344 173.820313 L 304.105469 173.820313 L 304.167969 169.820313 L 320.167969 169.820313 L 320.167969 173.304688 C 319.5 173.960938 318.574219 175.128906 317.386719 176.804688 Z M 321.089844 192.179688 " transform="matrix(1,-0.000000000000001225,0.000000000000001225,1,-0.000000000000483169,0.000000000000625278)"/>
<path style=" stroke:none;fill-rule:nonzero;fill:rgb(99.607843%,92.54902%,1.568627%);fill-opacity:1;" d="M 528 96 C 208 208 608 320 288 432 L 528 432 Z M 528 96 "/>
<path style="fill-rule:nonzero;fill:rgb(1.960784%,17.647059%,29.019608%);fill-opacity:1;stroke-width:1.6;stroke-linecap:butt;stroke-linejoin:bevel;stroke:rgb(100%,100%,100%);stroke-opacity:1;stroke-miterlimit:10;" d="M 323.832031 117.25 C 321.457031 120.625 319.46875 124.105469 317.863281 127.6875 C 316.59375 130.5 315.445312 133.9375 314.425781 138 C 313.40625 142.0625 312.894531 145.394531 312.894531 148 L 303.644531 148 C 303.914062 139.875 306.582031 131.425781 311.644531 122.65625 C 314.914062 117.21875 317.65625 113.425781 319.863281 111.28125 L 297.269531 111.28125 L 297.394531 103.28125 L 329.394531 103.28125 L 329.394531 110.25 C 328.0625 111.5625 326.207031 113.894531 323.832031 117.25 Z M 331.238281 148 " transform="matrix(-1,0.000000000000001347,-0.000000000000001347,-1,816,528)"/>
<path style="fill-rule:nonzero;fill:rgb(1.960784%,10.196078%,20.392157%);fill-opacity:1;stroke-width:1;stroke-linecap:butt;stroke-linejoin:bevel;stroke:rgb(1.960784%,10.196078%,20.392157%);stroke-opacity:1;stroke-miterlimit:10;" d="M 319 160 C 330.597656 160 340 169.402344 340 181 C 340 192.597656 330.597656 202 319 202 L 288 202 L 288 160 Z M 319 160 " transform="matrix(-1,0.000000000000001347,-0.000000000000001347,-1,816,528)"/>
<path style="fill-rule:nonzero;fill:rgb(0%,55.686275%,88.627451%);fill-opacity:1;stroke-width:1.3;stroke-linecap:butt;stroke-linejoin:bevel;stroke:rgb(100%,100%,100%);stroke-opacity:1;stroke-miterlimit:10;" d="M 314.78125 174.335937 C 314.25 173.699219 313.488281 173.382812 312.5 173.382812 C 311.144531 173.382812 310.222656 173.886719 309.734375 174.898437 C 309.453125 175.480469 309.285156 176.410156 309.234375 177.679687 L 304.90625 177.679687 C 304.980469 175.753906 305.328125 174.195312 305.953125 173.007812 C 307.140625 170.746094 309.25 169.617187 312.28125 169.617187 C 314.675781 169.617187 316.582031 170.28125 318 171.609375 C 319.417969 172.9375 320.125 174.695312 320.125 176.882812 C 320.125 178.558594 319.625 180.050781 318.625 181.351562 C 317.96875 182.214844 316.890625 183.179687 315.390625 184.242187 L 313.609375 185.507812 C 312.496094 186.300781 311.730469 186.871094 311.320312 187.226562 C 310.910156 187.582031 310.5625 187.992187 310.28125 188.460937 L 320.171875 188.460937 L 320.171875 192.382812 L 304.65625 192.382812 C 304.699219 190.757812 305.046875 189.273437 305.703125 187.929687 C 306.339844 186.417969 307.839844 184.820312 310.203125 183.132812 C 312.253906 181.664062 313.582031 180.613281 314.1875 179.976562 C 315.113281 178.988281 315.578125 177.902344 315.578125 176.726562 C 315.578125 175.769531 315.3125 174.972656 314.78125 174.335937 Z M 321.453125 192.382812 " transform="matrix(-1,0.000000000000001347,-0.000000000000001347,-1,816,528)"/>
<path style=" stroke:none;fill-rule:nonzero;fill:rgb(0%,55.686275%,88.627451%);fill-opacity:1;" d="M 528 432 C 848 320 448 208 768 96 L 528 96 Z M 528 432 "/>
<path style="fill-rule:nonzero;fill:rgb(1.960784%,17.647059%,29.019608%);fill-opacity:1;stroke-width:1.6;stroke-linecap:butt;stroke-linejoin:bevel;stroke:rgb(100%,100%,100%);stroke-opacity:1;stroke-miterlimit:10;" d="M 558.519531 111.90625 C 557.457031 110.636719 555.9375 110 553.957031 110 C 551.25 110 549.40625 111.011719 548.425781 113.03125 C 547.863281 114.199219 547.53125 116.050781 547.425781 118.59375 L 538.769531 118.59375 C 538.914063 114.738281 539.613281 111.625 540.863281 109.25 C 543.238281 104.730469 547.457031 102.46875 553.519531 102.46875 C 558.3125 102.46875 562.125 103.796875 564.957031 106.453125 C 567.789063 109.109375 569.207031 112.625 569.207031 117 C 569.207031 120.355469 568.207031 123.332031 566.207031 125.9375 C 564.894531 127.667969 562.738281 129.59375 559.738281 131.71875 L 556.175781 134.25 C 553.945313 135.832031 552.421875 136.980469 551.597656 137.6875 C 550.773438 138.394531 550.082031 139.21875 549.519531 140.15625 L 569.300781 140.15625 L 569.300781 148 L 538.269531 148 C 538.351563 144.75 539.050781 141.78125 540.363281 139.09375 C 541.632813 136.074219 544.632813 132.875 549.363281 129.5 C 553.46875 126.5625 556.125 124.457031 557.332031 123.1875 C 559.1875 121.207031 560.113281 119.042969 560.113281 116.6875 C 560.113281 114.769531 559.582031 113.175781 558.519531 111.90625 Z M 571.863281 148 " transform="matrix(1,-0.00000000000000147,0.00000000000000147,1,-0.000000000000511591,0.000000000000738964)"/>
<path style="fill-rule:nonzero;fill:rgb(1.960784%,10.196078%,20.392157%);fill-opacity:1;stroke-width:1;stroke-linecap:butt;stroke-linejoin:bevel;stroke:rgb(1.960784%,10.196078%,20.392157%);stroke-opacity:1;stroke-miterlimit:10;" d="M 559 160 C 570.597656 160 580 169.402344 580 181 C 580 192.597656 570.597656 202 559 202 L 528 202 L 528 160 Z M 559 160 " transform="matrix(1,-0.00000000000000147,0.00000000000000147,1,-0.000000000000511591,0.000000000000738964)"/>
<path style="fill-rule:nonzero;fill:rgb(100%,85.490196%,28.627451%);fill-opacity:1;stroke-width:1.3;stroke-linecap:butt;stroke-linejoin:bevel;stroke:rgb(100%,100%,100%);stroke-opacity:1;stroke-miterlimit:10;" d="M 546.308594 191.257813 C 545.007813 189.925781 544.355469 188.304688 544.355469 186.398438 C 544.355469 185.128906 544.644531 183.976563 545.222656 182.945313 C 545.800781 181.914063 546.648438 181.136719 547.761719 180.617188 C 546.667969 179.886719 545.957031 179.097656 545.628906 178.25 C 545.300781 177.402344 545.136719 176.605469 545.136719 175.867188 C 545.136719 174.222656 545.757813 172.816406 546.996094 171.65625 C 548.234375 170.496094 549.984375 169.914063 552.246094 169.914063 C 554.507813 169.914063 556.257813 170.496094 557.496094 171.65625 C 558.734375 172.816406 559.355469 174.222656 559.355469 175.867188 C 559.355469 176.605469 559.191406 177.402344 558.863281 178.25 C 558.535156 179.097656 557.824219 179.835938 556.730469 180.460938 C 557.84375 181.085938 558.683594 181.914063 559.246094 182.945313 C 559.808594 183.976563 560.089844 185.128906 560.089844 186.398438 C 560.089844 188.304688 559.382813 189.925781 557.972656 191.265625 C 556.5625 192.605469 554.589844 193.273438 552.058594 193.273438 C 549.527344 193.273438 547.609375 192.601563 546.308594 191.257813 Z M 548.980469 186.101563 C 548.980469 187.214844 549.269531 188.082031 549.847656 188.695313 C 550.425781 189.308594 551.226563 189.617188 552.246094 189.617188 C 553.265625 189.617188 554.066406 189.308594 554.644531 188.695313 C 555.222656 188.082031 555.511719 187.214844 555.511719 186.101563 C 555.511719 184.945313 555.21875 184.066406 554.628906 183.46875 C 554.039063 182.871094 553.246094 182.570313 552.246094 182.570313 C 551.246094 182.570313 550.453125 182.871094 549.863281 183.46875 C 549.273438 184.066406 548.980469 184.945313 548.980469 186.101563 Z M 550.152344 178.382813 C 550.652344 178.902344 551.351563 179.164063 552.246094 179.164063 C 553.152344 179.164063 553.851563 178.902344 554.347656 178.382813 C 554.84375 177.863281 555.089844 177.191406 555.089844 176.367188 C 555.089844 175.472656 554.84375 174.769531 554.347656 174.265625 C 553.851563 173.761719 553.152344 173.507813 552.246094 173.507813 C 551.351563 173.507813 550.648438 173.761719 550.144531 174.265625 C 549.640625 174.769531 549.386719 175.472656 549.386719 176.367188 C 549.386719 177.191406 549.640625 177.863281 550.152344 178.382813 Z M 561.308594 192.679688 " transform="matrix(1,-0.00000000000000147,0.00000000000000147,1,-0.000000000000511591,0.000000000000738964)"/>
<path style=" stroke:none;fill-rule:nonzero;fill:rgb(100%,85.490196%,28.627451%);fill-opacity:1;" d="M 768 96 C 448 208 848 320 528 432 L 768 432 Z M 768 96 "/>
<path style="fill-rule:nonzero;fill:rgb(1.960784%,17.647059%,29.019608%);fill-opacity:1;stroke-width:1.6;stroke-linecap:butt;stroke-linejoin:bevel;stroke:rgb(100%,100%,100%);stroke-opacity:1;stroke-miterlimit:10;" d="M 541.613281 145.15625 C 539.007812 142.488281 537.707031 139.25 537.707031 135.4375 C 537.707031 132.894531 538.285156 130.59375 539.441406 128.53125 C 540.597656 126.46875 542.289062 124.917969 544.519531 123.875 C 542.332031 122.417969 540.910156 120.839844 540.253906 119.140625 C 539.597656 117.441406 539.269531 115.855469 539.269531 114.375 C 539.269531 111.082031 540.507812 108.277344 542.988281 105.953125 C 545.46875 103.628906 548.96875 102.46875 553.488281 102.46875 C 558.007812 102.46875 561.507812 103.628906 563.988281 105.953125 C 566.46875 108.277344 567.707031 111.082031 567.707031 114.375 C 567.707031 115.855469 567.378906 117.441406 566.722656 119.140625 C 566.066406 120.839844 564.644531 122.3125 562.457031 123.5625 C 564.6875 124.8125 566.363281 126.46875 567.488281 128.53125 C 568.613281 130.59375 569.175781 132.894531 569.175781 135.4375 C 569.175781 139.25 567.765625 142.496094 564.941406 145.171875 C 562.117187 147.847656 558.175781 149.1875 553.113281 149.1875 C 548.050781 149.1875 544.21875 147.84375 541.613281 145.15625 Z M 546.957031 134.84375 C 546.957031 137.074219 547.535156 138.800781 548.691406 140.03125 C 549.847656 141.261719 551.445312 141.875 553.488281 141.875 C 555.53125 141.875 557.128906 141.261719 558.285156 140.03125 C 559.441406 138.800781 560.019531 137.074219 560.019531 134.84375 C 560.019531 132.53125 559.429687 130.777344 558.253906 129.578125 C 557.078125 128.378906 555.488281 127.78125 553.488281 127.78125 C 551.488281 127.78125 549.898437 128.378906 548.722656 129.578125 C 547.546875 130.777344 546.957031 132.53125 546.957031 134.84375 Z M 549.300781 119.40625 C 550.300781 120.449219 551.695312 120.96875 553.488281 120.96875 C 555.300781 120.96875 556.703125 120.449219 557.691406 119.40625 C 558.679687 118.363281 559.175781 117.019531 559.175781 115.375 C 559.175781 113.582031 558.679687 112.183594 557.691406 111.171875 C 556.703125 110.160156 555.300781 109.65625 553.488281 109.65625 C 551.695312 109.65625 550.296875 110.160156 549.285156 111.171875 C 548.273437 112.183594 547.769531 113.582031 547.769531 115.375 C 547.769531 117.019531 548.28125 118.363281 549.300781 119.40625 Z M 571.613281 148 " transform="matrix(-1,0.000000000000001592,-0.000000000000001592,-1,1296,528)"/>
<path style="fill-rule:nonzero;fill:rgb(1.960784%,10.196078%,20.392157%);fill-opacity:1;stroke-width:1;stroke-linecap:butt;stroke-linejoin:bevel;stroke:rgb(1.960784%,10.196078%,20.392157%);stroke-opacity:1;stroke-miterlimit:10;" d="M 559 160 C 570.597656 160 580 169.402344 580 181 C 580 192.597656 570.597656 202 559 202 L 528 202 L 528 160 Z M 559 160 " transform="matrix(-1,0.000000000000001592,-0.000000000000001592,-1,1296,528)"/>
<path style="fill-rule:nonzero;fill:rgb(0%,55.686275%,88.627451%);fill-opacity:1;stroke-width:1.3;stroke-linecap:butt;stroke-linejoin:bevel;stroke:rgb(100%,100%,100%);stroke-opacity:1;stroke-miterlimit:10;" d="M 554.78125 174.335937 C 554.25 173.699219 553.488281 173.382812 552.5 173.382812 C 551.144531 173.382812 550.222656 173.886719 549.734375 174.898437 C 549.453125 175.480469 549.285156 176.410156 549.234375 177.679687 L 544.90625 177.679687 C 544.980469 175.753906 545.328125 174.195312 545.953125 173.007812 C 547.140625 170.746094 549.25 169.617187 552.28125 169.617187 C 554.675781 169.617187 556.582031 170.28125 558 171.609375 C 559.417969 172.9375 560.125 174.695312 560.125 176.882812 C 560.125 178.558594 559.625 180.050781 558.625 181.351562 C 557.96875 182.214844 556.890625 183.179687 555.390625 184.242187 L 553.609375 185.507812 C 552.496094 186.300781 551.730469 186.871094 551.320312 187.226562 C 550.910156 187.582031 550.5625 187.992187 550.28125 188.460937 L 560.171875 188.460937 L 560.171875 192.382812 L 544.65625 192.382812 C 544.699219 190.757812 545.046875 189.273437 545.703125 187.929687 C 546.339844 186.417969 547.839844 184.820312 550.203125 183.132812 C 552.253906 181.664062 553.582031 180.613281 554.1875 179.976562 C 555.113281 178.988281 555.578125 177.902344 555.578125 176.726562 C 555.578125 175.769531 555.3125 174.972656 554.78125 174.335937 Z M 561.453125 192.382812 " transform="matrix(-1,0.000000000000001592,-0.000000000000001592,-1,1296,528)"/>
<path style=" stroke:none;fill-rule:nonzero;fill:rgb(0%,55.686275%,88.627451%);fill-opacity:1;" d="M 768 432 C 1088 320 688 208 1008 96 L 768 96 Z M 768 432 "/>
<path style="fill-rule:nonzero;fill:rgb(1.960784%,17.647059%,29.019608%);fill-opacity:1;stroke-width:1.6;stroke-linecap:butt;stroke-linejoin:bevel;stroke:rgb(100%,100%,100%);stroke-opacity:1;stroke-miterlimit:10;" d="M 798.519531 111.90625 C 797.457031 110.636719 795.9375 110 793.957031 110 C 791.25 110 789.40625 111.011719 788.425781 113.03125 C 787.863281 114.199219 787.53125 116.050781 787.425781 118.59375 L 778.769531 118.59375 C 778.914063 114.738281 779.613281 111.625 780.863281 109.25 C 783.238281 104.730469 787.457031 102.46875 793.519531 102.46875 C 798.3125 102.46875 802.125 103.796875 804.957031 106.453125 C 807.789063 109.109375 809.207031 112.625 809.207031 117 C 809.207031 120.355469 808.207031 123.332031 806.207031 125.9375 C 804.894531 127.667969 802.738281 129.59375 799.738281 131.71875 L 796.175781 134.25 C 793.945313 135.832031 792.421875 136.980469 791.597656 137.6875 C 790.773438 138.394531 790.082031 139.21875 789.519531 140.15625 L 809.300781 140.15625 L 809.300781 148 L 778.269531 148 C 778.351563 144.75 779.050781 141.78125 780.363281 139.09375 C 781.632813 136.074219 784.632813 132.875 789.363281 129.5 C 793.46875 126.5625 796.125 124.457031 797.332031 123.1875 C 799.1875 121.207031 800.113281 119.042969 800.113281 116.6875 C 800.113281 114.769531 799.582031 113.175781 798.519531 111.90625 Z M 811.863281 148 " transform="matrix(1,-0.000000000000001715,0.000000000000001715,1,-0.000000000000682121,0.000000000000909495)"/>
<path style="fill-rule:nonzero;fill:rgb(1.960784%,10.196078%,20.392157%);fill-opacity:1;stroke-width:1;stroke-linecap:butt;stroke-linejoin:bevel;stroke:rgb(1.960784%,10.196078%,20.392157%);stroke-opacity:1;stroke-miterlimit:10;" d="M 799 160 C 810.597656 160 820 169.402344 820 181 C 820 192.597656 810.597656 202 799 202 L 768 202 L 768 160 Z M 799 160 " transform="matrix(1,-0.000000000000001715,0.000000000000001715,1,-0.000000000000682121,0.000000000000909495)"/>
<path style="fill-rule:nonzero;fill:rgb(95.686275%,45.882353%,0.392157%);fill-opacity:1;stroke-width:1.3;stroke-linecap:butt;stroke-linejoin:bevel;stroke:rgb(100%,100%,100%);stroke-opacity:1;stroke-miterlimit:10;" d="M 791.8125 193.40625 C 790.113281 193.40625 788.589844 192.902344 787.234375 191.898438 C 785.878906 190.894531 785.105469 189.425781 784.90625 187.5 L 789.34375 187.5 C 789.449219 188.167969 789.730469 188.707031 790.1875 189.125 C 790.644531 189.542969 791.253906 189.75 792.015625 189.75 C 793.484375 189.75 794.515625 188.9375 795.109375 187.3125 C 795.433594 186.417969 795.636719 185.109375 795.71875 183.390625 C 795.3125 183.902344 794.878906 184.292969 794.421875 184.5625 C 793.589844 185.0625 792.5625 185.3125 791.34375 185.3125 C 789.542969 185.3125 787.941406 184.691406 786.546875 183.445313 C 785.152344 182.199219 784.453125 180.40625 784.453125 178.0625 C 784.453125 175.636719 785.152344 173.667969 786.554688 172.164063 C 787.957031 170.660156 789.777344 169.90625 792.015625 169.90625 C 795.464844 169.90625 797.828125 171.433594 799.109375 174.484375 C 799.839844 176.214844 800.203125 178.488281 800.203125 181.3125 C 800.203125 184.050781 799.855469 186.339844 799.15625 188.171875 C 797.824219 191.660156 795.375 193.40625 791.8125 193.40625 Z M 790.25 174.265625 C 789.394531 174.933594 788.96875 176.0625 788.96875 177.65625 C 788.96875 179 789.242188 180.007813 789.789063 180.679688 C 790.335938 181.351563 791.175781 181.6875 792.3125 181.6875 C 792.925781 181.6875 793.503906 181.511719 794.046875 181.15625 C 795.058594 180.511719 795.5625 179.390625 795.5625 177.796875 C 795.5625 176.515625 795.261719 175.5 794.664063 174.75 C 794.066406 174 793.246094 173.625 792.203125 173.625 C 791.441406 173.625 790.792969 173.839844 790.25 174.265625 Z M 801.296875 192.75 " transform="matrix(1,-0.000000000000001715,0.000000000000001715,1,-0.000000000000682121,0.000000000000909495)"/>
<path style=" stroke:none;fill-rule:nonzero;fill:rgb(95.686275%,45.882353%,0.392157%);fill-opacity:1;" d="M 1008 96 C 688 208 1088 320 768 432 L 1008 432 Z M 1008 96 "/>
<path style="fill-rule:nonzero;fill:rgb(1.960784%,17.647059%,29.019608%);fill-opacity:1;stroke-width:1.6;stroke-linecap:butt;stroke-linejoin:bevel;stroke:rgb(100%,100%,100%);stroke-opacity:1;stroke-miterlimit:10;" d="M 792.625 149.3125 C 789.230469 149.3125 786.175781 148.308594 783.46875 146.296875 C 780.761719 144.285156 779.207031 141.355469 778.8125 137.5 L 787.6875 137.5 C 787.894531 138.832031 788.457031 139.917969 789.375 140.75 C 790.292969 141.582031 791.511719 142 793.03125 142 C 795.96875 142 798.03125 140.375 799.21875 137.125 C 799.863281 135.332031 800.269531 132.71875 800.4375 129.28125 C 799.625 130.300781 798.761719 131.082031 797.84375 131.625 C 796.175781 132.625 794.125 133.125 791.6875 133.125 C 788.082031 133.125 784.886719 131.878906 782.09375 129.390625 C 779.300781 126.902344 777.90625 123.3125 777.90625 118.625 C 777.90625 113.769531 779.308594 109.839844 782.109375 106.828125 C 784.910156 103.816406 788.550781 102.3125 793.03125 102.3125 C 799.925781 102.3125 804.65625 105.363281 807.21875 111.46875 C 808.675781 114.925781 809.40625 119.480469 809.40625 125.125 C 809.40625 130.605469 808.707031 135.175781 807.3125 138.84375 C 804.644531 145.824219 799.75 149.3125 792.625 149.3125 Z M 789.5 111.03125 C 787.792969 112.363281 786.9375 114.625 786.9375 117.8125 C 786.9375 120.5 787.484375 122.515625 788.578125 123.859375 C 789.671875 125.203125 791.355469 125.875 793.625 125.875 C 794.855469 125.875 796.011719 125.519531 797.09375 124.8125 C 799.113281 123.519531 800.125 121.28125 800.125 118.09375 C 800.125 115.53125 799.527344 113.5 798.328125 112 C 797.128906 110.5 795.488281 109.75 793.40625 109.75 C 791.886719 109.75 790.582031 110.175781 789.5 111.03125 Z M 811.59375 148 " transform="matrix(-1,0.000000000000001837,-0.000000000000001837,-1,1776,528)"/>
<path style="fill-rule:nonzero;fill:rgb(1.960784%,10.196078%,20.392157%);fill-opacity:1;stroke-width:1;stroke-linecap:butt;stroke-linejoin:bevel;stroke:rgb(1.960784%,10.196078%,20.392157%);stroke-opacity:1;stroke-miterlimit:10;" d="M 799 160 C 810.597656 160 820 169.402344 820 181 C 820 192.597656 810.597656 202 799 202 L 768 202 L 768 160 Z M 799 160 " transform="matrix(-1,0.000000000000001837,-0.000000000000001837,-1,1776,528)"/>
<path style="fill-rule:nonzero;fill:rgb(0%,55.686275%,88.627451%);fill-opacity:1;stroke-width:1.3;stroke-linecap:butt;stroke-linejoin:bevel;stroke:rgb(100%,100%,100%);stroke-opacity:1;stroke-miterlimit:10;" d="M 794.78125 174.335937 C 794.25 173.699219 793.488281 173.382812 792.5 173.382812 C 791.144531 173.382812 790.222656 173.886719 789.734375 174.898437 C 789.453125 175.480469 789.285156 176.410156 789.234375 177.679687 L 784.90625 177.679687 C 784.980469 175.753906 785.328125 174.195312 785.953125 173.007812 C 787.140625 170.746094 789.25 169.617187 792.28125 169.617187 C 794.675781 169.617187 796.582031 170.28125 798 171.609375 C 799.417969 172.9375 800.125 174.695312 800.125 176.882812 C 800.125 178.558594 799.625 180.050781 798.625 181.351562 C 797.96875 182.214844 796.890625 183.179687 795.390625 184.242187 L 793.609375 185.507812 C 792.496094 186.300781 791.730469 186.871094 791.320312 187.226562 C 790.910156 187.582031 790.5625 187.992187 790.28125 188.460937 L 800.171875 188.460937 L 800.171875 192.382812 L 784.65625 192.382812 C 784.699219 190.757812 785.046875 189.273437 785.703125 187.929687 C 786.339844 186.417969 787.839844 184.820312 790.203125 183.132812 C 792.253906 181.664062 793.582031 180.613281 794.1875 179.976562 C 795.113281 178.988281 795.578125 177.902344 795.578125 176.726562 C 795.578125 175.769531 795.3125 174.972656 794.78125 174.335937 Z M 801.453125 192.382812 " transform="matrix(-1,0.000000000000001837,-0.000000000000001837,-1,1776,528)"/>
</g>
</svg>
