<?xml version="1.0" encoding="UTF-8"?>
<svg xmlns="http://www.w3.org/2000/svg" xmlns:xlink="http://www.w3.org/1999/xlink" width="1056pt" height="816pt" viewBox="0 0 1056 816" version="1.1">
<g id="surface14">
<path style=" stroke:none;fill-rule:nonzero;fill:rgb(0%,67.45098%,69.803922%);fill-opacity:1;" d="M 48 768 C 368 656 -32 544 288 432 L 48 432 Z M 48 768 "/>
<path style="fill-rule:nonzero;fill:rgb(1.960784%,17.647059%,29.019608%);fill-opacity:1;stroke-width:1.6;stroke-linecap:butt;stroke-linejoin:bevel;stroke:rgb(100%,100%,100%);stroke-opacity:1;stroke-miterlimit:10;" d="M 89.308594 467.28125 L 89.308594 474.25 L 84.183594 474.25 L 84.183594 484 L 75.464844 484 L 75.464844 474.25 L 57.527344 474.25 L 57.527344 466.46875 L 74.183594 438.96875 L 84.183594 438.96875 L 84.183594 467.28125 Z M 64.121094 467.28125 L 75.464844 467.28125 L 75.464844 447.71875 Z M 91.433594 484 "/>
<path style="fill-rule:nonzero;fill:rgb(1.960784%,10.196078%,20.392157%);fill-opacity:1;stroke-width:1;stroke-linecap:butt;stroke-linejoin:bevel;stroke:rgb(1.960784%,10.196078%,20.392157%);stroke-opacity:1;stroke-miterlimit:10;" d="M 79 496 C 90.597656 496 100 505.402344 100 517 C 100 528.597656 90.597656 538 79 538 L 48 538 L 48 496 Z M 79 496 "/>
<path style="fill-rule:nonzero;fill:rgb(26.27451%,87.058824%,38.431373%);fill-opacity:1;stroke-width:1.3;stroke-linecap:butt;stroke-linejoin:bevel;stroke:rgb(100%,100%,100%);stroke-opacity:1;stroke-miterlimit:10;" d="M 72.082031 517.226562 C 71.539062 517.226562 71.070312 517.292969 70.675781 517.429688 C 69.976562 517.679688 69.453125 518.144531 69.097656 518.820312 L 65.097656 518.632812 L 66.691406 506.117188 L 79.175781 506.117188 L 79.175781 509.898438 L 69.910156 509.898438 L 69.097656 514.851562 C 69.785156 514.402344 70.320312 514.105469 70.707031 513.960938 C 71.351562 513.722656 72.140625 513.601562 73.066406 513.601562 C 74.941406 513.601562 76.578125 514.230469 77.972656 515.492188 C 79.367188 516.753906 80.066406 518.585938 80.066406 520.992188 C 80.066406 523.085938 79.394531 524.957031 78.050781 526.601562 C 76.707031 528.246094 74.695312 529.070312 72.019531 529.070312 C 69.863281 529.070312 68.09375 528.492188 66.707031 527.335938 C 65.320312 526.179688 64.550781 524.539062 64.394531 522.414062 L 68.832031 522.414062 C 69.007812 523.382812 69.347656 524.128906 69.847656 524.65625 C 70.347656 525.183594 71.078125 525.445312 72.035156 525.445312 C 73.140625 525.445312 73.980469 525.058594 74.558594 524.28125 C 75.136719 523.503906 75.425781 522.527344 75.425781 521.351562 C 75.425781 520.195312 75.15625 519.21875 74.613281 518.421875 C 74.070312 517.625 73.226562 517.226562 72.082031 517.226562 Z M 81.347656 528.476562 "/>
<path style=" stroke:none;fill-rule:nonzero;fill:rgb(26.27451%,87.058824%,38.431373%);fill-opacity:1;" d="M 288 432 C -32 544 368 656 48 768 L 288 768 Z M 288 432 "/>
<path style="fill-rule:nonzero;fill:rgb(1.960784%,17.647059%,29.019608%);fill-opacity:1;stroke-width:1.6;stroke-linecap:butt;stroke-linejoin:bevel;stroke:rgb(100%,100%,100%);stroke-opacity:1;stroke-miterlimit:10;" d="M 73.152344 461.5 C 72.070312 461.5 71.132812 461.636719 70.339844 461.90625 C 68.945312 462.40625 67.890625 463.332031 67.183594 464.6875 L 59.183594 464.3125 L 62.371094 439.28125 L 87.339844 439.28125 L 87.339844 446.84375 L 68.808594 446.84375 L 67.183594 456.75 C 68.558594 455.855469 69.632812 455.261719 70.402344 454.96875 C 71.695312 454.488281 73.265625 454.25 75.121094 454.25 C 78.871094 454.25 82.140625 455.511719 84.933594 458.03125 C 87.726562 460.550781 89.121094 464.21875 89.121094 469.03125 C 89.121094 473.21875 87.777344 476.957031 85.089844 480.25 C 82.402344 483.542969 78.382812 485.1875 73.027344 485.1875 C 68.714844 485.1875 65.171875 484.03125 62.402344 481.71875 C 59.632812 479.40625 58.089844 476.125 57.777344 471.875 L 66.652344 471.875 C 67.007812 473.8125 67.683594 475.308594 68.683594 476.359375 C 69.683594 477.410156 71.140625 477.9375 73.058594 477.9375 C 75.265625 477.9375 76.949219 477.160156 78.105469 475.609375 C 79.261719 474.058594 79.839844 472.105469 79.839844 469.75 C 79.839844 467.4375 79.296875 465.484375 78.214844 463.890625 C 77.132812 462.296875 75.445312 461.5 73.152344 461.5 Z M 91.683594 484 " transform="matrix(-1,0.000000000000000122,-0.000000000000000122,-1,336,1200)"/>
<path style="fill-rule:nonzero;fill:rgb(1.960784%,10.196078%,20.392157%);fill-opacity:1;stroke-width:1;stroke-linecap:butt;stroke-linejoin:bevel;stroke:rgb(1.960784%,10.196078%,20.392157%);stroke-opacity:1;stroke-miterlimit:10;" d="M 79 496 C 90.597656 496 100 505.402344 100 517 C 100 528.597656 90.597656 538 79 538 L 48 538 L 48 496 Z M 79 496 " transform="matrix(-1,0.000000000000000122,-0.000000000000000122,-1,336,1200)"/>
<path style="fill-rule:nonzero;fill:rgb(0%,67.45098%,69.803922%);fill-opacity:1;stroke-width:1.3;stroke-linecap:butt;stroke-linejoin:bevel;stroke:rgb(100%,100%,100%);stroke-opacity:1;stroke-miterlimit:10;" d="M 80.140625 519.898438 L 80.140625 523.382812 L 77.578125 523.382812 L 77.578125 528.257812 L 73.21875 528.257812 L 73.21875 523.382812 L 64.25 523.382812 L 64.25 519.492188 L 72.578125 505.742188 L 77.578125 505.742188 L 77.578125 519.898438 Z M 67.546875 519.898438 L 73.21875 519.898438 L 73.21875 510.117188 Z M 81.203125 528.257812 " transform="matrix(-1,0.000000000000000122,-0.000000000000000122,-1,336,1200)"/>
<path style=" stroke:none;fill-rule:nonzero;fill:rgb(0%,67.45098%,69.803922%);fill-opacity:1;" d="M 288 768 C 608 656 208 544 528 432 L 288 432 Z M 288 768 "/>
<path style="fill-rule:nonzero;fill:rgb(1.960784%,17.647059%,29.019608%);fill-opacity:1;stroke-width:1.6;stroke-linecap:butt;stroke-linejoin:bevel;stroke:rgb(100%,100%,100%);stroke-opacity:1;stroke-miterlimit:10;" d="M 329.308594 467.28125 L 329.308594 474.25 L 324.183594 474.25 L 324.183594 484 L 315.464844 484 L 315.464844 474.25 L 297.527344 474.25 L 297.527344 466.46875 L 314.183594 438.96875 L 324.183594 438.96875 L 324.183594 467.28125 Z M 304.121094 467.28125 L 315.464844 467.28125 L 315.464844 447.71875 Z M 331.433594 484 " transform="matrix(1,-0.000000000000000245,0.000000000000000245,1,-0.000000000000113687,0)"/>
<path style="fill-rule:nonzero;fill:rgb(1.960784%,10.196078%,20.392157%);fill-opacity:1;stroke-width:1;stroke-linecap:butt;stroke-linejoin:bevel;stroke:rgb(1.960784%,10.196078%,20.392157%);stroke-opacity:1;stroke-miterlimit:10;" d="M 319 496 C 330.597656 496 340 505.402344 340 517 C 340 528.597656 330.597656 538 319 538 L 288 538 L 288 496 Z M 319 496 " transform="matrix(1,-0.000000000000000245,0.000000000000000245,1,-0.000000000000113687,0)"/>
<path style="fill-rule:nonzero;fill:rgb(82.352941%,98.823529%,29.411765%);fill-opacity:1;stroke-width:1.3;stroke-linecap:butt;stroke-linejoin:bevel;stroke:rgb(100%,100%,100%);stroke-opacity:1;stroke-miterlimit:10;" d="M 313.34375 514.03125 C 315.355469 514.03125 317.003906 514.714844 318.289063 516.078125 C 319.574219 517.441406 320.21875 519.1875 320.21875 521.3125 C 320.21875 523.425781 319.589844 525.292969 318.328125 526.90625 C 317.066406 528.519531 315.109375 529.328125 312.453125 529.328125 C 309.597656 529.328125 307.496094 528.136719 306.140625 525.75 C 305.089844 523.886719 304.5625 521.480469 304.5625 518.53125 C 304.5625 516.800781 304.636719 515.394531 304.78125 514.3125 C 305.042969 512.386719 305.546875 510.78125 306.296875 509.5 C 306.941406 508.40625 307.789063 507.527344 308.835938 506.859375 C 309.882813 506.191406 311.136719 505.859375 312.59375 505.859375 C 314.699219 505.859375 316.375 506.398438 317.625 507.476563 C 318.875 508.554688 319.578125 509.988281 319.734375 511.78125 L 315.296875 511.78125 C 315.296875 511.417969 315.15625 511.015625 314.875 510.578125 C 314.394531 509.871094 313.671875 509.515625 312.703125 509.515625 C 311.253906 509.515625 310.222656 510.328125 309.609375 511.953125 C 309.277344 512.847656 309.046875 514.171875 308.921875 515.921875 C 309.472656 515.265625 310.113281 514.785156 310.84375 514.484375 C 311.574219 514.183594 312.40625 514.03125 313.34375 514.03125 Z M 310.34375 518.28125 C 309.46875 518.957031 309.03125 520.050781 309.03125 521.5625 C 309.03125 522.78125 309.359375 523.777344 310.015625 524.546875 C 310.671875 525.316406 311.503906 525.703125 312.515625 525.703125 C 313.503906 525.703125 314.285156 525.332031 314.851563 524.585938 C 315.417969 523.839844 315.703125 522.875 315.703125 521.6875 C 315.703125 520.363281 315.378906 519.351563 314.734375 518.648438 C 314.089844 517.945313 313.296875 517.59375 312.359375 517.59375 C 311.597656 517.59375 310.925781 517.824219 310.34375 518.28125 Z M 321.359375 528.734375 " transform="matrix(1,-0.000000000000000245,0.000000000000000245,1,-0.000000000000113687,0)"/>
<path style=" stroke:none;fill-rule:nonzero;fill:rgb(82.352941%,98.823529%,29.411765%);fill-opacity:1;" d="M 528 432 C 208 544 608 656 288 768 L 528 768 Z M 528 432 "/>
<path style="fill-rule:nonzero;fill:rgb(1.960784%,17.647059%,29.019608%);fill-opacity:1;stroke-width:1.6;stroke-linecap:butt;stroke-linejoin:bevel;stroke:rgb(100%,100%,100%);stroke-opacity:1;stroke-miterlimit:10;" d="M 315.667969 454.59375 C 319.6875 454.59375 322.984375 455.957031 325.558594 458.6875 C 328.132813 461.417969 329.417969 464.90625 329.417969 469.15625 C 329.417969 473.386719 328.15625 477.113281 325.636719 480.34375 C 323.117188 483.574219 319.199219 485.1875 313.886719 485.1875 C 308.179688 485.1875 303.96875 482.800781 301.261719 478.03125 C 299.15625 474.300781 298.105469 469.488281 298.105469 463.59375 C 298.105469 460.136719 298.25 457.324219 298.542969 455.15625 C 299.0625 451.300781 300.074219 448.09375 301.574219 445.53125 C 302.867188 443.34375 304.558594 441.582031 306.652344 440.25 C 308.746094 438.917969 311.25 438.25 314.167969 438.25 C 318.375 438.25 321.730469 439.328125 324.230469 441.484375 C 326.730469 443.640625 328.136719 446.511719 328.449219 450.09375 L 319.574219 450.09375 C 319.574219 449.363281 319.292969 448.5625 318.730469 447.6875 C 317.773438 446.269531 316.324219 445.5625 314.386719 445.5625 C 311.492188 445.5625 309.429688 447.1875 308.199219 450.4375 C 307.53125 452.230469 307.074219 454.875 306.824219 458.375 C 307.929688 457.0625 309.210938 456.105469 310.667969 455.5 C 312.125 454.894531 313.792969 454.59375 315.667969 454.59375 Z M 309.667969 463.09375 C 307.917969 464.449219 307.042969 466.636719 307.042969 469.65625 C 307.042969 472.09375 307.699219 474.082031 309.011719 475.625 C 310.324219 477.167969 311.992188 477.9375 314.011719 477.9375 C 315.992188 477.9375 317.546875 477.191406 318.683594 475.703125 C 319.820313 474.214844 320.386719 472.28125 320.386719 469.90625 C 320.386719 467.261719 319.742188 465.234375 318.449219 463.828125 C 317.15625 462.421875 315.574219 461.71875 313.699219 461.71875 C 312.179688 461.71875 310.835938 462.175781 309.667969 463.09375 Z M 331.699219 484 " transform="matrix(-1,0.000000000000000367,-0.000000000000000367,-1,816,1200)"/>
<path style="fill-rule:nonzero;fill:rgb(1.960784%,10.196078%,20.392157%);fill-opacity:1;stroke-width:1;stroke-linecap:butt;stroke-linejoin:bevel;stroke:rgb(1.960784%,10.196078%,20.392157%);stroke-opacity:1;stroke-miterlimit:10;" d="M 319 496 C 330.597656 496 340 505.402344 340 517 C 340 528.597656 330.597656 538 319 538 L 288 538 L 288 496 Z M 319 496 " transform="matrix(-1,0.000000000000000367,-0.000000000000000367,-1,816,1200)"/>
<path style="fill-rule:nonzero;fill:rgb(0%,67.45098%,69.803922%);fill-opacity:1;stroke-width:1.3;stroke-linecap:butt;stroke-linejoin:bevel;stroke:rgb(100%,100%,100%);stroke-opacity:1;stroke-miterlimit:10;" d="M 320.140625 519.898437 L 320.140625 523.382812 L 317.578125 523.382812 L 317.578125 528.257812 L 313.21875 528.257812 L 313.21875 523.382812 L 304.25 523.382812 L 304.25 519.492187 L 312.578125 505.742187 L 317.578125 505.742187 L 317.578125 519.898437 Z M 307.546875 519.898437 L 313.21875 519.898437 L 313.21875 510.117187 Z M 321.203125 528.257812 " transform="matrix(-1,0.000000000000000367,-0.000000000000000367,-1,816,1200)"/>
<path style=" stroke:none;fill-rule:nonzero;fill:rgb(0%,67.45098%,69.803922%);fill-opacity:1;" d="M 528 768 C 848 656 448 544 768 432 L 528 432 Z M 528 768 "/>
<path style="fill-rule:nonzero;fill:rgb(1.960784%,17.647059%,29.019608%);fill-opacity:1;stroke-width:1.6;stroke-linecap:butt;stroke-linejoin:bevel;stroke:rgb(100%,100%,100%);stroke-opacity:1;stroke-miterlimit:10;" d="M 569.308594 467.28125 L 569.308594 474.25 L 564.183594 474.25 L 564.183594 484 L 555.464844 484 L 555.464844 474.25 L 537.527344 474.25 L 537.527344 466.46875 L 554.183594 438.96875 L 564.183594 438.96875 L 564.183594 467.28125 Z M 544.121094 467.28125 L 555.464844 467.28125 L 555.464844 447.71875 Z M 571.433594 484 " transform="matrix(1,-0.00000000000000049,0.00000000000000049,1,-0.000000000000284217,0.000000000000113687)"/>
<path style="fill-rule:nonzero;fill:rgb(1.960784%,10.196078%,20.392157%);fill-opacity:1;stroke-width:1;stroke-linecap:butt;stroke-linejoin:bevel;stroke:rgb(1.960784%,10.196078%,20.392157%);stroke-opacity:1;stroke-miterlimit:10;" d="M 559 496 C 570.597656 496 580 505.402344 580 517 C 580 528.597656 570.597656 538 559 538 L 528 538 L 528 496 Z M 559 496 " transform="matrix(1,-0.00000000000000049,0.00000000000000049,1,-0.000000000000284217,0.000000000000113687)"/>
<path style="fill-rule:nonzero;fill:rgb(99.607843%,92.54902%,1.568627%);fill-opacity:1;stroke-width:1.3;stroke-linecap:butt;stroke-linejoin:bevel;stroke:rgb(100%,100%,100%);stroke-opacity:1;stroke-miterlimit:10;" d="M 557.386719 512.804688 C 556.199219 514.492188 555.203125 516.230469 554.402344 518.023438 C 553.765625 519.429688 553.195312 521.148438 552.683594 523.179688 C 552.171875 525.210938 551.917969 526.878906 551.917969 528.179688 L 547.292969 528.179688 C 547.429688 524.117188 548.761719 519.894531 551.292969 515.507813 C 552.929688 512.789063 554.296875 510.894531 555.402344 509.820313 L 544.105469 509.820313 L 544.167969 505.820313 L 560.167969 505.820313 L 560.167969 509.304688 C 559.5 509.960938 558.574219 511.128906 557.386719 512.804688 Z M 561.089844 528.179688 " transform="matrix(1,-0.00000000000000049,0.00000000000000049,1,-0.000000000000284217,0.000000000000113687)"/>
<path style=" stroke:none;fill-rule:nonzero;fill:rgb(99.607843%,92.54902%,1.568627%);fill-opacity:1;" d="M 768 432 C 448 544 848 656 528 768 L 768 768 Z M 768 432 "/>
<path style="fill-rule:nonzero;fill:rgb(1.960784%,17.647059%,29.019608%);fill-opacity:1;stroke-width:1.6;stroke-linecap:butt;stroke-linejoin:bevel;stroke:rgb(100%,100%,100%);stroke-opacity:1;stroke-miterlimit:10;" d="M 563.832031 453.25 C 561.457031 456.625 559.46875 460.105469 557.863281 463.6875 C 556.59375 466.5 555.445312 469.9375 554.425781 474 C 553.40625 478.0625 552.894531 481.394531 552.894531 484 L 543.644531 484 C 543.914062 475.875 546.582031 467.425781 551.644531 458.65625 C 554.914062 453.21875 557.65625 449.425781 559.863281 447.28125 L 537.269531 447.28125 L 537.394531 439.28125 L 569.394531 439.28125 L 569.394531 446.25 C 568.0625 447.5625 566.207031 449.894531 563.832031 453.25 Z M 571.238281 484 " transform="matrix(-1,0.000000000000000612,-0.000000000000000612,-1,1296,1200)"/>
<path style="fill-rule:nonzero;fill:rgb(1.960784%,10.196078%,20.392157%);fill-opacity:1;stroke-width:1;stroke-linecap:butt;stroke-linejoin:bevel;stroke:rgb(1.960784%,10.196078%,20.392157%);stroke-opacity:1;stroke-miterlimit:10;" d="M 559 496 C 570.597656 496 580 505.402344 580 517 C 580 528.597656 570.597656 538 559 538 L 528 538 L 528 496 Z M 559 496 " transform="matrix(-1,0.000000000000000612,-0.000000000000000612,-1,1296,1200)"/>
<path style="fill-rule:nonzero;fill:rgb(0%,67.45098%,69.803922%);fill-opacity:1;stroke-width:1.3;stroke-linecap:butt;stroke-linejoin:bevel;stroke:rgb(100%,100%,100%);stroke-opacity:1;stroke-miterlimit:10;" d="M 560.140625 519.898437 L 560.140625 523.382812 L 557.578125 523.382812 L 557.578125 528.257812 L 553.21875 528.257812 L 553.21875 523.382812 L 544.25 523.382812 L 544.25 519.492187 L 552.578125 505.742187 L 557.578125 505.742187 L 557.578125 519.898437 Z M 547.546875 519.898437 L 553.21875 519.898437 L 553.21875 510.117187 Z M 561.203125 528.257812 " transform="matrix(-1,0.000000000000000612,-0.000000000000000612,-1,1296,1200)"/>
<path style=" stroke:none;fill-rule:nonzero;fill:rgb(0%,67.45098%,69.803922%);fill-opacity:1;" d="M 768 768 C 1088 656 688 544 1008 432 L 768 432 Z M 768 768 "/>
<path style="fill-rule:nonzero;fill:rgb(1.960784%,17.647059%,29.019608%);fill-opacity:1;stroke-width:1.6;stroke-linecap:butt;stroke-linejoin:bevel;stroke:rgb(100%,100%,100%);stroke-opacity:1;stroke-miterlimit:10;" d="M 809.308594 467.28125 L 809.308594 474.25 L 804.183594 474.25 L 804.183594 484 L 795.464844 484 L 795.464844 474.25 L 777.527344 474.25 L 777.527344 466.46875 L 794.183594 438.96875 L 804.183594 438.96875 L 804.183594 467.28125 Z M 784.121094 467.28125 L 795.464844 467.28125 L 795.464844 447.71875 Z M 811.433594 484 " transform="matrix(1,-0.000000000000000735,0.000000000000000735,1,-0.000000000000341061,0.000000000000341061)"/>
<path style="fill-rule:nonzero;fill:rgb(1.960784%,10.196078%,20.392157%);fill-opacity:1;stroke-width:1;stroke-linecap:butt;stroke-linejoin:bevel;stroke:rgb(1.960784%,10.196078%,20.392157%);stroke-opacity:1;stroke-miterlimit:10;" d="M 799 496 C 810.597656 496 820 505.402344 820 517 C 820 528.597656 810.597656 538 799 538 L 768 538 L 768 496 Z M 799 496 " transform="matrix(1,-0.000000000000000735,0.000000000000000735,1,-0.000000000000341061,0.000000000000341061)"/>
<path style="fill-rule:nonzero;fill:rgb(100%,85.490196%,28.627451%);fill-opacity:1;stroke-width:1.3;stroke-linecap:butt;stroke-linejoin:bevel;stroke:rgb(100%,100%,100%);stroke-opacity:1;stroke-miterlimit:10;" d="M 786.308594 527.257813 C 785.007813 525.925781 784.355469 524.304688 784.355469 522.398438 C 784.355469 521.128906 784.644531 519.976563 785.222656 518.945313 C 785.800781 517.914063 786.648438 517.136719 787.761719 516.617188 C 786.667969 515.886719 785.957031 515.097656 785.628906 514.25 C 785.300781 513.402344 785.136719 512.605469 785.136719 511.867188 C 785.136719 510.222656 785.757813 508.816406 786.996094 507.65625 C 788.234375 506.496094 789.984375 505.914063 792.246094 505.914063 C 794.507813 505.914063 796.257813 506.496094 797.496094 507.65625 C 798.734375 508.816406 799.355469 510.222656 799.355469 511.867188 C 799.355469 512.605469 799.191406 513.402344 798.863281 514.25 C 798.535156 515.097656 797.824219 515.835938 796.730469 516.460938 C 797.84375 517.085938 798.683594 517.914063 799.246094 518.945313 C 799.808594 519.976563 800.089844 521.128906 800.089844 522.398438 C 800.089844 524.304688 799.382813 525.925781 797.972656 527.265625 C 796.5625 528.605469 794.589844 529.273438 792.058594 529.273438 C 789.527344 529.273438 787.609375 528.601563 786.308594 527.257813 Z M 788.980469 522.101563 C 788.980469 523.214844 789.269531 524.082031 789.847656 524.695313 C 790.425781 525.308594 791.226563 525.617188 792.246094 525.617188 C 793.265625 525.617188 794.066406 525.308594 794.644531 524.695313 C 795.222656 524.082031 795.511719 523.214844 795.511719 522.101563 C 795.511719 520.945313 795.21875 520.066406 794.628906 519.46875 C 794.039063 518.871094 793.246094 518.570313 792.246094 518.570313 C 791.246094 518.570313 790.453125 518.871094 789.863281 519.46875 C 789.273438 520.066406 788.980469 520.945313 788.980469 522.101563 Z M 790.152344 514.382813 C 790.652344 514.902344 791.351563 515.164063 792.246094 515.164063 C 793.152344 515.164063 793.851563 514.902344 794.347656 514.382813 C 794.84375 513.863281 795.089844 513.191406 795.089844 512.367188 C 795.089844 511.472656 794.84375 510.769531 794.347656 510.265625 C 793.851563 509.761719 793.152344 509.507813 792.246094 509.507813 C 791.351563 509.507813 790.648438 509.761719 790.144531 510.265625 C 789.640625 510.769531 789.386719 511.472656 789.386719 512.367188 C 789.386719 513.191406 789.640625 513.863281 790.152344 514.382813 Z M 801.308594 528.679688 " transform="matrix(1,-0.000000000000000735,0.000000000000000735,1,-0.000000000000341061,0.000000000000341061)"/>
<path style=" stroke:none;fill-rule:nonzero;fill:rgb(100%,85.490196%,28.627451%);fill-opacity:1;" d="M 1008 432 C 688 544 1088 656 768 768 L 1008 768 Z M 1008 432 "/>
<path style="fill-rule:nonzero;fill:rgb(1.960784%,17.647059%,29.019608%);fill-opacity:1;stroke-width:1.6;stroke-linecap:butt;stroke-linejoin:bevel;stroke:rgb(100%,100%,100%);stroke-opacity:1;stroke-miterlimit:10;" d="M 781.613281 481.15625 C 779.007812 478.488281 777.707031 475.25 777.707031 471.4375 C 777.707031 468.894531 778.285156 466.59375 779.441406 464.53125 C 780.597656 462.46875 782.289062 460.917969 784.519531 459.875 C 782.332031 458.417969 780.910156 456.839844 780.253906 455.140625 C 779.597656 453.441406 779.269531 451.855469 779.269531 450.375 C 779.269531 447.082031 780.507812 444.277344 782.988281 441.953125 C 785.46875 439.628906 788.96875 438.46875 793.488281 438.46875 C 798.007812 438.46875 801.507812 439.628906 803.988281 441.953125 C 806.46875 444.277344 807.707031 447.082031 807.707031 450.375 C 807.707031 451.855469 807.378906 453.441406 806.722656 455.140625 C 806.066406 456.839844 804.644531 458.3125 802.457031 459.5625 C 804.6875 460.8125 806.363281 462.46875 807.488281 464.53125 C 808.613281 466.59375 809.175781 468.894531 809.175781 471.4375 C 809.175781 475.25 807.765625 478.496094 804.941406 481.171875 C 802.117187 483.847656 798.175781 485.1875 793.113281 485.1875 C 788.050781 485.1875 784.21875 483.84375 781.613281 481.15625 Z M 786.957031 470.84375 C 786.957031 473.074219 787.535156 474.800781 788.691406 476.03125 C 789.847656 477.261719 791.445312 477.875 793.488281 477.875 C 795.53125 477.875 797.128906 477.261719 798.285156 476.03125 C 799.441406 474.800781 800.019531 473.074219 800.019531 470.84375 C 800.019531 468.53125 799.429688 466.777344 798.253906 465.578125 C 797.078125 464.378906 795.488281 463.78125 793.488281 463.78125 C 791.488281 463.78125 789.898438 464.378906 788.722656 465.578125 C 787.546875 466.777344 786.957031 468.53125 786.957031 470.84375 Z M 789.300781 455.40625 C 790.300781 456.449219 791.695312 456.96875 793.488281 456.96875 C 795.300781 456.96875 796.703125 456.449219 797.691406 455.40625 C 798.679688 454.363281 799.175781 453.019531 799.175781 451.375 C 799.175781 449.582031 798.679688 448.183594 797.691406 447.171875 C 796.703125 446.160156 795.300781 445.65625 793.488281 445.65625 C 791.695312 445.65625 790.296875 446.160156 789.285156 447.171875 C 788.273438 448.183594 787.769531 449.582031 787.769531 451.375 C 787.769531 453.019531 788.28125 454.363281 789.300781 455.40625 Z M 811.613281 484 " transform="matrix(-1,0.000000000000000857,-0.000000000000000857,-1,1776,1200)"/>
<path style="fill-rule:nonzero;fill:rgb(1.960784%,10.196078%,20.392157%);fill-opacity:1;stroke-width:1;stroke-linecap:butt;stroke-linejoin:bevel;stroke:rgb(1.960784%,10.196078%,20.392157%);stroke-opacity:1;stroke-miterlimit:10;" d="M 799 496 C 810.597656 496 820 505.402344 820 517 C 820 528.597656 810.597656 538 799 538 L 768 538 L 768 496 Z M 799 496 " transform="matrix(-1,0.000000000000000857,-0.000000000000000857,-1,1776,1200)"/>
<path style="fill-rule:nonzero;fill:rgb(0%,67.45098%,69.803922%);fill-opacity:1;stroke-width:1.3;stroke-linecap:butt;stroke-linejoin:bevel;stroke:rgb(100%,100%,100%);stroke-opacity:1;stroke-miterlimit:10;" d="M 800.140625 519.898437 L 800.140625 523.382812 L 797.578125 523.382812 L 797.578125 528.257812 L 793.21875 528.257812 L 793.21875 523.382812 L 784.25 523.382812 L 784.25 519.492187 L 792.578125 505.742187 L 797.578125 505.742187 L 797.578125 519.898437 Z M 787.546875 519.898437 L 793.21875 519.898437 L 793.21875 510.117187 Z M 801.203125 528.257812 " transform="matrix(-1,0.000000000000000857,-0.000000000000000857,-1,1776,1200)"/>
<path style=" stroke:none;fill-rule:nonzero;fill:rgb(0%,67.45098%,69.803922%);fill-opacity:1;" d="M 48 432 C 368 320 -32 208 288 96 L 48 96 Z M 48 432 "/>
<path style="fill-rule:nonzero;fill:rgb(1.960784%,17.647059%,29.019608%);fill-opacity:1;stroke-width:1.6;stroke-linecap:butt;stroke-linejoin:bevel;stroke:rgb(100%,100%,100%);stroke-opacity:1;stroke-miterlimit:10;" d="M 89.308594 131.28125 L 89.308594 138.25 L 84.183594 138.25 L 84.183594 148 L 75.464844 148 L 75.464844 138.25 L 57.527344 138.25 L 57.527344 130.46875 L 74.183594 102.96875 L 84.183594 102.96875 L 84.183594 131.28125 Z M 64.121094 131.28125 L 75.464844 131.28125 L 75.464844 111.71875 Z M 91.433594 148 " transform="matrix(1,-0.00000000000000098,0.00000000000000098,1,-0.000000000000454747,0.000000000000568434)"/>
<path style="fill-rule:nonzero;fill:rgb(1.960784%,10.196078%,20.392157%);fill-opacity:1;stroke-width:1;stroke-linecap:butt;stroke-linejoin:bevel;stroke:rgb(1.960784%,10.196078%,20.392157%);stroke-opacity:1;stroke-miterlimit:10;" d="M 79 160 C 90.597656 160 100 169.402344 100 181 C 100 192.597656 90.597656 202 79 202 L 48 202 L 48 160 Z M 79 160 " transform="matrix(1,-0.00000000000000098,0.00000000000000098,1,-0.000000000000454747,0.000000000000568434)"/>
<path style="fill-rule:nonzero;fill:rgb(95.686275%,45.882353%,0.392157%);fill-opacity:1;stroke-width:1.3;stroke-linecap:butt;stroke-linejoin:bevel;stroke:rgb(100%,100%,100%);stroke-opacity:1;stroke-miterlimit:10;" d="M 71.8125 193.40625 C 70.113281 193.40625 68.589844 192.902344 67.234375 191.898437 C 65.878906 190.894531 65.105469 189.425781 64.90625 187.5 L 69.34375 187.5 C 69.449219 188.167969 69.730469 188.707031 70.1875 189.125 C 70.644531 189.542969 71.253906 189.75 72.015625 189.75 C 73.484375 189.75 74.515625 188.9375 75.109375 187.3125 C 75.433594 186.417969 75.636719 185.109375 75.71875 183.390625 C 75.3125 183.902344 74.878906 184.292969 74.421875 184.5625 C 73.589844 185.0625 72.5625 185.3125 71.34375 185.3125 C 69.542969 185.3125 67.941406 184.691406 66.546875 183.445312 C 65.152344 182.199219 64.453125 180.40625 64.453125 178.0625 C 64.453125 175.636719 65.152344 173.667969 66.554688 172.164062 C 67.957031 170.660156 69.777344 169.90625 72.015625 169.90625 C 75.464844 169.90625 77.828125 171.433594 79.109375 174.484375 C 79.839844 176.214844 80.203125 178.488281 80.203125 181.3125 C 80.203125 184.050781 79.855469 186.339844 79.15625 188.171875 C 77.824219 191.660156 75.375 193.40625 71.8125 193.40625 Z M 70.25 174.265625 C 69.394531 174.933594 68.96875 176.0625 68.96875 177.65625 C 68.96875 179 69.242188 180.007812 69.789063 180.679687 C 70.335938 181.351562 71.175781 181.6875 72.3125 181.6875 C 72.925781 181.6875 73.503906 181.511719 74.046875 181.15625 C 75.058594 180.511719 75.5625 179.390625 75.5625 177.796875 C 75.5625 176.515625 75.261719 175.5 74.664063 174.75 C 74.066406 174 73.246094 173.625 72.203125 173.625 C 71.441406 173.625 70.792969 173.839844 70.25 174.265625 Z M 81.296875 192.75 " transform="matrix(1,-0.00000000000000098,0.00000000000000098,1,-0.000000000000454747,0.000000000000568434)"/>
<path style=" stroke:none;fill-rule:nonzero;fill:rgb(95.686275%,45.882353%,0.392157%);fill-opacity:1;" d="M 288 96 C -32 208 368 320 48 432 L 288 432 Z M 288 96 "/>
<path style="fill-rule:nonzero;fill:rgb(1.960784%,17.647059%,29.019608%);fill-opacity:1;stroke-width:1.6;stroke-linecap:butt;stroke-linejoin:bevel;stroke:rgb(100%,100%,100%);stroke-opacity:1;stroke-miterlimit:10;" d="M 72.625 149.3125 C 69.230469 149.3125 66.175781 148.308594 63.46875 146.296875 C 60.761719 144.285156 59.207031 141.355469 58.8125 137.5 L 67.6875 137.5 C 67.894531 138.832031 68.457031 139.917969 69.375 140.75 C 70.292969 141.582031 71.511719 142 73.03125 142 C 75.96875 142 78.03125 140.375 79.21875 137.125 C 79.863281 135.332031 80.269531 132.71875 80.4375 129.28125 C 79.625 130.300781 78.761719 131.082031 77.84375 131.625 C 76.175781 132.625 74.125 133.125 71.6875 133.125 C 68.082031 133.125 64.886719 131.878906 62.09375 129.390625 C 59.300781 126.902344 57.90625 123.3125 57.90625 118.625 C 57.90625 113.769531 59.308594 109.839844 62.109375 106.828125 C 64.910156 103.816406 68.550781 102.3125 73.03125 102.3125 C 79.925781 102.3125 84.65625 105.363281 87.21875 111.46875 C 88.675781 114.925781 89.40625 119.480469 89.40625 125.125 C 89.40625 130.605469 88.707031 135.175781 87.3125 138.84375 C 84.644531 145.824219 79.75 149.3125 72.625 149.3125 Z M 69.5 111.03125 C 67.792969 112.363281 66.9375 114.625 66.9375 117.8125 C 66.9375 120.5 67.484375 122.515625 68.578125 123.859375 C 69.671875 125.203125 71.355469 125.875 73.625 125.875 C 74.855469 125.875 76.011719 125.519531 77.09375 124.8125 C 79.113281 123.519531 80.125 121.28125 80.125 118.09375 C 80.125 115.53125 79.527344 113.5 78.328125 112 C 77.128906 110.5 75.488281 109.75 73.40625 109.75 C 71.886719 109.75 70.582031 110.175781 69.5 111.03125 Z M 91.59375 148 " transform="matrix(-1,0.000000000000001102,-0.000000000000001102,-1,336,528)"/>
<path style="fill-rule:nonzero;fill:rgb(1.960784%,10.196078%,20.392157%);fill-opacity:1;stroke-width:1;stroke-linecap:butt;stroke-linejoin:bevel;stroke:rgb(1.960784%,10.196078%,20.392157%);stroke-opacity:1;stroke-miterlimit:10;" d="M 79 160 C 90.597656 160 100 169.402344 100 181 C 100 192.597656 90.597656 202 79 202 L 48 202 L 48 160 Z M 79 160 " transform="matrix(-1,0.000000000000001102,-0.000000000000001102,-1,336,528)"/>
<path style="fill-rule:nonzero;fill:rgb(0%,67.45098%,69.803922%);fill-opacity:1;stroke-width:1.3;stroke-linecap:butt;stroke-linejoin:bevel;stroke:rgb(100%,100%,100%);stroke-opacity:1;stroke-miterlimit:10;" d="M 80.140625 183.898438 L 80.140625 187.382813 L 77.578125 187.382813 L 77.578125 192.257813 L 73.21875 192.257813 L 73.21875 187.382813 L 64.25 187.382813 L 64.25 183.492188 L 72.578125 169.742188 L 77.578125 169.742188 L 77.578125 183.898438 Z M 67.546875 183.898438 L 73.21875 183.898438 L 73.21875 174.117188 Z M 81.203125 192.257813 " transform="matrix(-1,0.000000000000001102,-0.000000000000001102,-1,336,528)"/>
<path style=" stroke:none;fill-rule:nonzero;fill:rgb(0%,67.45098%,69.803922%);fill-opacity:1;" d="M 288 432 C 608 320 208 208 528 96 L 288 96 Z M 288 432 "/>
<path style="fill-rule:nonzero;fill:rgb(1.960784%,17.647059%,29.019608%);fill-opacity:1;stroke-width:1.6;stroke-linecap:butt;stroke-linejoin:bevel;stroke:rgb(100%,100%,100%);stroke-opacity:1;stroke-miterlimit:10;" d="M 329.308594 131.28125 L 329.308594 138.25 L 324.183594 138.25 L 324.183594 148 L 315.464844 148 L 315.464844 138.25 L 297.527344 138.25 L 297.527344 130.46875 L 314.183594 102.96875 L 324.183594 102.96875 L 324.183594 131.28125 Z M 304.121094 131.28125 L 315.464844 131.28125 L 315.464844 111.71875 Z M 331.433594 148 " transform="matrix(1,-0.000000000000001225,0.000000000000001225,1,-0.000000000000483169,0.000000000000625278)"/>
<path style="fill-rule:nonzero;fill:rgb(1.960784%,10.196078%,20.392157%);fill-opacity:1;stroke-width:1;stroke-linecap:butt;stroke-linejoin:bevel;stroke:rgb(1.960784%,10.196078%,20.392157%);stroke-opacity:1;stroke-miterlimit:10;" d="M 319 160 C 330.597656 160 340 169.402344 340 181 C 340 192.597656 330.597656 202 319 202 L 288 202 L 288 160 Z M 319 160 " transform="matrix(1,-0.000000000000001225,0.000000000000001225,1,-0.000000000000483169,0.000000000000625278)"/>
<path style="fill-rule:nonzero;fill:rgb(99.607843%,23.921569%,32.156863%);fill-opacity:1;stroke-width:1.3;stroke-linecap:butt;stroke-linejoin:bevel;stroke:rgb(100%,100%,100%);stroke-opacity:1;stroke-miterlimit:10;" d="M 315.378906 187.78125 L 306.894531 187.78125 L 305.300781 192.515625 L 300.269531 192.515625 L 308.488281 169.484375 L 313.925781 169.484375 L 322.082031 192.515625 L 316.863281 192.515625 Z M 314.035156 183.8125 L 311.160156 174.75 L 308.191406 183.8125 Z M 322.566406 192.515625 " transform="matrix(1,-0.000000000000001225,0.000000000000001225,1,-0.000000000000483169,0.000000000000625278)"/>
<path style=" stroke:none;fill-rule:nonzero;fill:rgb(99.607843%,23.921569%,32.156863%);fill-opacity:1;" d="M 528 96 C 208 208 608 320 288 432 L 528 432 Z M 528 96 "/>
<path style="fill-rule:nonzero;fill:rgb(1.960784%,17.647059%,29.019608%);fill-opacity:1;stroke-width:1.6;stroke-linecap:butt;stroke-linejoin:bevel;stroke:rgb(100%,100%,100%);stroke-opacity:1;stroke-miterlimit:10;" d="M 320.914062 138.53125 L 303.945312 138.53125 L 300.757812 148 L 290.695312 148 L 307.132812 101.9375 L 318.007812 101.9375 L 334.320312 148 L 323.882812 148 Z M 318.226562 130.59375 L 312.476562 112.46875 L 306.539062 130.59375 Z M 335.289062 148 " transform="matrix(-1,0.000000000000001347,-0.000000000000001347,-1,816,528)"/>
<path style="fill-rule:nonzero;fill:rgb(1.960784%,10.196078%,20.392157%);fill-opacity:1;stroke-width:1;stroke-linecap:butt;stroke-linejoin:bevel;stroke:rgb(1.960784%,10.196078%,20.392157%);stroke-opacity:1;stroke-miterlimit:10;" d="M 319 160 C 330.597656 160 340 169.402344 340 181 C 340 192.597656 330.597656 202 319 202 L 288 202 L 288 160 Z M 319 160 " transform="matrix(-1,0.000000000000001347,-0.000000000000001347,-1,816,528)"/>
<path style="fill-rule:nonzero;fill:rgb(0%,67.45098%,69.803922%);fill-opacity:1;stroke-width:1.3;stroke-linecap:butt;stroke-linejoin:bevel;stroke:rgb(100%,100%,100%);stroke-opacity:1;stroke-miterlimit:10;" d="M 320.140625 183.898437 L 320.140625 187.382812 L 317.578125 187.382812 L 317.578125 192.257812 L 313.21875 192.257812 L 313.21875 187.382812 L 304.25 187.382812 L 304.25 183.492187 L 312.578125 169.742187 L 317.578125 169.742187 L 317.578125 183.898437 Z M 307.546875 183.898437 L 313.21875 183.898437 L 313.21875 174.117187 Z M 321.203125 192.257812 " transform="matrix(-1,0.000000000000001347,-0.000000000000001347,-1,816,528)"/>
<path style=" stroke:none;fill-rule:nonzero;fill:rgb(26.27451%,87.058824%,38.431373%);fill-opacity:1;" d="M 528 432 C 848 320 448 208 768 96 L 528 96 Z M 528 432 "/>
<path style="fill-rule:nonzero;fill:rgb(1.960784%,17.647059%,29.019608%);fill-opacity:1;stroke-width:1.6;stroke-linecap:butt;stroke-linejoin:bevel;stroke:rgb(100%,100%,100%);stroke-opacity:1;stroke-miterlimit:10;" d="M 553.152344 125.5 C 552.070313 125.5 551.132813 125.636719 550.339844 125.90625 C 548.945313 126.40625 547.890625 127.332031 547.183594 128.6875 L 539.183594 128.3125 L 542.371094 103.28125 L 567.339844 103.28125 L 567.339844 110.84375 L 548.808594 110.84375 L 547.183594 120.75 C 548.558594 119.855469 549.632813 119.261719 550.402344 118.96875 C 551.695313 118.488281 553.265625 118.25 555.121094 118.25 C 558.871094 118.25 562.140625 119.511719 564.933594 122.03125 C 567.726563 124.550781 569.121094 128.21875 569.121094 133.03125 C 569.121094 137.21875 567.777344 140.957031 565.089844 144.25 C 562.402344 147.542969 558.382813 149.1875 553.027344 149.1875 C 548.714844 149.1875 545.171875 148.03125 542.402344 145.71875 C 539.632813 143.40625 538.089844 140.125 537.777344 135.875 L 546.652344 135.875 C 547.007813 137.8125 547.683594 139.308594 548.683594 140.359375 C 549.683594 141.410156 551.140625 141.9375 553.058594 141.9375 C 555.265625 141.9375 556.949219 141.160156 558.105469 139.609375 C 559.261719 138.058594 559.839844 136.105469 559.839844 133.75 C 559.839844 131.4375 559.296875 129.484375 558.214844 127.890625 C 557.132813 126.296875 555.445313 125.5 553.152344 125.5 Z M 571.683594 148 " transform="matrix(1,-0.00000000000000147,0.00000000000000147,1,-0.000000000000511591,0.000000000000738964)"/>
<path style="fill-rule:nonzero;fill:rgb(1.960784%,10.196078%,20.392157%);fill-opacity:1;stroke-width:1;stroke-linecap:butt;stroke-linejoin:bevel;stroke:rgb(1.960784%,10.196078%,20.392157%);stroke-opacity:1;stroke-miterlimit:10;" d="M 559 160 C 570.597656 160 580 169.402344 580 181 C 580 192.597656 570.597656 202 559 202 L 528 202 L 528 160 Z M 559 160 " transform="matrix(1,-0.00000000000000147,0.00000000000000147,1,-0.000000000000511591,0.000000000000738964)"/>
<path style="fill-rule:nonzero;fill:rgb(82.352941%,98.823529%,29.411765%);fill-opacity:1;stroke-width:1.3;stroke-linecap:butt;stroke-linejoin:bevel;stroke:rgb(100%,100%,100%);stroke-opacity:1;stroke-miterlimit:10;" d="M 553.34375 178.03125 C 555.355469 178.03125 557.003906 178.714844 558.289063 180.078125 C 559.574219 181.441406 560.21875 183.1875 560.21875 185.3125 C 560.21875 187.425781 559.589844 189.292969 558.328125 190.90625 C 557.066406 192.519531 555.109375 193.328125 552.453125 193.328125 C 549.597656 193.328125 547.496094 192.136719 546.140625 189.75 C 545.089844 187.886719 544.5625 185.480469 544.5625 182.53125 C 544.5625 180.800781 544.636719 179.394531 544.78125 178.3125 C 545.042969 176.386719 545.546875 174.78125 546.296875 173.5 C 546.941406 172.40625 547.789063 171.527344 548.835938 170.859375 C 549.882813 170.191406 551.136719 169.859375 552.59375 169.859375 C 554.699219 169.859375 556.375 170.398438 557.625 171.476563 C 558.875 172.554688 559.578125 173.988281 559.734375 175.78125 L 555.296875 175.78125 C 555.296875 175.417969 555.15625 175.015625 554.875 174.578125 C 554.394531 173.871094 553.671875 173.515625 552.703125 173.515625 C 551.253906 173.515625 550.222656 174.328125 549.609375 175.953125 C 549.277344 176.847656 549.046875 178.171875 548.921875 179.921875 C 549.472656 179.265625 550.113281 178.785156 550.84375 178.484375 C 551.574219 178.183594 552.40625 178.03125 553.34375 178.03125 Z M 550.34375 182.28125 C 549.46875 182.957031 549.03125 184.050781 549.03125 185.5625 C 549.03125 186.78125 549.359375 187.777344 550.015625 188.546875 C 550.671875 189.316406 551.503906 189.703125 552.515625 189.703125 C 553.503906 189.703125 554.285156 189.332031 554.851563 188.585938 C 555.417969 187.839844 555.703125 186.875 555.703125 185.6875 C 555.703125 184.363281 555.378906 183.351563 554.734375 182.648438 C 554.089844 181.945313 553.296875 181.59375 552.359375 181.59375 C 551.597656 181.59375 550.925781 181.824219 550.34375 182.28125 Z M 561.359375 192.734375 " transform="matrix(1,-0.00000000000000147,0.00000000000000147,1,-0.000000000000511591,0.000000000000738964)"/>
<path style=" stroke:none;fill-rule:nonzero;fill:rgb(82.352941%,98.823529%,29.411765%);fill-opacity:1;" d="M 768 96 C 448 208 848 320 528 432 L 768 432 Z M 768 96 "/>
<path style="fill-rule:nonzero;fill:rgb(1.960784%,17.647059%,29.019608%);fill-opacity:1;stroke-width:1.6;stroke-linecap:butt;stroke-linejoin:bevel;stroke:rgb(100%,100%,100%);stroke-opacity:1;stroke-miterlimit:10;" d="M 555.667969 118.59375 C 559.6875 118.59375 562.984375 119.957031 565.558594 122.6875 C 568.132812 125.417969 569.417969 128.90625 569.417969 133.15625 C 569.417969 137.386719 568.15625 141.113281 565.636719 144.34375 C 563.117187 147.574219 559.199219 149.1875 553.886719 149.1875 C 548.179687 149.1875 543.96875 146.800781 541.261719 142.03125 C 539.15625 138.300781 538.105469 133.488281 538.105469 127.59375 C 538.105469 124.136719 538.25 121.324219 538.542969 119.15625 C 539.0625 115.300781 540.074219 112.09375 541.574219 109.53125 C 542.867187 107.34375 544.558594 105.582031 546.652344 104.25 C 548.746094 102.917969 551.25 102.25 554.167969 102.25 C 558.375 102.25 561.730469 103.328125 564.230469 105.484375 C 566.730469 107.640625 568.136719 110.511719 568.449219 114.09375 L 559.574219 114.09375 C 559.574219 113.363281 559.292969 112.5625 558.730469 111.6875 C 557.773437 110.269531 556.324219 109.5625 554.386719 109.5625 C 551.492187 109.5625 549.429687 111.1875 548.199219 114.4375 C 547.53125 116.230469 547.074219 118.875 546.824219 122.375 C 547.929687 121.0625 549.210937 120.105469 550.667969 119.5 C 552.125 118.894531 553.792969 118.59375 555.667969 118.59375 Z M 549.667969 127.09375 C 547.917969 128.449219 547.042969 130.636719 547.042969 133.65625 C 547.042969 136.09375 547.699219 138.082031 549.011719 139.625 C 550.324219 141.167969 551.992187 141.9375 554.011719 141.9375 C 555.992187 141.9375 557.546875 141.191406 558.683594 139.703125 C 559.820312 138.214844 560.386719 136.28125 560.386719 133.90625 C 560.386719 131.261719 559.742187 129.234375 558.449219 127.828125 C 557.15625 126.421875 555.574219 125.71875 553.699219 125.71875 C 552.179687 125.71875 550.835937 126.175781 549.667969 127.09375 Z M 571.699219 148 " transform="matrix(-1,0.000000000000001592,-0.000000000000001592,-1,1296,528)"/>
<path style="fill-rule:nonzero;fill:rgb(1.960784%,10.196078%,20.392157%);fill-opacity:1;stroke-width:1;stroke-linecap:butt;stroke-linejoin:bevel;stroke:rgb(1.960784%,10.196078%,20.392157%);stroke-opacity:1;stroke-miterlimit:10;" d="M 559 160 C 570.597656 160 580 169.402344 580 181 C 580 192.597656 570.597656 202 559 202 L 528 202 L 528 160 Z M 559 160 " transform="matrix(-1,0.000000000000001592,-0.000000000000001592,-1,1296,528)"/>
<path style="fill-rule:nonzero;fill:rgb(26.27451%,87.058824%,38.431373%);fill-opacity:1;stroke-width:1.3;stroke-linecap:butt;stroke-linejoin:bevel;stroke:rgb(100%,100%,100%);stroke-opacity:1;stroke-miterlimit:10;" d="M 552.082031 181.226562 C 551.539062 181.226562 551.070312 181.292969 550.675781 181.429687 C 549.976562 181.679687 549.453125 182.144531 549.097656 182.820312 L 545.097656 182.632812 L 546.691406 170.117187 L 559.175781 170.117187 L 559.175781 173.898437 L 549.910156 173.898437 L 549.097656 178.851562 C 549.785156 178.402344 550.320312 178.105469 550.707031 177.960937 C 551.351562 177.722656 552.140625 177.601562 553.066406 177.601562 C 554.941406 177.601562 556.578125 178.230469 557.972656 179.492187 C 559.367187 180.753906 560.066406 182.585937 560.066406 184.992187 C 560.066406 187.085937 559.394531 188.957031 558.050781 190.601562 C 556.707031 192.246094 554.695312 193.070312 552.019531 193.070312 C 549.863281 193.070312 548.09375 192.492187 546.707031 191.335937 C 545.320312 190.179687 544.550781 188.539062 544.394531 186.414062 L 548.832031 186.414062 C 549.007812 187.382812 549.347656 188.128906 549.847656 188.65625 C 550.347656 189.183594 551.078125 189.445312 552.035156 189.445312 C 553.140625 189.445312 553.980469 189.058594 554.558594 188.28125 C 555.136719 187.503906 555.425781 186.527344 555.425781 185.351562 C 555.425781 184.195312 555.15625 183.21875 554.613281 182.421875 C 554.070312 181.625 553.226562 181.226562 552.082031 181.226562 Z M 561.347656 192.476562 " transform="matrix(-1,0.000000000000001592,-0.000000000000001592,-1,1296,528)"/>
<path style=" stroke:none;fill-rule:nonzero;fill:rgb(26.27451%,87.058824%,38.431373%);fill-opacity:1;" d="M 768 432 C 1088 320 688 208 1008 96 L 768 96 Z M 768 432 "/>
<path style="fill-rule:nonzero;fill:rgb(1.960784%,17.647059%,29.019608%);fill-opacity:1;stroke-width:1.6;stroke-linecap:butt;stroke-linejoin:bevel;stroke:rgb(100%,100%,100%);stroke-opacity:1;stroke-miterlimit:10;" d="M 793.152344 125.5 C 792.070313 125.5 791.132813 125.636719 790.339844 125.90625 C 788.945313 126.40625 787.890625 127.332031 787.183594 128.6875 L 779.183594 128.3125 L 782.371094 103.28125 L 807.339844 103.28125 L 807.339844 110.84375 L 788.808594 110.84375 L 787.183594 120.75 C 788.558594 119.855469 789.632813 119.261719 790.402344 118.96875 C 791.695313 118.488281 793.265625 118.25 795.121094 118.25 C 798.871094 118.25 802.140625 119.511719 804.933594 122.03125 C 807.726563 124.550781 809.121094 128.21875 809.121094 133.03125 C 809.121094 137.21875 807.777344 140.957031 805.089844 144.25 C 802.402344 147.542969 798.382813 149.1875 793.027344 149.1875 C 788.714844 149.1875 785.171875 148.03125 782.402344 145.71875 C 779.632813 143.40625 778.089844 140.125 777.777344 135.875 L 786.652344 135.875 C 787.007813 137.8125 787.683594 139.308594 788.683594 140.359375 C 789.683594 141.410156 791.140625 141.9375 793.058594 141.9375 C 795.265625 141.9375 796.949219 141.160156 798.105469 139.609375 C 799.261719 138.058594 799.839844 136.105469 799.839844 133.75 C 799.839844 131.4375 799.296875 129.484375 798.214844 127.890625 C 797.132813 126.296875 795.445313 125.5 793.152344 125.5 Z M 811.683594 148 " transform="matrix(1,-0.000000000000001715,0.000000000000001715,1,-0.000000000000682121,0.000000000000909495)"/>
<path style="fill-rule:nonzero;fill:rgb(1.960784%,10.196078%,20.392157%);fill-opacity:1;stroke-width:1;stroke-linecap:butt;stroke-linejoin:bevel;stroke:rgb(1.960784%,10.196078%,20.392157%);stroke-opacity:1;stroke-miterlimit:10;" d="M 799 160 C 810.597656 160 820 169.402344 820 181 C 820 192.597656 810.597656 202 799 202 L 768 202 L 768 160 Z M 799 160 " transform="matrix(1,-0.000000000000001715,0.000000000000001715,1,-0.000000000000682121,0.000000000000909495)"/>
<path style="fill-rule:nonzero;fill:rgb(99.607843%,92.54902%,1.568627%);fill-opacity:1;stroke-width:1.3;stroke-linecap:butt;stroke-linejoin:bevel;stroke:rgb(100%,100%,100%);stroke-opacity:1;stroke-miterlimit:10;" d="M 797.386719 176.804688 C 796.199219 178.492188 795.203125 180.230469 794.402344 182.023438 C 793.765625 183.429688 793.195313 185.148438 792.683594 187.179688 C 792.171875 189.210938 791.917969 190.878906 791.917969 192.179688 L 787.292969 192.179688 C 787.429688 188.117188 788.761719 183.894531 791.292969 179.507813 C 792.929688 176.789063 794.296875 174.894531 795.402344 173.820313 L 784.105469 173.820313 L 784.167969 169.820313 L 800.167969 169.820313 L 800.167969 173.304688 C 799.5 173.960938 798.574219 175.128906 797.386719 176.804688 Z M 801.089844 192.179688 " transform="matrix(1,-0.000000000000001715,0.000000000000001715,1,-0.000000000000682121,0.000000000000909495)"/>
<path style=" stroke:none;fill-rule:nonzero;fill:rgb(99.607843%,92.54902%,1.568627%);fill-opacity:1;" d="M 1008 96 C 688 208 1088 320 768 432 L 1008 432 Z M 1008 96 "/>
<path style="fill-rule:nonzero;fill:rgb(1.960784%,17.647059%,29.019608%);fill-opacity:1;stroke-width:1.6;stroke-linecap:butt;stroke-linejoin:bevel;stroke:rgb(100%,100%,100%);stroke-opacity:1;stroke-miterlimit:10;" d="M 803.832031 117.25 C 801.457031 120.625 799.46875 124.105469 797.863281 127.6875 C 796.59375 130.5 795.445312 133.9375 794.425781 138 C 793.40625 142.0625 792.894531 145.394531 792.894531 148 L 783.644531 148 C 783.914062 139.875 786.582031 131.425781 791.644531 122.65625 C 794.914062 117.21875 797.65625 113.425781 799.863281 111.28125 L 777.269531 111.28125 L 777.394531 103.28125 L 809.394531 103.28125 L 809.394531 110.25 C 808.0625 111.5625 806.207031 113.894531 803.832031 117.25 Z M 811.238281 148 " transform="matrix(-1,0.000000000000001837,-0.000000000000001837,-1,1776,528)"/>
<path style="fill-rule:nonzero;fill:rgb(1.960784%,10.196078%,20.392157%);fill-opacity:1;stroke-width:1;stroke-linecap:butt;stroke-linejoin:bevel;stroke:rgb(1.960784%,10.196078%,20.392157%);stroke-opacity:1;stroke-miterlimit:10;" d="M 799 160 C 810.597656 160 820 169.402344 820 181 C 820 192.597656 810.597656 202 799 202 L 768 202 L 768 160 Z M 799 160 " transform="matrix(-1,0.000000000000001837,-0.000000000000001837,-1,1776,528)"/>
<path style="fill-rule:nonzero;fill:rgb(26.27451%,87.058824%,38.431373%);fill-opacity:1;stroke-width:1.3;stroke-linecap:butt;stroke-linejoin:bevel;stroke:rgb(100%,100%,100%);stroke-opacity:1;stroke-miterlimit:10;" d="M 792.082031 181.226562 C 791.539062 181.226562 791.070312 181.292969 790.675781 181.429687 C 789.976562 181.679687 789.453125 182.144531 789.097656 182.820312 L 785.097656 182.632812 L 786.691406 170.117187 L 799.175781 170.117187 L 799.175781 173.898437 L 789.910156 173.898437 L 789.097656 178.851562 C 789.785156 178.402344 790.320312 178.105469 790.707031 177.960937 C 791.351562 177.722656 792.140625 177.601562 793.066406 177.601562 C 794.941406 177.601562 796.578125 178.230469 797.972656 179.492187 C 799.367187 180.753906 800.066406 182.585937 800.066406 184.992187 C 800.066406 187.085937 799.394531 188.957031 798.050781 190.601562 C 796.707031 192.246094 794.695312 193.070312 792.019531 193.070312 C 789.863281 193.070312 788.09375 192.492187 786.707031 191.335937 C 785.320312 190.179687 784.550781 188.539062 784.394531 186.414062 L 788.832031 186.414062 C 789.007812 187.382812 789.347656 188.128906 789.847656 188.65625 C 790.347656 189.183594 791.078125 189.445312 792.035156 189.445312 C 793.140625 189.445312 793.980469 189.058594 794.558594 188.28125 C 795.136719 187.503906 795.425781 186.527344 795.425781 185.351562 C 795.425781 184.195312 795.15625 183.21875 794.613281 182.421875 C 794.070312 181.625 793.226562 181.226562 792.082031 181.226562 Z M 801.347656 192.476562 " transform="matrix(-1,0.000000000000001837,-0.000000000000001837,-1,1776,528)"/>
</g>
</svg>
