<?xml version="1.0" encoding="UTF-8"?>
<svg xmlns="http://www.w3.org/2000/svg" xmlns:xlink="http://www.w3.org/1999/xlink" width="1056pt" height="816pt" viewBox="0 0 1056 816" version="1.1">
<g id="surface24">
<path style=" stroke:none;fill-rule:nonzero;fill:rgb(99.607843%,92.54902%,1.568627%);fill-opacity:1;" d="M 48 768 C 368 656 -32 544 288 432 L 48 432 Z M 48 768 "/>
<path style="fill-rule:nonzero;fill:rgb(1.960784%,17.647059%,29.019608%);fill-opacity:1;stroke-width:1.6;stroke-linecap:butt;stroke-linejoin:bevel;stroke:rgb(100%,100%,100%);stroke-opacity:1;stroke-miterlimit:10;" d="M 83.832031 453.25 C 81.457031 456.625 79.46875 460.105469 77.863281 463.6875 C 76.59375 466.5 75.445312 469.9375 74.425781 474 C 73.40625 478.0625 72.894531 481.394531 72.894531 484 L 63.644531 484 C 63.914062 475.875 66.582031 467.425781 71.644531 458.65625 C 74.914062 453.21875 77.65625 449.425781 79.863281 447.28125 L 57.269531 447.28125 L 57.394531 439.28125 L 89.394531 439.28125 L 89.394531 446.25 C 88.0625 447.5625 86.207031 449.894531 83.832031 453.25 Z M 91.238281 484 "/>
<path style="fill-rule:nonzero;fill:rgb(1.960784%,10.196078%,20.392157%);fill-opacity:1;stroke-width:1;stroke-linecap:butt;stroke-linejoin:bevel;stroke:rgb(1.960784%,10.196078%,20.392157%);stroke-opacity:1;stroke-miterlimit:10;" d="M 79 496 C 90.597656 496 100 505.402344 100 517 C 100 528.597656 90.597656 538 79 538 L 48 538 L 48 496 Z M 79 496 "/>
<path style="fill-rule:nonzero;fill:rgb(95.686275%,45.882353%,0.392157%);fill-opacity:1;stroke-width:1.3;stroke-linecap:butt;stroke-linejoin:bevel;stroke:rgb(100%,100%,100%);stroke-opacity:1;stroke-miterlimit:10;" d="M 71.8125 529.40625 C 70.113281 529.40625 68.589844 528.902344 67.234375 527.898438 C 65.878906 526.894531 65.105469 525.425781 64.90625 523.5 L 69.34375 523.5 C 69.449219 524.167969 69.730469 524.707031 70.1875 525.125 C 70.644531 525.542969 71.253906 525.75 72.015625 525.75 C 73.484375 525.75 74.515625 524.9375 75.109375 523.3125 C 75.433594 522.417969 75.636719 521.109375 75.71875 519.390625 C 75.3125 519.902344 74.878906 520.292969 74.421875 520.5625 C 73.589844 521.0625 72.5625 521.3125 71.34375 521.3125 C 69.542969 521.3125 67.941406 520.691406 66.546875 519.445312 C 65.152344 518.199219 64.453125 516.40625 64.453125 514.0625 C 64.453125 511.636719 65.152344 509.667969 66.554688 508.164062 C 67.957031 506.660156 69.777344 505.90625 72.015625 505.90625 C 75.464844 505.90625 77.828125 507.433594 79.109375 510.484375 C 79.839844 512.214844 80.203125 514.488281 80.203125 517.3125 C 80.203125 520.050781 79.855469 522.339844 79.15625 524.171875 C 77.824219 527.660156 75.375 529.40625 71.8125 529.40625 Z M 70.25 510.265625 C 69.394531 510.933594 68.96875 512.0625 68.96875 513.65625 C 68.96875 515 69.242188 516.007812 69.789062 516.679688 C 70.335938 517.351562 71.175781 517.6875 72.3125 517.6875 C 72.925781 517.6875 73.503906 517.511719 74.046875 517.15625 C 75.058594 516.511719 75.5625 515.390625 75.5625 513.796875 C 75.5625 512.515625 75.261719 511.5 74.664062 510.75 C 74.066406 510 73.246094 509.625 72.203125 509.625 C 71.441406 509.625 70.792969 509.839844 70.25 510.265625 Z M 81.296875 528.75 "/>
<path style=" stroke:none;fill-rule:nonzero;fill:rgb(95.686275%,45.882353%,0.392157%);fill-opacity:1;" d="M 288 432 C -32 544 368 656 48 768 L 288 768 Z M 288 432 "/>
<path style="fill-rule:nonzero;fill:rgb(1.960784%,17.647059%,29.019608%);fill-opacity:1;stroke-width:1.6;stroke-linecap:butt;stroke-linejoin:bevel;stroke:rgb(100%,100%,100%);stroke-opacity:1;stroke-miterlimit:10;" d="M 72.625 485.3125 C 69.230469 485.3125 66.175781 484.308594 63.46875 482.296875 C 60.761719 480.285156 59.207031 477.355469 58.8125 473.5 L 67.6875 473.5 C 67.894531 474.832031 68.457031 475.917969 69.375 476.75 C 70.292969 477.582031 71.511719 478 73.03125 478 C 75.96875 478 78.03125 476.375 79.21875 473.125 C 79.863281 471.332031 80.269531 468.71875 80.4375 465.28125 C 79.625 466.300781 78.761719 467.082031 77.84375 467.625 C 76.175781 468.625 74.125 469.125 71.6875 469.125 C 68.082031 469.125 64.886719 467.878906 62.09375 465.390625 C 59.300781 462.902344 57.90625 459.3125 57.90625 454.625 C 57.90625 449.769531 59.308594 445.839844 62.109375 442.828125 C 64.910156 439.816406 68.550781 438.3125 73.03125 438.3125 C 79.925781 438.3125 84.65625 441.363281 87.21875 447.46875 C 88.675781 450.925781 89.40625 455.480469 89.40625 461.125 C 89.40625 466.605469 88.707031 471.175781 87.3125 474.84375 C 84.644531 481.824219 79.75 485.3125 72.625 485.3125 Z M 69.5 447.03125 C 67.792969 448.363281 66.9375 450.625 66.9375 453.8125 C 66.9375 456.5 67.484375 458.515625 68.578125 459.859375 C 69.671875 461.203125 71.355469 461.875 73.625 461.875 C 74.855469 461.875 76.011719 461.519531 77.09375 460.8125 C 79.113281 459.519531 80.125 457.28125 80.125 454.09375 C 80.125 451.53125 79.527344 449.5 78.328125 448 C 77.128906 446.5 75.488281 445.75 73.40625 445.75 C 71.886719 445.75 70.582031 446.175781 69.5 447.03125 Z M 91.59375 484 " transform="matrix(-1,0.000000000000000122,-0.000000000000000122,-1,336,1200)"/>
<path style="fill-rule:nonzero;fill:rgb(1.960784%,10.196078%,20.392157%);fill-opacity:1;stroke-width:1;stroke-linecap:butt;stroke-linejoin:bevel;stroke:rgb(1.960784%,10.196078%,20.392157%);stroke-opacity:1;stroke-miterlimit:10;" d="M 79 496 C 90.597656 496 100 505.402344 100 517 C 100 528.597656 90.597656 538 79 538 L 48 538 L 48 496 Z M 79 496 " transform="matrix(-1,0.000000000000000122,-0.000000000000000122,-1,336,1200)"/>
<path style="fill-rule:nonzero;fill:rgb(99.607843%,92.54902%,1.568627%);fill-opacity:1;stroke-width:1.3;stroke-linecap:butt;stroke-linejoin:bevel;stroke:rgb(100%,100%,100%);stroke-opacity:1;stroke-miterlimit:10;" d="M 77.386719 512.804688 C 76.199219 514.492188 75.203125 516.230469 74.402344 518.023438 C 73.765625 519.429688 73.195312 521.148438 72.683594 523.179688 C 72.171875 525.210938 71.917969 526.878906 71.917969 528.179688 L 67.292969 528.179688 C 67.429687 524.117188 68.761719 519.894531 71.292969 515.507812 C 72.929687 512.789062 74.296875 510.894531 75.402344 509.820312 L 64.105469 509.820312 L 64.167969 505.820312 L 80.167969 505.820312 L 80.167969 509.304688 C 79.5 509.960938 78.574219 511.128906 77.386719 512.804688 Z M 81.089844 528.179688 " transform="matrix(-1,0.000000000000000122,-0.000000000000000122,-1,336,1200)"/>
<path style=" stroke:none;fill-rule:nonzero;fill:rgb(99.607843%,92.54902%,1.568627%);fill-opacity:1;" d="M 288 768 C 608 656 208 544 528 432 L 288 432 Z M 288 768 "/>
<path style="fill-rule:nonzero;fill:rgb(1.960784%,17.647059%,29.019608%);fill-opacity:1;stroke-width:1.6;stroke-linecap:butt;stroke-linejoin:bevel;stroke:rgb(100%,100%,100%);stroke-opacity:1;stroke-miterlimit:10;" d="M 323.832031 453.25 C 321.457031 456.625 319.46875 460.105469 317.863281 463.6875 C 316.59375 466.5 315.445313 469.9375 314.425781 474 C 313.40625 478.0625 312.894531 481.394531 312.894531 484 L 303.644531 484 C 303.914063 475.875 306.582031 467.425781 311.644531 458.65625 C 314.914063 453.21875 317.65625 449.425781 319.863281 447.28125 L 297.269531 447.28125 L 297.394531 439.28125 L 329.394531 439.28125 L 329.394531 446.25 C 328.0625 447.5625 326.207031 449.894531 323.832031 453.25 Z M 331.238281 484 " transform="matrix(1,-0.000000000000000245,0.000000000000000245,1,-0.000000000000113687,0)"/>
<path style="fill-rule:nonzero;fill:rgb(1.960784%,10.196078%,20.392157%);fill-opacity:1;stroke-width:1;stroke-linecap:butt;stroke-linejoin:bevel;stroke:rgb(1.960784%,10.196078%,20.392157%);stroke-opacity:1;stroke-miterlimit:10;" d="M 319 496 C 330.597656 496 340 505.402344 340 517 C 340 528.597656 330.597656 538 319 538 L 288 538 L 288 496 Z M 319 496 " transform="matrix(1,-0.000000000000000245,0.000000000000000245,1,-0.000000000000113687,0)"/>
<path style="fill-rule:nonzero;fill:rgb(99.607843%,23.921569%,32.156863%);fill-opacity:1;stroke-width:1.3;stroke-linecap:butt;stroke-linejoin:bevel;stroke:rgb(100%,100%,100%);stroke-opacity:1;stroke-miterlimit:10;" d="M 315.378906 523.78125 L 306.894531 523.78125 L 305.300781 528.515625 L 300.269531 528.515625 L 308.488281 505.484375 L 313.925781 505.484375 L 322.082031 528.515625 L 316.863281 528.515625 Z M 314.035156 519.8125 L 311.160156 510.75 L 308.191406 519.8125 Z M 322.566406 528.515625 " transform="matrix(1,-0.000000000000000245,0.000000000000000245,1,-0.000000000000113687,0)"/>
<path style=" stroke:none;fill-rule:nonzero;fill:rgb(99.607843%,23.921569%,32.156863%);fill-opacity:1;" d="M 528 432 C 208 544 608 656 288 768 L 528 768 Z M 528 432 "/>
<path style="fill-rule:nonzero;fill:rgb(1.960784%,17.647059%,29.019608%);fill-opacity:1;stroke-width:1.6;stroke-linecap:butt;stroke-linejoin:bevel;stroke:rgb(100%,100%,100%);stroke-opacity:1;stroke-miterlimit:10;" d="M 320.914063 474.53125 L 303.945312 474.53125 L 300.757812 484 L 290.695312 484 L 307.132813 437.9375 L 318.007813 437.9375 L 334.320313 484 L 323.882813 484 Z M 318.226563 466.59375 L 312.476563 448.46875 L 306.539063 466.59375 Z M 335.289063 484 " transform="matrix(-1,0.000000000000000367,-0.000000000000000367,-1,816,1200)"/>
<path style="fill-rule:nonzero;fill:rgb(1.960784%,10.196078%,20.392157%);fill-opacity:1;stroke-width:1;stroke-linecap:butt;stroke-linejoin:bevel;stroke:rgb(1.960784%,10.196078%,20.392157%);stroke-opacity:1;stroke-miterlimit:10;" d="M 319 496 C 330.597656 496 340 505.402344 340 517 C 340 528.597656 330.597656 538 319 538 L 288 538 L 288 496 Z M 319 496 " transform="matrix(-1,0.000000000000000367,-0.000000000000000367,-1,816,1200)"/>
<path style="fill-rule:nonzero;fill:rgb(99.607843%,92.54902%,1.568627%);fill-opacity:1;stroke-width:1.3;stroke-linecap:butt;stroke-linejoin:bevel;stroke:rgb(100%,100%,100%);stroke-opacity:1;stroke-miterlimit:10;" d="M 317.386719 512.804687 C 316.199219 514.492187 315.203125 516.230469 314.402344 518.023437 C 313.765625 519.429687 313.195312 521.148437 312.683594 523.179687 C 312.171875 525.210937 311.917969 526.878906 311.917969 528.179687 L 307.292969 528.179687 C 307.429688 524.117187 308.761719 519.894531 311.292969 515.507812 C 312.929688 512.789062 314.296875 510.894531 315.402344 509.820312 L 304.105469 509.820312 L 304.167969 505.820312 L 320.167969 505.820312 L 320.167969 509.304687 C 319.5 509.960937 318.574219 511.128906 317.386719 512.804687 Z M 321.089844 528.179687 " transform="matrix(-1,0.000000000000000367,-0.000000000000000367,-1,816,1200)"/>
<path style=" stroke:none;fill-rule:nonzero;fill:rgb(100%,85.490196%,28.627451%);fill-opacity:1;" d="M 528 768 C 848 656 448 544 768 432 L 528 432 Z M 528 768 "/>
<path style="fill-rule:nonzero;fill:rgb(1.960784%,17.647059%,29.019608%);fill-opacity:1;stroke-width:1.6;stroke-linecap:butt;stroke-linejoin:bevel;stroke:rgb(100%,100%,100%);stroke-opacity:1;stroke-miterlimit:10;" d="M 541.613281 481.15625 C 539.007812 478.488281 537.707031 475.25 537.707031 471.4375 C 537.707031 468.894531 538.285156 466.59375 539.441406 464.53125 C 540.597656 462.46875 542.289062 460.917969 544.519531 459.875 C 542.332031 458.417969 540.910156 456.839844 540.253906 455.140625 C 539.597656 453.441406 539.269531 451.855469 539.269531 450.375 C 539.269531 447.082031 540.507812 444.277344 542.988281 441.953125 C 545.46875 439.628906 548.96875 438.46875 553.488281 438.46875 C 558.007812 438.46875 561.507812 439.628906 563.988281 441.953125 C 566.46875 444.277344 567.707031 447.082031 567.707031 450.375 C 567.707031 451.855469 567.378906 453.441406 566.722656 455.140625 C 566.066406 456.839844 564.644531 458.3125 562.457031 459.5625 C 564.6875 460.8125 566.363281 462.46875 567.488281 464.53125 C 568.613281 466.59375 569.175781 468.894531 569.175781 471.4375 C 569.175781 475.25 567.765625 478.496094 564.941406 481.171875 C 562.117188 483.847656 558.175781 485.1875 553.113281 485.1875 C 548.050781 485.1875 544.21875 483.84375 541.613281 481.15625 Z M 546.957031 470.84375 C 546.957031 473.074219 547.535156 474.800781 548.691406 476.03125 C 549.847656 477.261719 551.445312 477.875 553.488281 477.875 C 555.53125 477.875 557.128906 477.261719 558.285156 476.03125 C 559.441406 474.800781 560.019531 473.074219 560.019531 470.84375 C 560.019531 468.53125 559.429688 466.777344 558.253906 465.578125 C 557.078125 464.378906 555.488281 463.78125 553.488281 463.78125 C 551.488281 463.78125 549.898438 464.378906 548.722656 465.578125 C 547.546875 466.777344 546.957031 468.53125 546.957031 470.84375 Z M 549.300781 455.40625 C 550.300781 456.449219 551.695312 456.96875 553.488281 456.96875 C 555.300781 456.96875 556.703125 456.449219 557.691406 455.40625 C 558.679688 454.363281 559.175781 453.019531 559.175781 451.375 C 559.175781 449.582031 558.679688 448.183594 557.691406 447.171875 C 556.703125 446.160156 555.300781 445.65625 553.488281 445.65625 C 551.695312 445.65625 550.296875 446.160156 549.285156 447.171875 C 548.273438 448.183594 547.769531 449.582031 547.769531 451.375 C 547.769531 453.019531 548.28125 454.363281 549.300781 455.40625 Z M 571.613281 484 " transform="matrix(1,-0.00000000000000049,0.00000000000000049,1,-0.000000000000284217,0.000000000000113687)"/>
<path style="fill-rule:nonzero;fill:rgb(1.960784%,10.196078%,20.392157%);fill-opacity:1;stroke-width:1;stroke-linecap:butt;stroke-linejoin:bevel;stroke:rgb(1.960784%,10.196078%,20.392157%);stroke-opacity:1;stroke-miterlimit:10;" d="M 559 496 C 570.597656 496 580 505.402344 580 517 C 580 528.597656 570.597656 538 559 538 L 528 538 L 528 496 Z M 559 496 " transform="matrix(1,-0.00000000000000049,0.00000000000000049,1,-0.000000000000284217,0.000000000000113687)"/>
<path style="fill-rule:nonzero;fill:rgb(95.686275%,45.882353%,0.392157%);fill-opacity:1;stroke-width:1.3;stroke-linecap:butt;stroke-linejoin:bevel;stroke:rgb(100%,100%,100%);stroke-opacity:1;stroke-miterlimit:10;" d="M 551.8125 529.40625 C 550.113281 529.40625 548.589844 528.902344 547.234375 527.898438 C 545.878906 526.894531 545.105469 525.425781 544.90625 523.5 L 549.34375 523.5 C 549.449219 524.167969 549.730469 524.707031 550.1875 525.125 C 550.644531 525.542969 551.253906 525.75 552.015625 525.75 C 553.484375 525.75 554.515625 524.9375 555.109375 523.3125 C 555.433594 522.417969 555.636719 521.109375 555.71875 519.390625 C 555.3125 519.902344 554.878906 520.292969 554.421875 520.5625 C 553.589844 521.0625 552.5625 521.3125 551.34375 521.3125 C 549.542969 521.3125 547.941406 520.691406 546.546875 519.445313 C 545.152344 518.199219 544.453125 516.40625 544.453125 514.0625 C 544.453125 511.636719 545.152344 509.667969 546.554688 508.164063 C 547.957031 506.660156 549.777344 505.90625 552.015625 505.90625 C 555.464844 505.90625 557.828125 507.433594 559.109375 510.484375 C 559.839844 512.214844 560.203125 514.488281 560.203125 517.3125 C 560.203125 520.050781 559.855469 522.339844 559.15625 524.171875 C 557.824219 527.660156 555.375 529.40625 551.8125 529.40625 Z M 550.25 510.265625 C 549.394531 510.933594 548.96875 512.0625 548.96875 513.65625 C 548.96875 515 549.242188 516.007813 549.789062 516.679688 C 550.335938 517.351563 551.175781 517.6875 552.3125 517.6875 C 552.925781 517.6875 553.503906 517.511719 554.046875 517.15625 C 555.058594 516.511719 555.5625 515.390625 555.5625 513.796875 C 555.5625 512.515625 555.261719 511.5 554.664062 510.75 C 554.066406 510 553.246094 509.625 552.203125 509.625 C 551.441406 509.625 550.792969 509.839844 550.25 510.265625 Z M 561.296875 528.75 " transform="matrix(1,-0.00000000000000049,0.00000000000000049,1,-0.000000000000284217,0.000000000000113687)"/>
<path style=" stroke:none;fill-rule:nonzero;fill:rgb(95.686275%,45.882353%,0.392157%);fill-opacity:1;" d="M 768 432 C 448 544 848 656 528 768 L 768 768 Z M 768 432 "/>
<path style="fill-rule:nonzero;fill:rgb(1.960784%,17.647059%,29.019608%);fill-opacity:1;stroke-width:1.6;stroke-linecap:butt;stroke-linejoin:bevel;stroke:rgb(100%,100%,100%);stroke-opacity:1;stroke-miterlimit:10;" d="M 552.625 485.3125 C 549.230469 485.3125 546.175781 484.308594 543.46875 482.296875 C 540.761719 480.285156 539.207031 477.355469 538.8125 473.5 L 547.6875 473.5 C 547.894531 474.832031 548.457031 475.917969 549.375 476.75 C 550.292969 477.582031 551.511719 478 553.03125 478 C 555.96875 478 558.03125 476.375 559.21875 473.125 C 559.863281 471.332031 560.269531 468.71875 560.4375 465.28125 C 559.625 466.300781 558.761719 467.082031 557.84375 467.625 C 556.175781 468.625 554.125 469.125 551.6875 469.125 C 548.082031 469.125 544.886719 467.878906 542.09375 465.390625 C 539.300781 462.902344 537.90625 459.3125 537.90625 454.625 C 537.90625 449.769531 539.308594 445.839844 542.109375 442.828125 C 544.910156 439.816406 548.550781 438.3125 553.03125 438.3125 C 559.925781 438.3125 564.65625 441.363281 567.21875 447.46875 C 568.675781 450.925781 569.40625 455.480469 569.40625 461.125 C 569.40625 466.605469 568.707031 471.175781 567.3125 474.84375 C 564.644531 481.824219 559.75 485.3125 552.625 485.3125 Z M 549.5 447.03125 C 547.792969 448.363281 546.9375 450.625 546.9375 453.8125 C 546.9375 456.5 547.484375 458.515625 548.578125 459.859375 C 549.671875 461.203125 551.355469 461.875 553.625 461.875 C 554.855469 461.875 556.011719 461.519531 557.09375 460.8125 C 559.113281 459.519531 560.125 457.28125 560.125 454.09375 C 560.125 451.53125 559.527344 449.5 558.328125 448 C 557.128906 446.5 555.488281 445.75 553.40625 445.75 C 551.886719 445.75 550.582031 446.175781 549.5 447.03125 Z M 571.59375 484 " transform="matrix(-1,0.000000000000000612,-0.000000000000000612,-1,1296,1200)"/>
<path style="fill-rule:nonzero;fill:rgb(1.960784%,10.196078%,20.392157%);fill-opacity:1;stroke-width:1;stroke-linecap:butt;stroke-linejoin:bevel;stroke:rgb(1.960784%,10.196078%,20.392157%);stroke-opacity:1;stroke-miterlimit:10;" d="M 559 496 C 570.597656 496 580 505.402344 580 517 C 580 528.597656 570.597656 538 559 538 L 528 538 L 528 496 Z M 559 496 " transform="matrix(-1,0.000000000000000612,-0.000000000000000612,-1,1296,1200)"/>
<path style="fill-rule:nonzero;fill:rgb(100%,85.490196%,28.627451%);fill-opacity:1;stroke-width:1.3;stroke-linecap:butt;stroke-linejoin:bevel;stroke:rgb(100%,100%,100%);stroke-opacity:1;stroke-miterlimit:10;" d="M 546.308594 527.257812 C 545.007812 525.925781 544.355469 524.304687 544.355469 522.398437 C 544.355469 521.128906 544.644531 519.976562 545.222656 518.945312 C 545.800781 517.914062 546.648438 517.136719 547.761719 516.617187 C 546.667969 515.886719 545.957031 515.097656 545.628906 514.25 C 545.300781 513.402344 545.136719 512.605469 545.136719 511.867187 C 545.136719 510.222656 545.757812 508.816406 546.996094 507.65625 C 548.234375 506.496094 549.984375 505.914062 552.246094 505.914062 C 554.507812 505.914062 556.257812 506.496094 557.496094 507.65625 C 558.734375 508.816406 559.355469 510.222656 559.355469 511.867187 C 559.355469 512.605469 559.191406 513.402344 558.863281 514.25 C 558.535156 515.097656 557.824219 515.835937 556.730469 516.460937 C 557.84375 517.085937 558.683594 517.914062 559.246094 518.945312 C 559.808594 519.976562 560.089844 521.128906 560.089844 522.398437 C 560.089844 524.304687 559.382812 525.925781 557.972656 527.265625 C 556.5625 528.605469 554.589844 529.273437 552.058594 529.273437 C 549.527344 529.273437 547.609375 528.601562 546.308594 527.257812 Z M 548.980469 522.101562 C 548.980469 523.214844 549.269531 524.082031 549.847656 524.695312 C 550.425781 525.308594 551.226562 525.617187 552.246094 525.617187 C 553.265625 525.617187 554.066406 525.308594 554.644531 524.695312 C 555.222656 524.082031 555.511719 523.214844 555.511719 522.101562 C 555.511719 520.945312 555.21875 520.066406 554.628906 519.46875 C 554.039062 518.871094 553.246094 518.570312 552.246094 518.570312 C 551.246094 518.570312 550.453125 518.871094 549.863281 519.46875 C 549.273438 520.066406 548.980469 520.945312 548.980469 522.101562 Z M 550.152344 514.382812 C 550.652344 514.902344 551.351562 515.164062 552.246094 515.164062 C 553.152344 515.164062 553.851562 514.902344 554.347656 514.382812 C 554.84375 513.863281 555.089844 513.191406 555.089844 512.367187 C 555.089844 511.472656 554.84375 510.769531 554.347656 510.265625 C 553.851562 509.761719 553.152344 509.507812 552.246094 509.507812 C 551.351562 509.507812 550.648438 509.761719 550.144531 510.265625 C 549.640625 510.769531 549.386719 511.472656 549.386719 512.367187 C 549.386719 513.191406 549.640625 513.863281 550.152344 514.382812 Z M 561.308594 528.679687 " transform="matrix(-1,0.000000000000000612,-0.000000000000000612,-1,1296,1200)"/>
<path style=" stroke:none;fill-rule:nonzero;fill:rgb(100%,85.490196%,28.627451%);fill-opacity:1;" d="M 768 768 C 1088 656 688 544 1008 432 L 768 432 Z M 768 768 "/>
<path style="fill-rule:nonzero;fill:rgb(1.960784%,17.647059%,29.019608%);fill-opacity:1;stroke-width:1.6;stroke-linecap:butt;stroke-linejoin:bevel;stroke:rgb(100%,100%,100%);stroke-opacity:1;stroke-miterlimit:10;" d="M 781.613281 481.15625 C 779.007813 478.488281 777.707031 475.25 777.707031 471.4375 C 777.707031 468.894531 778.285156 466.59375 779.441406 464.53125 C 780.597656 462.46875 782.289063 460.917969 784.519531 459.875 C 782.332031 458.417969 780.910156 456.839844 780.253906 455.140625 C 779.597656 453.441406 779.269531 451.855469 779.269531 450.375 C 779.269531 447.082031 780.507813 444.277344 782.988281 441.953125 C 785.46875 439.628906 788.96875 438.46875 793.488281 438.46875 C 798.007813 438.46875 801.507813 439.628906 803.988281 441.953125 C 806.46875 444.277344 807.707031 447.082031 807.707031 450.375 C 807.707031 451.855469 807.378906 453.441406 806.722656 455.140625 C 806.066406 456.839844 804.644531 458.3125 802.457031 459.5625 C 804.6875 460.8125 806.363281 462.46875 807.488281 464.53125 C 808.613281 466.59375 809.175781 468.894531 809.175781 471.4375 C 809.175781 475.25 807.765625 478.496094 804.941406 481.171875 C 802.117188 483.847656 798.175781 485.1875 793.113281 485.1875 C 788.050781 485.1875 784.21875 483.84375 781.613281 481.15625 Z M 786.957031 470.84375 C 786.957031 473.074219 787.535156 474.800781 788.691406 476.03125 C 789.847656 477.261719 791.445313 477.875 793.488281 477.875 C 795.53125 477.875 797.128906 477.261719 798.285156 476.03125 C 799.441406 474.800781 800.019531 473.074219 800.019531 470.84375 C 800.019531 468.53125 799.429688 466.777344 798.253906 465.578125 C 797.078125 464.378906 795.488281 463.78125 793.488281 463.78125 C 791.488281 463.78125 789.898438 464.378906 788.722656 465.578125 C 787.546875 466.777344 786.957031 468.53125 786.957031 470.84375 Z M 789.300781 455.40625 C 790.300781 456.449219 791.695313 456.96875 793.488281 456.96875 C 795.300781 456.96875 796.703125 456.449219 797.691406 455.40625 C 798.679688 454.363281 799.175781 453.019531 799.175781 451.375 C 799.175781 449.582031 798.679688 448.183594 797.691406 447.171875 C 796.703125 446.160156 795.300781 445.65625 793.488281 445.65625 C 791.695313 445.65625 790.296875 446.160156 789.285156 447.171875 C 788.273438 448.183594 787.769531 449.582031 787.769531 451.375 C 787.769531 453.019531 788.28125 454.363281 789.300781 455.40625 Z M 811.613281 484 " transform="matrix(1,-0.000000000000000735,0.000000000000000735,1,-0.000000000000341061,0.000000000000341061)"/>
<path style="fill-rule:nonzero;fill:rgb(1.960784%,10.196078%,20.392157%);fill-opacity:1;stroke-width:1;stroke-linecap:butt;stroke-linejoin:bevel;stroke:rgb(1.960784%,10.196078%,20.392157%);stroke-opacity:1;stroke-miterlimit:10;" d="M 799 496 C 810.597656 496 820 505.402344 820 517 C 820 528.597656 810.597656 538 799 538 L 768 538 L 768 496 Z M 799 496 " transform="matrix(1,-0.000000000000000735,0.000000000000000735,1,-0.000000000000341061,0.000000000000341061)"/>
<path style="fill-rule:nonzero;fill:rgb(99.607843%,23.921569%,32.156863%);fill-opacity:1;stroke-width:1.3;stroke-linecap:butt;stroke-linejoin:bevel;stroke:rgb(100%,100%,100%);stroke-opacity:1;stroke-miterlimit:10;" d="M 795.378906 523.78125 L 786.894531 523.78125 L 785.300781 528.515625 L 780.269531 528.515625 L 788.488281 505.484375 L 793.925781 505.484375 L 802.082031 528.515625 L 796.863281 528.515625 Z M 794.035156 519.8125 L 791.160156 510.75 L 788.191406 519.8125 Z M 802.566406 528.515625 " transform="matrix(1,-0.000000000000000735,0.000000000000000735,1,-0.000000000000341061,0.000000000000341061)"/>
<path style=" stroke:none;fill-rule:nonzero;fill:rgb(99.607843%,23.921569%,32.156863%);fill-opacity:1;" d="M 1008 432 C 688 544 1088 656 768 768 L 1008 768 Z M 1008 432 "/>
<path style="fill-rule:nonzero;fill:rgb(1.960784%,17.647059%,29.019608%);fill-opacity:1;stroke-width:1.6;stroke-linecap:butt;stroke-linejoin:bevel;stroke:rgb(100%,100%,100%);stroke-opacity:1;stroke-miterlimit:10;" d="M 800.914062 474.53125 L 783.945312 474.53125 L 780.757812 484 L 770.695312 484 L 787.132812 437.9375 L 798.007812 437.9375 L 814.320312 484 L 803.882812 484 Z M 798.226562 466.59375 L 792.476562 448.46875 L 786.539062 466.59375 Z M 815.289062 484 " transform="matrix(-1,0.000000000000000857,-0.000000000000000857,-1,1776,1200)"/>
<path style="fill-rule:nonzero;fill:rgb(1.960784%,10.196078%,20.392157%);fill-opacity:1;stroke-width:1;stroke-linecap:butt;stroke-linejoin:bevel;stroke:rgb(1.960784%,10.196078%,20.392157%);stroke-opacity:1;stroke-miterlimit:10;" d="M 799 496 C 810.597656 496 820 505.402344 820 517 C 820 528.597656 810.597656 538 799 538 L 768 538 L 768 496 Z M 799 496 " transform="matrix(-1,0.000000000000000857,-0.000000000000000857,-1,1776,1200)"/>
<path style="fill-rule:nonzero;fill:rgb(100%,85.490196%,28.627451%);fill-opacity:1;stroke-width:1.3;stroke-linecap:butt;stroke-linejoin:bevel;stroke:rgb(100%,100%,100%);stroke-opacity:1;stroke-miterlimit:10;" d="M 786.308594 527.257812 C 785.007812 525.925781 784.355469 524.304687 784.355469 522.398437 C 784.355469 521.128906 784.644531 519.976562 785.222656 518.945312 C 785.800781 517.914062 786.648437 517.136719 787.761719 516.617187 C 786.667969 515.886719 785.957031 515.097656 785.628906 514.25 C 785.300781 513.402344 785.136719 512.605469 785.136719 511.867187 C 785.136719 510.222656 785.757812 508.816406 786.996094 507.65625 C 788.234375 506.496094 789.984375 505.914062 792.246094 505.914062 C 794.507812 505.914062 796.257812 506.496094 797.496094 507.65625 C 798.734375 508.816406 799.355469 510.222656 799.355469 511.867187 C 799.355469 512.605469 799.191406 513.402344 798.863281 514.25 C 798.535156 515.097656 797.824219 515.835937 796.730469 516.460937 C 797.84375 517.085937 798.683594 517.914062 799.246094 518.945312 C 799.808594 519.976562 800.089844 521.128906 800.089844 522.398437 C 800.089844 524.304687 799.382812 525.925781 797.972656 527.265625 C 796.5625 528.605469 794.589844 529.273437 792.058594 529.273437 C 789.527344 529.273437 787.609375 528.601562 786.308594 527.257812 Z M 788.980469 522.101562 C 788.980469 523.214844 789.269531 524.082031 789.847656 524.695312 C 790.425781 525.308594 791.226562 525.617187 792.246094 525.617187 C 793.265625 525.617187 794.066406 525.308594 794.644531 524.695312 C 795.222656 524.082031 795.511719 523.214844 795.511719 522.101562 C 795.511719 520.945312 795.21875 520.066406 794.628906 519.46875 C 794.039062 518.871094 793.246094 518.570312 792.246094 518.570312 C 791.246094 518.570312 790.453125 518.871094 789.863281 519.46875 C 789.273437 520.066406 788.980469 520.945312 788.980469 522.101562 Z M 790.152344 514.382812 C 790.652344 514.902344 791.351562 515.164062 792.246094 515.164062 C 793.152344 515.164062 793.851562 514.902344 794.347656 514.382812 C 794.84375 513.863281 795.089844 513.191406 795.089844 512.367187 C 795.089844 511.472656 794.84375 510.769531 794.347656 510.265625 C 793.851562 509.761719 793.152344 509.507812 792.246094 509.507812 C 791.351562 509.507812 790.648437 509.761719 790.144531 510.265625 C 789.640625 510.769531 789.386719 511.472656 789.386719 512.367187 C 789.386719 513.191406 789.640625 513.863281 790.152344 514.382812 Z M 801.308594 528.679687 " transform="matrix(-1,0.000000000000000857,-0.000000000000000857,-1,1776,1200)"/>
<path style=" stroke:none;fill-rule:nonzero;fill:rgb(95.686275%,45.882353%,0.392157%);fill-opacity:1;" d="M 48 432 C 368 320 -32 208 288 96 L 48 96 Z M 48 432 "/>
<path style="fill-rule:nonzero;fill:rgb(1.960784%,17.647059%,29.019608%);fill-opacity:1;stroke-width:1.6;stroke-linecap:butt;stroke-linejoin:bevel;stroke:rgb(100%,100%,100%);stroke-opacity:1;stroke-miterlimit:10;" d="M 72.625 149.3125 C 69.230469 149.3125 66.175781 148.308594 63.46875 146.296875 C 60.761719 144.285156 59.207031 141.355469 58.8125 137.5 L 67.6875 137.5 C 67.894531 138.832031 68.457031 139.917969 69.375 140.75 C 70.292969 141.582031 71.511719 142 73.03125 142 C 75.96875 142 78.03125 140.375 79.21875 137.125 C 79.863281 135.332031 80.269531 132.71875 80.4375 129.28125 C 79.625 130.300781 78.761719 131.082031 77.84375 131.625 C 76.175781 132.625 74.125 133.125 71.6875 133.125 C 68.082031 133.125 64.886719 131.878906 62.09375 129.390625 C 59.300781 126.902344 57.90625 123.3125 57.90625 118.625 C 57.90625 113.769531 59.308594 109.839844 62.109375 106.828125 C 64.910156 103.816406 68.550781 102.3125 73.03125 102.3125 C 79.925781 102.3125 84.65625 105.363281 87.21875 111.46875 C 88.675781 114.925781 89.40625 119.480469 89.40625 125.125 C 89.40625 130.605469 88.707031 135.175781 87.3125 138.84375 C 84.644531 145.824219 79.75 149.3125 72.625 149.3125 Z M 69.5 111.03125 C 67.792969 112.363281 66.9375 114.625 66.9375 117.8125 C 66.9375 120.5 67.484375 122.515625 68.578125 123.859375 C 69.671875 125.203125 71.355469 125.875 73.625 125.875 C 74.855469 125.875 76.011719 125.519531 77.09375 124.8125 C 79.113281 123.519531 80.125 121.28125 80.125 118.09375 C 80.125 115.53125 79.527344 113.5 78.328125 112 C 77.128906 110.5 75.488281 109.75 73.40625 109.75 C 71.886719 109.75 70.582031 110.175781 69.5 111.03125 Z M 91.59375 148 " transform="matrix(1,-0.00000000000000098,0.00000000000000098,1,-0.000000000000454747,0.000000000000568434)"/>
<path style="fill-rule:nonzero;fill:rgb(1.960784%,10.196078%,20.392157%);fill-opacity:1;stroke-width:1;stroke-linecap:butt;stroke-linejoin:bevel;stroke:rgb(1.960784%,10.196078%,20.392157%);stroke-opacity:1;stroke-miterlimit:10;" d="M 79 160 C 90.597656 160 100 169.402344 100 181 C 100 192.597656 90.597656 202 79 202 L 48 202 L 48 160 Z M 79 160 " transform="matrix(1,-0.00000000000000098,0.00000000000000098,1,-0.000000000000454747,0.000000000000568434)"/>
<path style="fill-rule:nonzero;fill:rgb(99.607843%,23.921569%,32.156863%);fill-opacity:1;stroke-width:1.3;stroke-linecap:butt;stroke-linejoin:bevel;stroke:rgb(100%,100%,100%);stroke-opacity:1;stroke-miterlimit:10;" d="M 75.378906 187.78125 L 66.894531 187.78125 L 65.300781 192.515625 L 60.269531 192.515625 L 68.488281 169.484375 L 73.925781 169.484375 L 82.082031 192.515625 L 76.863281 192.515625 Z M 74.035156 183.8125 L 71.160156 174.75 L 68.191406 183.8125 Z M 82.566406 192.515625 " transform="matrix(1,-0.00000000000000098,0.00000000000000098,1,-0.000000000000454747,0.000000000000568434)"/>
<path style=" stroke:none;fill-rule:nonzero;fill:rgb(99.607843%,23.921569%,32.156863%);fill-opacity:1;" d="M 288 96 C -32 208 368 320 48 432 L 288 432 Z M 288 96 "/>
<path style="fill-rule:nonzero;fill:rgb(1.960784%,17.647059%,29.019608%);fill-opacity:1;stroke-width:1.6;stroke-linecap:butt;stroke-linejoin:bevel;stroke:rgb(100%,100%,100%);stroke-opacity:1;stroke-miterlimit:10;" d="M 80.914062 138.53125 L 63.945312 138.53125 L 60.757812 148 L 50.695312 148 L 67.132812 101.9375 L 78.007812 101.9375 L 94.320312 148 L 83.882812 148 Z M 78.226562 130.59375 L 72.476562 112.46875 L 66.539062 130.59375 Z M 95.289062 148 " transform="matrix(-1,0.000000000000001102,-0.000000000000001102,-1,336,528)"/>
<path style="fill-rule:nonzero;fill:rgb(1.960784%,10.196078%,20.392157%);fill-opacity:1;stroke-width:1;stroke-linecap:butt;stroke-linejoin:bevel;stroke:rgb(1.960784%,10.196078%,20.392157%);stroke-opacity:1;stroke-miterlimit:10;" d="M 79 160 C 90.597656 160 100 169.402344 100 181 C 100 192.597656 90.597656 202 79 202 L 48 202 L 48 160 Z M 79 160 " transform="matrix(-1,0.000000000000001102,-0.000000000000001102,-1,336,528)"/>
<path style="fill-rule:nonzero;fill:rgb(95.686275%,45.882353%,0.392157%);fill-opacity:1;stroke-width:1.3;stroke-linecap:butt;stroke-linejoin:bevel;stroke:rgb(100%,100%,100%);stroke-opacity:1;stroke-miterlimit:10;" d="M 71.8125 193.40625 C 70.113281 193.40625 68.589844 192.902344 67.234375 191.898438 C 65.878906 190.894531 65.105469 189.425781 64.90625 187.5 L 69.34375 187.5 C 69.449219 188.167969 69.730469 188.707031 70.1875 189.125 C 70.644531 189.542969 71.253906 189.75 72.015625 189.75 C 73.484375 189.75 74.515625 188.9375 75.109375 187.3125 C 75.433594 186.417969 75.636719 185.109375 75.71875 183.390625 C 75.3125 183.902344 74.878906 184.292969 74.421875 184.5625 C 73.589844 185.0625 72.5625 185.3125 71.34375 185.3125 C 69.542969 185.3125 67.941406 184.691406 66.546875 183.445313 C 65.152344 182.199219 64.453125 180.40625 64.453125 178.0625 C 64.453125 175.636719 65.152344 173.667969 66.554687 172.164063 C 67.957031 170.660156 69.777344 169.90625 72.015625 169.90625 C 75.464844 169.90625 77.828125 171.433594 79.109375 174.484375 C 79.839844 176.214844 80.203125 178.488281 80.203125 181.3125 C 80.203125 184.050781 79.855469 186.339844 79.15625 188.171875 C 77.824219 191.660156 75.375 193.40625 71.8125 193.40625 Z M 70.25 174.265625 C 69.394531 174.933594 68.96875 176.0625 68.96875 177.65625 C 68.96875 179 69.242187 180.007813 69.789062 180.679688 C 70.335937 181.351563 71.175781 181.6875 72.3125 181.6875 C 72.925781 181.6875 73.503906 181.511719 74.046875 181.15625 C 75.058594 180.511719 75.5625 179.390625 75.5625 177.796875 C 75.5625 176.515625 75.261719 175.5 74.664062 174.75 C 74.066406 174 73.246094 173.625 72.203125 173.625 C 71.441406 173.625 70.792969 173.839844 70.25 174.265625 Z M 81.296875 192.75 " transform="matrix(-1,0.000000000000001102,-0.000000000000001102,-1,336,528)"/>
</g>
</svg>
