<?xml version="1.0" encoding="UTF-8"?>
<svg xmlns="http://www.w3.org/2000/svg" xmlns:xlink="http://www.w3.org/1999/xlink" width="1056pt" height="816pt" viewBox="0 0 1056 816" version="1.1">
<g id="surface9">
<path style=" stroke:none;fill-rule:nonzero;fill:rgb(0%,55.686275%,88.627451%);fill-opacity:1;" d="M 48 768 C 368 656 -32 544 288 432 L 48 432 Z M 48 768 "/>
<path style="fill-rule:nonzero;fill:rgb(1.960784%,17.647059%,29.019608%);fill-opacity:1;stroke-width:1.6;stroke-linecap:butt;stroke-linejoin:bevel;stroke:rgb(100%,100%,100%);stroke-opacity:1;stroke-miterlimit:10;" d="M 78.519531 447.90625 C 77.457031 446.636719 75.9375 446 73.957031 446 C 71.25 446 69.40625 447.011719 68.425781 449.03125 C 67.863281 450.199219 67.53125 452.050781 67.425781 454.59375 L 58.769531 454.59375 C 58.914062 450.738281 59.613281 447.625 60.863281 445.25 C 63.238281 440.730469 67.457031 438.46875 73.519531 438.46875 C 78.3125 438.46875 82.125 439.796875 84.957031 442.453125 C 87.789062 445.109375 89.207031 448.625 89.207031 453 C 89.207031 456.355469 88.207031 459.332031 86.207031 461.9375 C 84.894531 463.667969 82.738281 465.59375 79.738281 467.71875 L 76.175781 470.25 C 73.945312 471.832031 72.421875 472.980469 71.597656 473.6875 C 70.773438 474.394531 70.082031 475.21875 69.519531 476.15625 L 89.300781 476.15625 L 89.300781 484 L 58.269531 484 C 58.351562 480.75 59.050781 477.78125 60.363281 475.09375 C 61.632812 472.074219 64.632812 468.875 69.363281 465.5 C 73.46875 462.5625 76.125 460.457031 77.332031 459.1875 C 79.1875 457.207031 80.113281 455.042969 80.113281 452.6875 C 80.113281 450.769531 79.582031 449.175781 78.519531 447.90625 Z M 91.863281 484 "/>
<path style="fill-rule:nonzero;fill:rgb(1.960784%,10.196078%,20.392157%);fill-opacity:1;stroke-width:1;stroke-linecap:butt;stroke-linejoin:bevel;stroke:rgb(1.960784%,10.196078%,20.392157%);stroke-opacity:1;stroke-miterlimit:10;" d="M 79 496 C 90.597656 496 100 505.402344 100 517 C 100 528.597656 90.597656 538 79 538 L 48 538 L 48 496 Z M 79 496 "/>
<path style="fill-rule:nonzero;fill:rgb(99.607843%,23.921569%,32.156863%);fill-opacity:1;stroke-width:1.3;stroke-linecap:butt;stroke-linejoin:bevel;stroke:rgb(100%,100%,100%);stroke-opacity:1;stroke-miterlimit:10;" d="M 75.378906 523.78125 L 66.894531 523.78125 L 65.300781 528.515625 L 60.269531 528.515625 L 68.488281 505.484375 L 73.925781 505.484375 L 82.082031 528.515625 L 76.863281 528.515625 Z M 74.035156 519.8125 L 71.160156 510.75 L 68.191406 519.8125 Z M 82.566406 528.515625 "/>
<path style=" stroke:none;fill-rule:nonzero;fill:rgb(99.607843%,23.921569%,32.156863%);fill-opacity:1;" d="M 288 432 C -32 544 368 656 48 768 L 288 768 Z M 288 432 "/>
<path style="fill-rule:nonzero;fill:rgb(1.960784%,17.647059%,29.019608%);fill-opacity:1;stroke-width:1.6;stroke-linecap:butt;stroke-linejoin:bevel;stroke:rgb(100%,100%,100%);stroke-opacity:1;stroke-miterlimit:10;" d="M 80.914062 474.53125 L 63.945312 474.53125 L 60.757812 484 L 50.695312 484 L 67.132812 437.9375 L 78.007812 437.9375 L 94.320312 484 L 83.882812 484 Z M 78.226562 466.59375 L 72.476562 448.46875 L 66.539062 466.59375 Z M 95.289062 484 " transform="matrix(-1,0.000000000000000122,-0.000000000000000122,-1,336,1200)"/>
<path style="fill-rule:nonzero;fill:rgb(1.960784%,10.196078%,20.392157%);fill-opacity:1;stroke-width:1;stroke-linecap:butt;stroke-linejoin:bevel;stroke:rgb(1.960784%,10.196078%,20.392157%);stroke-opacity:1;stroke-miterlimit:10;" d="M 79 496 C 90.597656 496 100 505.402344 100 517 C 100 528.597656 90.597656 538 79 538 L 48 538 L 48 496 Z M 79 496 " transform="matrix(-1,0.000000000000000122,-0.000000000000000122,-1,336,1200)"/>
<path style="fill-rule:nonzero;fill:rgb(0%,55.686275%,88.627451%);fill-opacity:1;stroke-width:1.3;stroke-linecap:butt;stroke-linejoin:bevel;stroke:rgb(100%,100%,100%);stroke-opacity:1;stroke-miterlimit:10;" d="M 74.78125 510.335938 C 74.25 509.699219 73.488281 509.382812 72.5 509.382812 C 71.144531 509.382812 70.222656 509.886719 69.734375 510.898438 C 69.453125 511.480469 69.285156 512.410156 69.234375 513.679688 L 64.90625 513.679688 C 64.980469 511.753906 65.328125 510.195312 65.953125 509.007812 C 67.140625 506.746094 69.25 505.617188 72.28125 505.617188 C 74.675781 505.617188 76.582031 506.28125 78 507.609375 C 79.417969 508.9375 80.125 510.695312 80.125 512.882812 C 80.125 514.558594 79.625 516.050781 78.625 517.351562 C 77.96875 518.214844 76.890625 519.179688 75.390625 520.242188 L 73.609375 521.507812 C 72.496094 522.300781 71.730469 522.871094 71.320312 523.226562 C 70.910156 523.582031 70.5625 523.992188 70.28125 524.460938 L 80.171875 524.460938 L 80.171875 528.382812 L 64.65625 528.382812 C 64.699219 526.757812 65.046875 525.273438 65.703125 523.929688 C 66.339844 522.417969 67.839844 520.820312 70.203125 519.132812 C 72.253906 517.664062 73.582031 516.613281 74.1875 515.976562 C 75.113281 514.988281 75.578125 513.902344 75.578125 512.726562 C 75.578125 511.769531 75.3125 510.972656 74.78125 510.335938 Z M 81.453125 528.382812 " transform="matrix(-1,0.000000000000000122,-0.000000000000000122,-1,336,1200)"/>
<path style=" stroke:none;fill-rule:nonzero;fill:rgb(0%,76.470588%,95.294118%);fill-opacity:1;" d="M 288 768 C 608 656 208 544 528 432 L 288 432 Z M 288 768 "/>
<path style="fill-rule:nonzero;fill:rgb(1.960784%,17.647059%,29.019608%);fill-opacity:1;stroke-width:1.6;stroke-linecap:butt;stroke-linejoin:bevel;stroke:rgb(100%,100%,100%);stroke-opacity:1;stroke-miterlimit:10;" d="M 308.339844 447.71875 C 307.339844 449.050781 306.859375 450.832031 306.902344 453.0625 L 298.589844 453.0625 C 298.671875 450.8125 299.058594 448.675781 299.746094 446.65625 C 300.476563 444.886719 301.621094 443.25 303.183594 441.75 C 304.351563 440.6875 305.734375 439.875 307.339844 439.3125 C 308.945313 438.75 310.914063 438.46875 313.246094 438.46875 C 317.578125 438.46875 321.074219 439.589844 323.730469 441.828125 C 326.386719 444.066406 327.714844 447.074219 327.714844 450.84375 C 327.714844 453.511719 326.921875 455.761719 325.339844 457.59375 C 324.339844 458.738281 323.296875 459.519531 322.214844 459.9375 C 323.027344 459.9375 324.195313 460.636719 325.714844 462.03125 C 327.984375 464.136719 329.121094 467.011719 329.121094 470.65625 C 329.121094 474.488281 327.792969 477.859375 325.136719 480.765625 C 322.480469 483.671875 318.546875 485.125 313.339844 485.125 C 306.921875 485.125 302.464844 483.03125 299.964844 478.84375 C 298.652344 476.613281 297.921875 473.699219 297.777344 470.09375 L 306.527344 470.09375 C 306.527344 471.90625 306.820313 473.40625 307.402344 474.59375 C 308.484375 476.78125 310.453125 477.875 313.308594 477.875 C 315.058594 477.875 316.585938 477.277344 317.886719 476.078125 C 319.1875 474.878906 319.839844 473.15625 319.839844 470.90625 C 319.839844 467.925781 318.632813 465.9375 316.214844 464.9375 C 314.839844 464.375 312.671875 464.09375 309.714844 464.09375 L 309.714844 457.71875 C 312.609375 457.675781 314.632813 457.394531 315.777344 456.875 C 317.757813 456 318.746094 454.230469 318.746094 451.5625 C 318.746094 449.832031 318.242188 448.425781 317.230469 447.34375 C 316.21875 446.261719 314.796875 445.71875 312.964844 445.71875 C 310.859375 445.71875 309.320313 446.386719 308.339844 447.71875 Z M 331.683594 484 " transform="matrix(1,-0.000000000000000245,0.000000000000000245,1,-0.000000000000113687,0)"/>
<path style="fill-rule:nonzero;fill:rgb(1.960784%,10.196078%,20.392157%);fill-opacity:1;stroke-width:1;stroke-linecap:butt;stroke-linejoin:bevel;stroke:rgb(1.960784%,10.196078%,20.392157%);stroke-opacity:1;stroke-miterlimit:10;" d="M 319 496 C 330.597656 496 340 505.402344 340 517 C 340 528.597656 330.597656 538 319 538 L 288 538 L 288 496 Z M 319 496 " transform="matrix(1,-0.000000000000000245,0.000000000000000245,1,-0.000000000000113687,0)"/>
<path style="fill-rule:nonzero;fill:rgb(0%,67.45098%,69.803922%);fill-opacity:1;stroke-width:1.3;stroke-linecap:butt;stroke-linejoin:bevel;stroke:rgb(100%,100%,100%);stroke-opacity:1;stroke-miterlimit:10;" d="M 320.140625 519.898438 L 320.140625 523.382813 L 317.578125 523.382813 L 317.578125 528.257813 L 313.21875 528.257813 L 313.21875 523.382813 L 304.25 523.382813 L 304.25 519.492188 L 312.578125 505.742188 L 317.578125 505.742188 L 317.578125 519.898438 Z M 307.546875 519.898438 L 313.21875 519.898438 L 313.21875 510.117188 Z M 321.203125 528.257813 " transform="matrix(1,-0.000000000000000245,0.000000000000000245,1,-0.000000000000113687,0)"/>
<path style=" stroke:none;fill-rule:nonzero;fill:rgb(0%,67.45098%,69.803922%);fill-opacity:1;" d="M 528 432 C 208 544 608 656 288 768 L 528 768 Z M 528 432 "/>
<path style="fill-rule:nonzero;fill:rgb(1.960784%,17.647059%,29.019608%);fill-opacity:1;stroke-width:1.6;stroke-linecap:butt;stroke-linejoin:bevel;stroke:rgb(100%,100%,100%);stroke-opacity:1;stroke-miterlimit:10;" d="M 329.308594 467.28125 L 329.308594 474.25 L 324.183594 474.25 L 324.183594 484 L 315.464844 484 L 315.464844 474.25 L 297.527344 474.25 L 297.527344 466.46875 L 314.183594 438.96875 L 324.183594 438.96875 L 324.183594 467.28125 Z M 304.121094 467.28125 L 315.464844 467.28125 L 315.464844 447.71875 Z M 331.433594 484 " transform="matrix(-1,0.000000000000000367,-0.000000000000000367,-1,816,1200)"/>
<path style="fill-rule:nonzero;fill:rgb(1.960784%,10.196078%,20.392157%);fill-opacity:1;stroke-width:1;stroke-linecap:butt;stroke-linejoin:bevel;stroke:rgb(1.960784%,10.196078%,20.392157%);stroke-opacity:1;stroke-miterlimit:10;" d="M 319 496 C 330.597656 496 340 505.402344 340 517 C 340 528.597656 330.597656 538 319 538 L 288 538 L 288 496 Z M 319 496 " transform="matrix(-1,0.000000000000000367,-0.000000000000000367,-1,816,1200)"/>
<path style="fill-rule:nonzero;fill:rgb(0%,76.470588%,95.294118%);fill-opacity:1;stroke-width:1.3;stroke-linecap:butt;stroke-linejoin:bevel;stroke:rgb(100%,100%,100%);stroke-opacity:1;stroke-miterlimit:10;" d="M 309.675781 510.523437 C 309.175781 511.191406 308.9375 512.082031 308.957031 513.195312 L 304.800781 513.195312 C 304.84375 512.070312 305.035156 511.003906 305.378906 509.992187 C 305.742188 509.105469 306.316406 508.289062 307.097656 507.539062 C 307.679688 507.007812 308.375 506.601562 309.175781 506.320312 C 309.976562 506.039062 310.960938 505.898437 312.128906 505.898437 C 314.296875 505.898437 316.042969 506.457031 317.371094 507.578125 C 318.699219 508.699219 319.363281 510.199219 319.363281 512.085937 C 319.363281 513.417969 318.96875 514.542969 318.175781 515.460937 C 317.675781 516.035156 317.15625 516.425781 316.613281 516.632812 C 317.019531 516.632812 317.601562 516.980469 318.363281 517.679687 C 319.5 518.730469 320.066406 520.167969 320.066406 521.992187 C 320.066406 523.910156 319.402344 525.59375 318.074219 527.046875 C 316.746094 528.5 314.78125 529.226562 312.175781 529.226562 C 308.96875 529.226562 306.738281 528.179687 305.488281 526.085937 C 304.832031 524.972656 304.46875 523.511719 304.394531 521.710937 L 308.769531 521.710937 C 308.769531 522.617187 308.914062 523.367187 309.207031 523.960937 C 309.75 525.054687 310.734375 525.601562 312.160156 525.601562 C 313.035156 525.601562 313.796875 525.300781 314.449219 524.703125 C 315.101562 524.105469 315.425781 523.242187 315.425781 522.117187 C 315.425781 520.628906 314.820312 519.632812 313.613281 519.132812 C 312.925781 518.851562 311.84375 518.710937 310.363281 518.710937 L 310.363281 515.523437 C 311.8125 515.503906 312.820312 515.363281 313.394531 515.101562 C 314.382812 514.664062 314.878906 513.777344 314.878906 512.445312 C 314.878906 511.582031 314.625 510.878906 314.121094 510.335937 C 313.617188 509.792969 312.90625 509.523437 311.988281 509.523437 C 310.9375 509.523437 310.164062 509.855469 309.675781 510.523437 Z M 321.347656 528.664062 " transform="matrix(-1,0.000000000000000367,-0.000000000000000367,-1,816,1200)"/>
<path style=" stroke:none;fill-rule:nonzero;fill:rgb(0%,76.470588%,95.294118%);fill-opacity:1;" d="M 528 768 C 848 656 448 544 768 432 L 528 432 Z M 528 768 "/>
<path style="fill-rule:nonzero;fill:rgb(1.960784%,17.647059%,29.019608%);fill-opacity:1;stroke-width:1.6;stroke-linecap:butt;stroke-linejoin:bevel;stroke:rgb(100%,100%,100%);stroke-opacity:1;stroke-miterlimit:10;" d="M 548.339844 447.71875 C 547.339844 449.050781 546.859375 450.832031 546.902344 453.0625 L 538.589844 453.0625 C 538.671875 450.8125 539.058594 448.675781 539.746094 446.65625 C 540.476562 444.886719 541.621094 443.25 543.183594 441.75 C 544.351562 440.6875 545.734375 439.875 547.339844 439.3125 C 548.945312 438.75 550.914062 438.46875 553.246094 438.46875 C 557.578125 438.46875 561.074219 439.589844 563.730469 441.828125 C 566.386719 444.066406 567.714844 447.074219 567.714844 450.84375 C 567.714844 453.511719 566.921875 455.761719 565.339844 457.59375 C 564.339844 458.738281 563.296875 459.519531 562.214844 459.9375 C 563.027344 459.9375 564.195312 460.636719 565.714844 462.03125 C 567.984375 464.136719 569.121094 467.011719 569.121094 470.65625 C 569.121094 474.488281 567.792969 477.859375 565.136719 480.765625 C 562.480469 483.671875 558.546875 485.125 553.339844 485.125 C 546.921875 485.125 542.464844 483.03125 539.964844 478.84375 C 538.652344 476.613281 537.921875 473.699219 537.777344 470.09375 L 546.527344 470.09375 C 546.527344 471.90625 546.820312 473.40625 547.402344 474.59375 C 548.484375 476.78125 550.453125 477.875 553.308594 477.875 C 555.058594 477.875 556.585938 477.277344 557.886719 476.078125 C 559.1875 474.878906 559.839844 473.15625 559.839844 470.90625 C 559.839844 467.925781 558.632812 465.9375 556.214844 464.9375 C 554.839844 464.375 552.671875 464.09375 549.714844 464.09375 L 549.714844 457.71875 C 552.609375 457.675781 554.632812 457.394531 555.777344 456.875 C 557.757812 456 558.746094 454.230469 558.746094 451.5625 C 558.746094 449.832031 558.242188 448.425781 557.230469 447.34375 C 556.21875 446.261719 554.796875 445.71875 552.964844 445.71875 C 550.859375 445.71875 549.320312 446.386719 548.339844 447.71875 Z M 571.683594 484 " transform="matrix(1,-0.00000000000000049,0.00000000000000049,1,-0.000000000000284217,0.000000000000113687)"/>
<path style="fill-rule:nonzero;fill:rgb(1.960784%,10.196078%,20.392157%);fill-opacity:1;stroke-width:1;stroke-linecap:butt;stroke-linejoin:bevel;stroke:rgb(1.960784%,10.196078%,20.392157%);stroke-opacity:1;stroke-miterlimit:10;" d="M 559 496 C 570.597656 496 580 505.402344 580 517 C 580 528.597656 570.597656 538 559 538 L 528 538 L 528 496 Z M 559 496 " transform="matrix(1,-0.00000000000000049,0.00000000000000049,1,-0.000000000000284217,0.000000000000113687)"/>
<path style="fill-rule:nonzero;fill:rgb(26.27451%,87.058824%,38.431373%);fill-opacity:1;stroke-width:1.3;stroke-linecap:butt;stroke-linejoin:bevel;stroke:rgb(100%,100%,100%);stroke-opacity:1;stroke-miterlimit:10;" d="M 552.082031 517.226563 C 551.539062 517.226563 551.070312 517.292969 550.675781 517.429688 C 549.976562 517.679688 549.453125 518.144531 549.097656 518.820313 L 545.097656 518.632813 L 546.691406 506.117188 L 559.175781 506.117188 L 559.175781 509.898438 L 549.910156 509.898438 L 549.097656 514.851563 C 549.785156 514.402344 550.320312 514.105469 550.707031 513.960938 C 551.351562 513.722656 552.140625 513.601563 553.066406 513.601563 C 554.941406 513.601563 556.578125 514.230469 557.972656 515.492188 C 559.367188 516.753906 560.066406 518.585938 560.066406 520.992188 C 560.066406 523.085938 559.394531 524.957031 558.050781 526.601563 C 556.707031 528.246094 554.695312 529.070313 552.019531 529.070313 C 549.863281 529.070313 548.09375 528.492188 546.707031 527.335938 C 545.320312 526.179688 544.550781 524.539063 544.394531 522.414063 L 548.832031 522.414063 C 549.007812 523.382813 549.347656 524.128906 549.847656 524.65625 C 550.347656 525.183594 551.078125 525.445313 552.035156 525.445313 C 553.140625 525.445313 553.980469 525.058594 554.558594 524.28125 C 555.136719 523.503906 555.425781 522.527344 555.425781 521.351563 C 555.425781 520.195313 555.15625 519.21875 554.613281 518.421875 C 554.070312 517.625 553.226562 517.226563 552.082031 517.226563 Z M 561.347656 528.476563 " transform="matrix(1,-0.00000000000000049,0.00000000000000049,1,-0.000000000000284217,0.000000000000113687)"/>
<path style=" stroke:none;fill-rule:nonzero;fill:rgb(26.27451%,87.058824%,38.431373%);fill-opacity:1;" d="M 768 432 C 448 544 848 656 528 768 L 768 768 Z M 768 432 "/>
<path style="fill-rule:nonzero;fill:rgb(1.960784%,17.647059%,29.019608%);fill-opacity:1;stroke-width:1.6;stroke-linecap:butt;stroke-linejoin:bevel;stroke:rgb(100%,100%,100%);stroke-opacity:1;stroke-miterlimit:10;" d="M 553.152344 461.5 C 552.070312 461.5 551.132812 461.636719 550.339844 461.90625 C 548.945312 462.40625 547.890625 463.332031 547.183594 464.6875 L 539.183594 464.3125 L 542.371094 439.28125 L 567.339844 439.28125 L 567.339844 446.84375 L 548.808594 446.84375 L 547.183594 456.75 C 548.558594 455.855469 549.632812 455.261719 550.402344 454.96875 C 551.695312 454.488281 553.265625 454.25 555.121094 454.25 C 558.871094 454.25 562.140625 455.511719 564.933594 458.03125 C 567.726562 460.550781 569.121094 464.21875 569.121094 469.03125 C 569.121094 473.21875 567.777344 476.957031 565.089844 480.25 C 562.402344 483.542969 558.382812 485.1875 553.027344 485.1875 C 548.714844 485.1875 545.171875 484.03125 542.402344 481.71875 C 539.632812 479.40625 538.089844 476.125 537.777344 471.875 L 546.652344 471.875 C 547.007812 473.8125 547.683594 475.308594 548.683594 476.359375 C 549.683594 477.410156 551.140625 477.9375 553.058594 477.9375 C 555.265625 477.9375 556.949219 477.160156 558.105469 475.609375 C 559.261719 474.058594 559.839844 472.105469 559.839844 469.75 C 559.839844 467.4375 559.296875 465.484375 558.214844 463.890625 C 557.132812 462.296875 555.445312 461.5 553.152344 461.5 Z M 571.683594 484 " transform="matrix(-1,0.000000000000000612,-0.000000000000000612,-1,1296,1200)"/>
<path style="fill-rule:nonzero;fill:rgb(1.960784%,10.196078%,20.392157%);fill-opacity:1;stroke-width:1;stroke-linecap:butt;stroke-linejoin:bevel;stroke:rgb(1.960784%,10.196078%,20.392157%);stroke-opacity:1;stroke-miterlimit:10;" d="M 559 496 C 570.597656 496 580 505.402344 580 517 C 580 528.597656 570.597656 538 559 538 L 528 538 L 528 496 Z M 559 496 " transform="matrix(-1,0.000000000000000612,-0.000000000000000612,-1,1296,1200)"/>
<path style="fill-rule:nonzero;fill:rgb(0%,76.470588%,95.294118%);fill-opacity:1;stroke-width:1.3;stroke-linecap:butt;stroke-linejoin:bevel;stroke:rgb(100%,100%,100%);stroke-opacity:1;stroke-miterlimit:10;" d="M 549.675781 510.523437 C 549.175781 511.191406 548.9375 512.082031 548.957031 513.195312 L 544.800781 513.195312 C 544.84375 512.070312 545.035156 511.003906 545.378906 509.992187 C 545.742188 509.105469 546.316406 508.289062 547.097656 507.539062 C 547.679688 507.007812 548.375 506.601562 549.175781 506.320312 C 549.976562 506.039062 550.960938 505.898437 552.128906 505.898437 C 554.296875 505.898437 556.042969 506.457031 557.371094 507.578125 C 558.699219 508.699219 559.363281 510.199219 559.363281 512.085937 C 559.363281 513.417969 558.96875 514.542969 558.175781 515.460937 C 557.675781 516.035156 557.15625 516.425781 556.613281 516.632812 C 557.019531 516.632812 557.601562 516.980469 558.363281 517.679687 C 559.5 518.730469 560.066406 520.167969 560.066406 521.992187 C 560.066406 523.910156 559.402344 525.59375 558.074219 527.046875 C 556.746094 528.5 554.78125 529.226562 552.175781 529.226562 C 548.96875 529.226562 546.738281 528.179687 545.488281 526.085937 C 544.832031 524.972656 544.46875 523.511719 544.394531 521.710937 L 548.769531 521.710937 C 548.769531 522.617187 548.914062 523.367187 549.207031 523.960937 C 549.75 525.054687 550.734375 525.601562 552.160156 525.601562 C 553.035156 525.601562 553.796875 525.300781 554.449219 524.703125 C 555.101562 524.105469 555.425781 523.242187 555.425781 522.117187 C 555.425781 520.628906 554.820312 519.632812 553.613281 519.132812 C 552.925781 518.851562 551.84375 518.710937 550.363281 518.710937 L 550.363281 515.523437 C 551.8125 515.503906 552.820312 515.363281 553.394531 515.101562 C 554.382812 514.664062 554.878906 513.777344 554.878906 512.445312 C 554.878906 511.582031 554.625 510.878906 554.121094 510.335937 C 553.617188 509.792969 552.90625 509.523437 551.988281 509.523437 C 550.9375 509.523437 550.164062 509.855469 549.675781 510.523437 Z M 561.347656 528.664062 " transform="matrix(-1,0.000000000000000612,-0.000000000000000612,-1,1296,1200)"/>
<path style=" stroke:none;fill-rule:nonzero;fill:rgb(0%,76.470588%,95.294118%);fill-opacity:1;" d="M 768 768 C 1088 656 688 544 1008 432 L 768 432 Z M 768 768 "/>
<path style="fill-rule:nonzero;fill:rgb(1.960784%,17.647059%,29.019608%);fill-opacity:1;stroke-width:1.6;stroke-linecap:butt;stroke-linejoin:bevel;stroke:rgb(100%,100%,100%);stroke-opacity:1;stroke-miterlimit:10;" d="M 788.339844 447.71875 C 787.339844 449.050781 786.859375 450.832031 786.902344 453.0625 L 778.589844 453.0625 C 778.671875 450.8125 779.058594 448.675781 779.746094 446.65625 C 780.476563 444.886719 781.621094 443.25 783.183594 441.75 C 784.351563 440.6875 785.734375 439.875 787.339844 439.3125 C 788.945313 438.75 790.914063 438.46875 793.246094 438.46875 C 797.578125 438.46875 801.074219 439.589844 803.730469 441.828125 C 806.386719 444.066406 807.714844 447.074219 807.714844 450.84375 C 807.714844 453.511719 806.921875 455.761719 805.339844 457.59375 C 804.339844 458.738281 803.296875 459.519531 802.214844 459.9375 C 803.027344 459.9375 804.195313 460.636719 805.714844 462.03125 C 807.984375 464.136719 809.121094 467.011719 809.121094 470.65625 C 809.121094 474.488281 807.792969 477.859375 805.136719 480.765625 C 802.480469 483.671875 798.546875 485.125 793.339844 485.125 C 786.921875 485.125 782.464844 483.03125 779.964844 478.84375 C 778.652344 476.613281 777.921875 473.699219 777.777344 470.09375 L 786.527344 470.09375 C 786.527344 471.90625 786.820313 473.40625 787.402344 474.59375 C 788.484375 476.78125 790.453125 477.875 793.308594 477.875 C 795.058594 477.875 796.585938 477.277344 797.886719 476.078125 C 799.1875 474.878906 799.839844 473.15625 799.839844 470.90625 C 799.839844 467.925781 798.632813 465.9375 796.214844 464.9375 C 794.839844 464.375 792.671875 464.09375 789.714844 464.09375 L 789.714844 457.71875 C 792.609375 457.675781 794.632813 457.394531 795.777344 456.875 C 797.757813 456 798.746094 454.230469 798.746094 451.5625 C 798.746094 449.832031 798.242188 448.425781 797.230469 447.34375 C 796.21875 446.261719 794.796875 445.71875 792.964844 445.71875 C 790.859375 445.71875 789.320313 446.386719 788.339844 447.71875 Z M 811.683594 484 " transform="matrix(1,-0.000000000000000735,0.000000000000000735,1,-0.000000000000341061,0.000000000000341061)"/>
<path style="fill-rule:nonzero;fill:rgb(1.960784%,10.196078%,20.392157%);fill-opacity:1;stroke-width:1;stroke-linecap:butt;stroke-linejoin:bevel;stroke:rgb(1.960784%,10.196078%,20.392157%);stroke-opacity:1;stroke-miterlimit:10;" d="M 799 496 C 810.597656 496 820 505.402344 820 517 C 820 528.597656 810.597656 538 799 538 L 768 538 L 768 496 Z M 799 496 " transform="matrix(1,-0.000000000000000735,0.000000000000000735,1,-0.000000000000341061,0.000000000000341061)"/>
<path style="fill-rule:nonzero;fill:rgb(82.352941%,98.823529%,29.411765%);fill-opacity:1;stroke-width:1.3;stroke-linecap:butt;stroke-linejoin:bevel;stroke:rgb(100%,100%,100%);stroke-opacity:1;stroke-miterlimit:10;" d="M 793.34375 514.03125 C 795.355469 514.03125 797.003906 514.714844 798.289063 516.078125 C 799.574219 517.441406 800.21875 519.1875 800.21875 521.3125 C 800.21875 523.425781 799.589844 525.292969 798.328125 526.90625 C 797.066406 528.519531 795.109375 529.328125 792.453125 529.328125 C 789.597656 529.328125 787.496094 528.136719 786.140625 525.75 C 785.089844 523.886719 784.5625 521.480469 784.5625 518.53125 C 784.5625 516.800781 784.636719 515.394531 784.78125 514.3125 C 785.042969 512.386719 785.546875 510.78125 786.296875 509.5 C 786.941406 508.40625 787.789063 507.527344 788.835938 506.859375 C 789.882813 506.191406 791.136719 505.859375 792.59375 505.859375 C 794.699219 505.859375 796.375 506.398438 797.625 507.476563 C 798.875 508.554688 799.578125 509.988281 799.734375 511.78125 L 795.296875 511.78125 C 795.296875 511.417969 795.15625 511.015625 794.875 510.578125 C 794.394531 509.871094 793.671875 509.515625 792.703125 509.515625 C 791.253906 509.515625 790.222656 510.328125 789.609375 511.953125 C 789.277344 512.847656 789.046875 514.171875 788.921875 515.921875 C 789.472656 515.265625 790.113281 514.785156 790.84375 514.484375 C 791.574219 514.183594 792.40625 514.03125 793.34375 514.03125 Z M 790.34375 518.28125 C 789.46875 518.957031 789.03125 520.050781 789.03125 521.5625 C 789.03125 522.78125 789.359375 523.777344 790.015625 524.546875 C 790.671875 525.316406 791.503906 525.703125 792.515625 525.703125 C 793.503906 525.703125 794.285156 525.332031 794.851563 524.585938 C 795.417969 523.839844 795.703125 522.875 795.703125 521.6875 C 795.703125 520.363281 795.378906 519.351563 794.734375 518.648438 C 794.089844 517.945313 793.296875 517.59375 792.359375 517.59375 C 791.597656 517.59375 790.925781 517.824219 790.34375 518.28125 Z M 801.359375 528.734375 " transform="matrix(1,-0.000000000000000735,0.000000000000000735,1,-0.000000000000341061,0.000000000000341061)"/>
<path style=" stroke:none;fill-rule:nonzero;fill:rgb(82.352941%,98.823529%,29.411765%);fill-opacity:1;" d="M 1008 432 C 688 544 1088 656 768 768 L 1008 768 Z M 1008 432 "/>
<path style="fill-rule:nonzero;fill:rgb(1.960784%,17.647059%,29.019608%);fill-opacity:1;stroke-width:1.6;stroke-linecap:butt;stroke-linejoin:bevel;stroke:rgb(100%,100%,100%);stroke-opacity:1;stroke-miterlimit:10;" d="M 795.667969 454.59375 C 799.6875 454.59375 802.984375 455.957031 805.558594 458.6875 C 808.132812 461.417969 809.417969 464.90625 809.417969 469.15625 C 809.417969 473.386719 808.15625 477.113281 805.636719 480.34375 C 803.117187 483.574219 799.199219 485.1875 793.886719 485.1875 C 788.179687 485.1875 783.96875 482.800781 781.261719 478.03125 C 779.15625 474.300781 778.105469 469.488281 778.105469 463.59375 C 778.105469 460.136719 778.25 457.324219 778.542969 455.15625 C 779.0625 451.300781 780.074219 448.09375 781.574219 445.53125 C 782.867188 443.34375 784.558594 441.582031 786.652344 440.25 C 788.746094 438.917969 791.25 438.25 794.167969 438.25 C 798.375 438.25 801.730469 439.328125 804.230469 441.484375 C 806.730469 443.640625 808.136719 446.511719 808.449219 450.09375 L 799.574219 450.09375 C 799.574219 449.363281 799.292969 448.5625 798.730469 447.6875 C 797.773438 446.269531 796.324219 445.5625 794.386719 445.5625 C 791.492188 445.5625 789.429688 447.1875 788.199219 450.4375 C 787.53125 452.230469 787.074219 454.875 786.824219 458.375 C 787.929688 457.0625 789.210938 456.105469 790.667969 455.5 C 792.125 454.894531 793.792969 454.59375 795.667969 454.59375 Z M 789.667969 463.09375 C 787.917969 464.449219 787.042969 466.636719 787.042969 469.65625 C 787.042969 472.09375 787.699219 474.082031 789.011719 475.625 C 790.324219 477.167969 791.992187 477.9375 794.011719 477.9375 C 795.992187 477.9375 797.546875 477.191406 798.683594 475.703125 C 799.820312 474.214844 800.386719 472.28125 800.386719 469.90625 C 800.386719 467.261719 799.742188 465.234375 798.449219 463.828125 C 797.15625 462.421875 795.574219 461.71875 793.699219 461.71875 C 792.179688 461.71875 790.835938 462.175781 789.667969 463.09375 Z M 811.699219 484 " transform="matrix(-1,0.000000000000000857,-0.000000000000000857,-1,1776,1200)"/>
<path style="fill-rule:nonzero;fill:rgb(1.960784%,10.196078%,20.392157%);fill-opacity:1;stroke-width:1;stroke-linecap:butt;stroke-linejoin:bevel;stroke:rgb(1.960784%,10.196078%,20.392157%);stroke-opacity:1;stroke-miterlimit:10;" d="M 799 496 C 810.597656 496 820 505.402344 820 517 C 820 528.597656 810.597656 538 799 538 L 768 538 L 768 496 Z M 799 496 " transform="matrix(-1,0.000000000000000857,-0.000000000000000857,-1,1776,1200)"/>
<path style="fill-rule:nonzero;fill:rgb(0%,76.470588%,95.294118%);fill-opacity:1;stroke-width:1.3;stroke-linecap:butt;stroke-linejoin:bevel;stroke:rgb(100%,100%,100%);stroke-opacity:1;stroke-miterlimit:10;" d="M 789.675781 510.523437 C 789.175781 511.191406 788.9375 512.082031 788.957031 513.195312 L 784.800781 513.195312 C 784.84375 512.070312 785.035156 511.003906 785.378906 509.992187 C 785.742187 509.105469 786.316406 508.289062 787.097656 507.539062 C 787.679687 507.007812 788.375 506.601562 789.175781 506.320312 C 789.976562 506.039062 790.960937 505.898437 792.128906 505.898437 C 794.296875 505.898437 796.042969 506.457031 797.371094 507.578125 C 798.699219 508.699219 799.363281 510.199219 799.363281 512.085937 C 799.363281 513.417969 798.96875 514.542969 798.175781 515.460937 C 797.675781 516.035156 797.15625 516.425781 796.613281 516.632812 C 797.019531 516.632812 797.601562 516.980469 798.363281 517.679687 C 799.5 518.730469 800.066406 520.167969 800.066406 521.992187 C 800.066406 523.910156 799.402344 525.59375 798.074219 527.046875 C 796.746094 528.5 794.78125 529.226562 792.175781 529.226562 C 788.96875 529.226562 786.738281 528.179687 785.488281 526.085937 C 784.832031 524.972656 784.46875 523.511719 784.394531 521.710937 L 788.769531 521.710937 C 788.769531 522.617187 788.914062 523.367187 789.207031 523.960937 C 789.75 525.054687 790.734375 525.601562 792.160156 525.601562 C 793.035156 525.601562 793.796875 525.300781 794.449219 524.703125 C 795.101562 524.105469 795.425781 523.242187 795.425781 522.117187 C 795.425781 520.628906 794.820312 519.632812 793.613281 519.132812 C 792.925781 518.851562 791.84375 518.710937 790.363281 518.710937 L 790.363281 515.523437 C 791.8125 515.503906 792.820312 515.363281 793.394531 515.101562 C 794.382812 514.664062 794.878906 513.777344 794.878906 512.445312 C 794.878906 511.582031 794.625 510.878906 794.121094 510.335937 C 793.617187 509.792969 792.90625 509.523437 791.988281 509.523437 C 790.9375 509.523437 790.164062 509.855469 789.675781 510.523437 Z M 801.347656 528.664062 " transform="matrix(-1,0.000000000000000857,-0.000000000000000857,-1,1776,1200)"/>
<path style=" stroke:none;fill-rule:nonzero;fill:rgb(0%,76.470588%,95.294118%);fill-opacity:1;" d="M 48 432 C 368 320 -32 208 288 96 L 48 96 Z M 48 432 "/>
<path style="fill-rule:nonzero;fill:rgb(1.960784%,17.647059%,29.019608%);fill-opacity:1;stroke-width:1.6;stroke-linecap:butt;stroke-linejoin:bevel;stroke:rgb(100%,100%,100%);stroke-opacity:1;stroke-miterlimit:10;" d="M 68.339844 111.71875 C 67.339844 113.050781 66.859375 114.832031 66.902344 117.0625 L 58.589844 117.0625 C 58.671875 114.8125 59.058594 112.675781 59.746094 110.65625 C 60.476563 108.886719 61.621094 107.25 63.183594 105.75 C 64.351563 104.6875 65.734375 103.875 67.339844 103.3125 C 68.945313 102.75 70.914063 102.46875 73.246094 102.46875 C 77.578125 102.46875 81.074219 103.589844 83.730469 105.828125 C 86.386719 108.066406 87.714844 111.074219 87.714844 114.84375 C 87.714844 117.511719 86.921875 119.761719 85.339844 121.59375 C 84.339844 122.738281 83.296875 123.519531 82.214844 123.9375 C 83.027344 123.9375 84.195313 124.636719 85.714844 126.03125 C 87.984375 128.136719 89.121094 131.011719 89.121094 134.65625 C 89.121094 138.488281 87.792969 141.859375 85.136719 144.765625 C 82.480469 147.671875 78.546875 149.125 73.339844 149.125 C 66.921875 149.125 62.464844 147.03125 59.964844 142.84375 C 58.652344 140.613281 57.921875 137.699219 57.777344 134.09375 L 66.527344 134.09375 C 66.527344 135.90625 66.820313 137.40625 67.402344 138.59375 C 68.484375 140.78125 70.453125 141.875 73.308594 141.875 C 75.058594 141.875 76.585938 141.277344 77.886719 140.078125 C 79.1875 138.878906 79.839844 137.15625 79.839844 134.90625 C 79.839844 131.925781 78.632813 129.9375 76.214844 128.9375 C 74.839844 128.375 72.671875 128.09375 69.714844 128.09375 L 69.714844 121.71875 C 72.609375 121.675781 74.632813 121.394531 75.777344 120.875 C 77.757813 120 78.746094 118.230469 78.746094 115.5625 C 78.746094 113.832031 78.242188 112.425781 77.230469 111.34375 C 76.21875 110.261719 74.796875 109.71875 72.964844 109.71875 C 70.859375 109.71875 69.320313 110.386719 68.339844 111.71875 Z M 91.683594 148 " transform="matrix(1,-0.00000000000000098,0.00000000000000098,1,-0.000000000000454747,0.000000000000568434)"/>
<path style="fill-rule:nonzero;fill:rgb(1.960784%,10.196078%,20.392157%);fill-opacity:1;stroke-width:1;stroke-linecap:butt;stroke-linejoin:bevel;stroke:rgb(1.960784%,10.196078%,20.392157%);stroke-opacity:1;stroke-miterlimit:10;" d="M 79 160 C 90.597656 160 100 169.402344 100 181 C 100 192.597656 90.597656 202 79 202 L 48 202 L 48 160 Z M 79 160 " transform="matrix(1,-0.00000000000000098,0.00000000000000098,1,-0.000000000000454747,0.000000000000568434)"/>
<path style="fill-rule:nonzero;fill:rgb(99.607843%,92.54902%,1.568627%);fill-opacity:1;stroke-width:1.3;stroke-linecap:butt;stroke-linejoin:bevel;stroke:rgb(100%,100%,100%);stroke-opacity:1;stroke-miterlimit:10;" d="M 77.386719 176.804687 C 76.199219 178.492187 75.203125 180.230469 74.402344 182.023437 C 73.765625 183.429687 73.195313 185.148437 72.683594 187.179687 C 72.171875 189.210937 71.917969 190.878906 71.917969 192.179687 L 67.292969 192.179687 C 67.429688 188.117187 68.761719 183.894531 71.292969 179.507812 C 72.929688 176.789062 74.296875 174.894531 75.402344 173.820312 L 64.105469 173.820312 L 64.167969 169.820312 L 80.167969 169.820312 L 80.167969 173.304687 C 79.5 173.960937 78.574219 175.128906 77.386719 176.804687 Z M 81.089844 192.179687 " transform="matrix(1,-0.00000000000000098,0.00000000000000098,1,-0.000000000000454747,0.000000000000568434)"/>
<path style=" stroke:none;fill-rule:nonzero;fill:rgb(99.607843%,92.54902%,1.568627%);fill-opacity:1;" d="M 288 96 C -32 208 368 320 48 432 L 288 432 Z M 288 96 "/>
<path style="fill-rule:nonzero;fill:rgb(1.960784%,17.647059%,29.019608%);fill-opacity:1;stroke-width:1.6;stroke-linecap:butt;stroke-linejoin:bevel;stroke:rgb(100%,100%,100%);stroke-opacity:1;stroke-miterlimit:10;" d="M 83.832031 117.25 C 81.457031 120.625 79.46875 124.105469 77.863281 127.6875 C 76.59375 130.5 75.445312 133.9375 74.425781 138 C 73.40625 142.0625 72.894531 145.394531 72.894531 148 L 63.644531 148 C 63.914062 139.875 66.582031 131.425781 71.644531 122.65625 C 74.914062 117.21875 77.65625 113.425781 79.863281 111.28125 L 57.269531 111.28125 L 57.394531 103.28125 L 89.394531 103.28125 L 89.394531 110.25 C 88.0625 111.5625 86.207031 113.894531 83.832031 117.25 Z M 91.238281 148 " transform="matrix(-1,0.000000000000001102,-0.000000000000001102,-1,336,528)"/>
<path style="fill-rule:nonzero;fill:rgb(1.960784%,10.196078%,20.392157%);fill-opacity:1;stroke-width:1;stroke-linecap:butt;stroke-linejoin:bevel;stroke:rgb(1.960784%,10.196078%,20.392157%);stroke-opacity:1;stroke-miterlimit:10;" d="M 79 160 C 90.597656 160 100 169.402344 100 181 C 100 192.597656 90.597656 202 79 202 L 48 202 L 48 160 Z M 79 160 " transform="matrix(-1,0.000000000000001102,-0.000000000000001102,-1,336,528)"/>
<path style="fill-rule:nonzero;fill:rgb(0%,76.470588%,95.294118%);fill-opacity:1;stroke-width:1.3;stroke-linecap:butt;stroke-linejoin:bevel;stroke:rgb(100%,100%,100%);stroke-opacity:1;stroke-miterlimit:10;" d="M 69.675781 174.523438 C 69.175781 175.191406 68.9375 176.082031 68.957031 177.195313 L 64.800781 177.195313 C 64.84375 176.070313 65.035156 175.003906 65.378906 173.992188 C 65.742187 173.105469 66.316406 172.289063 67.097656 171.539063 C 67.679687 171.007813 68.375 170.601563 69.175781 170.320313 C 69.976562 170.039063 70.960937 169.898438 72.128906 169.898438 C 74.296875 169.898438 76.042969 170.457031 77.371094 171.578125 C 78.699219 172.699219 79.363281 174.199219 79.363281 176.085938 C 79.363281 177.417969 78.96875 178.542969 78.175781 179.460938 C 77.675781 180.035156 77.15625 180.425781 76.613281 180.632813 C 77.019531 180.632813 77.601562 180.980469 78.363281 181.679688 C 79.5 182.730469 80.066406 184.167969 80.066406 185.992188 C 80.066406 187.910156 79.402344 189.59375 78.074219 191.046875 C 76.746094 192.5 74.78125 193.226563 72.175781 193.226563 C 68.96875 193.226563 66.738281 192.179688 65.488281 190.085938 C 64.832031 188.972656 64.46875 187.511719 64.394531 185.710938 L 68.769531 185.710938 C 68.769531 186.617188 68.914062 187.367188 69.207031 187.960938 C 69.75 189.054688 70.734375 189.601563 72.160156 189.601563 C 73.035156 189.601563 73.796875 189.300781 74.449219 188.703125 C 75.101562 188.105469 75.425781 187.242188 75.425781 186.117188 C 75.425781 184.628906 74.820312 183.632813 73.613281 183.132813 C 72.925781 182.851563 71.84375 182.710938 70.363281 182.710938 L 70.363281 179.523438 C 71.8125 179.503906 72.820312 179.363281 73.394531 179.101563 C 74.382812 178.664063 74.878906 177.777344 74.878906 176.445313 C 74.878906 175.582031 74.625 174.878906 74.121094 174.335938 C 73.617187 173.792969 72.90625 173.523438 71.988281 173.523438 C 70.9375 173.523438 70.164062 173.855469 69.675781 174.523438 Z M 81.347656 192.664063 " transform="matrix(-1,0.000000000000001102,-0.000000000000001102,-1,336,528)"/>
<path style=" stroke:none;fill-rule:nonzero;fill:rgb(0%,76.470588%,95.294118%);fill-opacity:1;" d="M 288 432 C 608 320 208 208 528 96 L 288 96 Z M 288 432 "/>
<path style="fill-rule:nonzero;fill:rgb(1.960784%,17.647059%,29.019608%);fill-opacity:1;stroke-width:1.6;stroke-linecap:butt;stroke-linejoin:bevel;stroke:rgb(100%,100%,100%);stroke-opacity:1;stroke-miterlimit:10;" d="M 308.339844 111.71875 C 307.339844 113.050781 306.859375 114.832031 306.902344 117.0625 L 298.589844 117.0625 C 298.671875 114.8125 299.058594 112.675781 299.746094 110.65625 C 300.476563 108.886719 301.621094 107.25 303.183594 105.75 C 304.351563 104.6875 305.734375 103.875 307.339844 103.3125 C 308.945313 102.75 310.914063 102.46875 313.246094 102.46875 C 317.578125 102.46875 321.074219 103.589844 323.730469 105.828125 C 326.386719 108.066406 327.714844 111.074219 327.714844 114.84375 C 327.714844 117.511719 326.921875 119.761719 325.339844 121.59375 C 324.339844 122.738281 323.296875 123.519531 322.214844 123.9375 C 323.027344 123.9375 324.195313 124.636719 325.714844 126.03125 C 327.984375 128.136719 329.121094 131.011719 329.121094 134.65625 C 329.121094 138.488281 327.792969 141.859375 325.136719 144.765625 C 322.480469 147.671875 318.546875 149.125 313.339844 149.125 C 306.921875 149.125 302.464844 147.03125 299.964844 142.84375 C 298.652344 140.613281 297.921875 137.699219 297.777344 134.09375 L 306.527344 134.09375 C 306.527344 135.90625 306.820313 137.40625 307.402344 138.59375 C 308.484375 140.78125 310.453125 141.875 313.308594 141.875 C 315.058594 141.875 316.585938 141.277344 317.886719 140.078125 C 319.1875 138.878906 319.839844 137.15625 319.839844 134.90625 C 319.839844 131.925781 318.632813 129.9375 316.214844 128.9375 C 314.839844 128.375 312.671875 128.09375 309.714844 128.09375 L 309.714844 121.71875 C 312.609375 121.675781 314.632813 121.394531 315.777344 120.875 C 317.757813 120 318.746094 118.230469 318.746094 115.5625 C 318.746094 113.832031 318.242188 112.425781 317.230469 111.34375 C 316.21875 110.261719 314.796875 109.71875 312.964844 109.71875 C 310.859375 109.71875 309.320313 110.386719 308.339844 111.71875 Z M 331.683594 148 " transform="matrix(1,-0.000000000000001225,0.000000000000001225,1,-0.000000000000483169,0.000000000000625278)"/>
<path style="fill-rule:nonzero;fill:rgb(1.960784%,10.196078%,20.392157%);fill-opacity:1;stroke-width:1;stroke-linecap:butt;stroke-linejoin:bevel;stroke:rgb(1.960784%,10.196078%,20.392157%);stroke-opacity:1;stroke-miterlimit:10;" d="M 319 160 C 330.597656 160 340 169.402344 340 181 C 340 192.597656 330.597656 202 319 202 L 288 202 L 288 160 Z M 319 160 " transform="matrix(1,-0.000000000000001225,0.000000000000001225,1,-0.000000000000483169,0.000000000000625278)"/>
<path style="fill-rule:nonzero;fill:rgb(100%,85.490196%,28.627451%);fill-opacity:1;stroke-width:1.3;stroke-linecap:butt;stroke-linejoin:bevel;stroke:rgb(100%,100%,100%);stroke-opacity:1;stroke-miterlimit:10;" d="M 306.308594 191.257813 C 305.007813 189.925781 304.355469 188.304688 304.355469 186.398438 C 304.355469 185.128906 304.644531 183.976563 305.222656 182.945313 C 305.800781 181.914063 306.648438 181.136719 307.761719 180.617188 C 306.667969 179.886719 305.957031 179.097656 305.628906 178.25 C 305.300781 177.402344 305.136719 176.605469 305.136719 175.867188 C 305.136719 174.222656 305.757813 172.816406 306.996094 171.65625 C 308.234375 170.496094 309.984375 169.914063 312.246094 169.914063 C 314.507813 169.914063 316.257813 170.496094 317.496094 171.65625 C 318.734375 172.816406 319.355469 174.222656 319.355469 175.867188 C 319.355469 176.605469 319.191406 177.402344 318.863281 178.25 C 318.535156 179.097656 317.824219 179.835938 316.730469 180.460938 C 317.84375 181.085938 318.683594 181.914063 319.246094 182.945313 C 319.808594 183.976563 320.089844 185.128906 320.089844 186.398438 C 320.089844 188.304688 319.382813 189.925781 317.972656 191.265625 C 316.5625 192.605469 314.589844 193.273438 312.058594 193.273438 C 309.527344 193.273438 307.609375 192.601563 306.308594 191.257813 Z M 308.980469 186.101563 C 308.980469 187.214844 309.269531 188.082031 309.847656 188.695313 C 310.425781 189.308594 311.226563 189.617188 312.246094 189.617188 C 313.265625 189.617188 314.066406 189.308594 314.644531 188.695313 C 315.222656 188.082031 315.511719 187.214844 315.511719 186.101563 C 315.511719 184.945313 315.21875 184.066406 314.628906 183.46875 C 314.039063 182.871094 313.246094 182.570313 312.246094 182.570313 C 311.246094 182.570313 310.453125 182.871094 309.863281 183.46875 C 309.273438 184.066406 308.980469 184.945313 308.980469 186.101563 Z M 310.152344 178.382813 C 310.652344 178.902344 311.351563 179.164063 312.246094 179.164063 C 313.152344 179.164063 313.851563 178.902344 314.347656 178.382813 C 314.84375 177.863281 315.089844 177.191406 315.089844 176.367188 C 315.089844 175.472656 314.84375 174.769531 314.347656 174.265625 C 313.851563 173.761719 313.152344 173.507813 312.246094 173.507813 C 311.351563 173.507813 310.648438 173.761719 310.144531 174.265625 C 309.640625 174.769531 309.386719 175.472656 309.386719 176.367188 C 309.386719 177.191406 309.640625 177.863281 310.152344 178.382813 Z M 321.308594 192.679688 " transform="matrix(1,-0.000000000000001225,0.000000000000001225,1,-0.000000000000483169,0.000000000000625278)"/>
<path style=" stroke:none;fill-rule:nonzero;fill:rgb(100%,85.490196%,28.627451%);fill-opacity:1;" d="M 528 96 C 208 208 608 320 288 432 L 528 432 Z M 528 96 "/>
<path style="fill-rule:nonzero;fill:rgb(1.960784%,17.647059%,29.019608%);fill-opacity:1;stroke-width:1.6;stroke-linecap:butt;stroke-linejoin:bevel;stroke:rgb(100%,100%,100%);stroke-opacity:1;stroke-miterlimit:10;" d="M 301.613281 145.15625 C 299.007812 142.488281 297.707031 139.25 297.707031 135.4375 C 297.707031 132.894531 298.285156 130.59375 299.441406 128.53125 C 300.597656 126.46875 302.289062 124.917969 304.519531 123.875 C 302.332031 122.417969 300.910156 120.839844 300.253906 119.140625 C 299.597656 117.441406 299.269531 115.855469 299.269531 114.375 C 299.269531 111.082031 300.507812 108.277344 302.988281 105.953125 C 305.46875 103.628906 308.96875 102.46875 313.488281 102.46875 C 318.007812 102.46875 321.507812 103.628906 323.988281 105.953125 C 326.46875 108.277344 327.707031 111.082031 327.707031 114.375 C 327.707031 115.855469 327.378906 117.441406 326.722656 119.140625 C 326.066406 120.839844 324.644531 122.3125 322.457031 123.5625 C 324.6875 124.8125 326.363281 126.46875 327.488281 128.53125 C 328.613281 130.59375 329.175781 132.894531 329.175781 135.4375 C 329.175781 139.25 327.765625 142.496094 324.941406 145.171875 C 322.117187 147.847656 318.175781 149.1875 313.113281 149.1875 C 308.050781 149.1875 304.21875 147.84375 301.613281 145.15625 Z M 306.957031 134.84375 C 306.957031 137.074219 307.535156 138.800781 308.691406 140.03125 C 309.847656 141.261719 311.445312 141.875 313.488281 141.875 C 315.53125 141.875 317.128906 141.261719 318.285156 140.03125 C 319.441406 138.800781 320.019531 137.074219 320.019531 134.84375 C 320.019531 132.53125 319.429687 130.777344 318.253906 129.578125 C 317.078125 128.378906 315.488281 127.78125 313.488281 127.78125 C 311.488281 127.78125 309.898437 128.378906 308.722656 129.578125 C 307.546875 130.777344 306.957031 132.53125 306.957031 134.84375 Z M 309.300781 119.40625 C 310.300781 120.449219 311.695312 120.96875 313.488281 120.96875 C 315.300781 120.96875 316.703125 120.449219 317.691406 119.40625 C 318.679687 118.363281 319.175781 117.019531 319.175781 115.375 C 319.175781 113.582031 318.679687 112.183594 317.691406 111.171875 C 316.703125 110.160156 315.300781 109.65625 313.488281 109.65625 C 311.695312 109.65625 310.296875 110.160156 309.285156 111.171875 C 308.273437 112.183594 307.769531 113.582031 307.769531 115.375 C 307.769531 117.019531 308.28125 118.363281 309.300781 119.40625 Z M 331.613281 148 " transform="matrix(-1,0.000000000000001347,-0.000000000000001347,-1,816,528)"/>
<path style="fill-rule:nonzero;fill:rgb(1.960784%,10.196078%,20.392157%);fill-opacity:1;stroke-width:1;stroke-linecap:butt;stroke-linejoin:bevel;stroke:rgb(1.960784%,10.196078%,20.392157%);stroke-opacity:1;stroke-miterlimit:10;" d="M 319 160 C 330.597656 160 340 169.402344 340 181 C 340 192.597656 330.597656 202 319 202 L 288 202 L 288 160 Z M 319 160 " transform="matrix(-1,0.000000000000001347,-0.000000000000001347,-1,816,528)"/>
<path style="fill-rule:nonzero;fill:rgb(0%,76.470588%,95.294118%);fill-opacity:1;stroke-width:1.3;stroke-linecap:butt;stroke-linejoin:bevel;stroke:rgb(100%,100%,100%);stroke-opacity:1;stroke-miterlimit:10;" d="M 309.675781 174.523437 C 309.175781 175.191406 308.9375 176.082031 308.957031 177.195312 L 304.800781 177.195312 C 304.84375 176.070312 305.035156 175.003906 305.378906 173.992187 C 305.742187 173.105469 306.316406 172.289062 307.097656 171.539062 C 307.679687 171.007812 308.375 170.601562 309.175781 170.320312 C 309.976562 170.039062 310.960937 169.898437 312.128906 169.898437 C 314.296875 169.898437 316.042969 170.457031 317.371094 171.578125 C 318.699219 172.699219 319.363281 174.199219 319.363281 176.085937 C 319.363281 177.417969 318.96875 178.542969 318.175781 179.460937 C 317.675781 180.035156 317.15625 180.425781 316.613281 180.632812 C 317.019531 180.632812 317.601562 180.980469 318.363281 181.679687 C 319.5 182.730469 320.066406 184.167969 320.066406 185.992187 C 320.066406 187.910156 319.402344 189.59375 318.074219 191.046875 C 316.746094 192.5 314.78125 193.226562 312.175781 193.226562 C 308.96875 193.226562 306.738281 192.179687 305.488281 190.085937 C 304.832031 188.972656 304.46875 187.511719 304.394531 185.710937 L 308.769531 185.710937 C 308.769531 186.617187 308.914062 187.367187 309.207031 187.960937 C 309.75 189.054687 310.734375 189.601562 312.160156 189.601562 C 313.035156 189.601562 313.796875 189.300781 314.449219 188.703125 C 315.101562 188.105469 315.425781 187.242187 315.425781 186.117187 C 315.425781 184.628906 314.820312 183.632812 313.613281 183.132812 C 312.925781 182.851562 311.84375 182.710937 310.363281 182.710937 L 310.363281 179.523437 C 311.8125 179.503906 312.820312 179.363281 313.394531 179.101562 C 314.382812 178.664062 314.878906 177.777344 314.878906 176.445312 C 314.878906 175.582031 314.625 174.878906 314.121094 174.335937 C 313.617187 173.792969 312.90625 173.523437 311.988281 173.523437 C 310.9375 173.523437 310.164062 173.855469 309.675781 174.523437 Z M 321.347656 192.664062 " transform="matrix(-1,0.000000000000001347,-0.000000000000001347,-1,816,528)"/>
<path style=" stroke:none;fill-rule:nonzero;fill:rgb(0%,76.470588%,95.294118%);fill-opacity:1;" d="M 528 432 C 848 320 448 208 768 96 L 528 96 Z M 528 432 "/>
<path style="fill-rule:nonzero;fill:rgb(1.960784%,17.647059%,29.019608%);fill-opacity:1;stroke-width:1.6;stroke-linecap:butt;stroke-linejoin:bevel;stroke:rgb(100%,100%,100%);stroke-opacity:1;stroke-miterlimit:10;" d="M 548.339844 111.71875 C 547.339844 113.050781 546.859375 114.832031 546.902344 117.0625 L 538.589844 117.0625 C 538.671875 114.8125 539.058594 112.675781 539.746094 110.65625 C 540.476563 108.886719 541.621094 107.25 543.183594 105.75 C 544.351563 104.6875 545.734375 103.875 547.339844 103.3125 C 548.945313 102.75 550.914063 102.46875 553.246094 102.46875 C 557.578125 102.46875 561.074219 103.589844 563.730469 105.828125 C 566.386719 108.066406 567.714844 111.074219 567.714844 114.84375 C 567.714844 117.511719 566.921875 119.761719 565.339844 121.59375 C 564.339844 122.738281 563.296875 123.519531 562.214844 123.9375 C 563.027344 123.9375 564.195313 124.636719 565.714844 126.03125 C 567.984375 128.136719 569.121094 131.011719 569.121094 134.65625 C 569.121094 138.488281 567.792969 141.859375 565.136719 144.765625 C 562.480469 147.671875 558.546875 149.125 553.339844 149.125 C 546.921875 149.125 542.464844 147.03125 539.964844 142.84375 C 538.652344 140.613281 537.921875 137.699219 537.777344 134.09375 L 546.527344 134.09375 C 546.527344 135.90625 546.820313 137.40625 547.402344 138.59375 C 548.484375 140.78125 550.453125 141.875 553.308594 141.875 C 555.058594 141.875 556.585938 141.277344 557.886719 140.078125 C 559.1875 138.878906 559.839844 137.15625 559.839844 134.90625 C 559.839844 131.925781 558.632813 129.9375 556.214844 128.9375 C 554.839844 128.375 552.671875 128.09375 549.714844 128.09375 L 549.714844 121.71875 C 552.609375 121.675781 554.632813 121.394531 555.777344 120.875 C 557.757813 120 558.746094 118.230469 558.746094 115.5625 C 558.746094 113.832031 558.242188 112.425781 557.230469 111.34375 C 556.21875 110.261719 554.796875 109.71875 552.964844 109.71875 C 550.859375 109.71875 549.320313 110.386719 548.339844 111.71875 Z M 571.683594 148 " transform="matrix(1,-0.00000000000000147,0.00000000000000147,1,-0.000000000000511591,0.000000000000738964)"/>
<path style="fill-rule:nonzero;fill:rgb(1.960784%,10.196078%,20.392157%);fill-opacity:1;stroke-width:1;stroke-linecap:butt;stroke-linejoin:bevel;stroke:rgb(1.960784%,10.196078%,20.392157%);stroke-opacity:1;stroke-miterlimit:10;" d="M 559 160 C 570.597656 160 580 169.402344 580 181 C 580 192.597656 570.597656 202 559 202 L 528 202 L 528 160 Z M 559 160 " transform="matrix(1,-0.00000000000000147,0.00000000000000147,1,-0.000000000000511591,0.000000000000738964)"/>
<path style="fill-rule:nonzero;fill:rgb(95.686275%,45.882353%,0.392157%);fill-opacity:1;stroke-width:1.3;stroke-linecap:butt;stroke-linejoin:bevel;stroke:rgb(100%,100%,100%);stroke-opacity:1;stroke-miterlimit:10;" d="M 551.8125 193.40625 C 550.113281 193.40625 548.589844 192.902344 547.234375 191.898438 C 545.878906 190.894531 545.105469 189.425781 544.90625 187.5 L 549.34375 187.5 C 549.449219 188.167969 549.730469 188.707031 550.1875 189.125 C 550.644531 189.542969 551.253906 189.75 552.015625 189.75 C 553.484375 189.75 554.515625 188.9375 555.109375 187.3125 C 555.433594 186.417969 555.636719 185.109375 555.71875 183.390625 C 555.3125 183.902344 554.878906 184.292969 554.421875 184.5625 C 553.589844 185.0625 552.5625 185.3125 551.34375 185.3125 C 549.542969 185.3125 547.941406 184.691406 546.546875 183.445313 C 545.152344 182.199219 544.453125 180.40625 544.453125 178.0625 C 544.453125 175.636719 545.152344 173.667969 546.554688 172.164063 C 547.957031 170.660156 549.777344 169.90625 552.015625 169.90625 C 555.464844 169.90625 557.828125 171.433594 559.109375 174.484375 C 559.839844 176.214844 560.203125 178.488281 560.203125 181.3125 C 560.203125 184.050781 559.855469 186.339844 559.15625 188.171875 C 557.824219 191.660156 555.375 193.40625 551.8125 193.40625 Z M 550.25 174.265625 C 549.394531 174.933594 548.96875 176.0625 548.96875 177.65625 C 548.96875 179 549.242188 180.007813 549.789063 180.679688 C 550.335938 181.351563 551.175781 181.6875 552.3125 181.6875 C 552.925781 181.6875 553.503906 181.511719 554.046875 181.15625 C 555.058594 180.511719 555.5625 179.390625 555.5625 177.796875 C 555.5625 176.515625 555.261719 175.5 554.664063 174.75 C 554.066406 174 553.246094 173.625 552.203125 173.625 C 551.441406 173.625 550.792969 173.839844 550.25 174.265625 Z M 561.296875 192.75 " transform="matrix(1,-0.00000000000000147,0.00000000000000147,1,-0.000000000000511591,0.000000000000738964)"/>
<path style=" stroke:none;fill-rule:nonzero;fill:rgb(95.686275%,45.882353%,0.392157%);fill-opacity:1;" d="M 768 96 C 448 208 848 320 528 432 L 768 432 Z M 768 96 "/>
<path style="fill-rule:nonzero;fill:rgb(1.960784%,17.647059%,29.019608%);fill-opacity:1;stroke-width:1.6;stroke-linecap:butt;stroke-linejoin:bevel;stroke:rgb(100%,100%,100%);stroke-opacity:1;stroke-miterlimit:10;" d="M 552.625 149.3125 C 549.230469 149.3125 546.175781 148.308594 543.46875 146.296875 C 540.761719 144.285156 539.207031 141.355469 538.8125 137.5 L 547.6875 137.5 C 547.894531 138.832031 548.457031 139.917969 549.375 140.75 C 550.292969 141.582031 551.511719 142 553.03125 142 C 555.96875 142 558.03125 140.375 559.21875 137.125 C 559.863281 135.332031 560.269531 132.71875 560.4375 129.28125 C 559.625 130.300781 558.761719 131.082031 557.84375 131.625 C 556.175781 132.625 554.125 133.125 551.6875 133.125 C 548.082031 133.125 544.886719 131.878906 542.09375 129.390625 C 539.300781 126.902344 537.90625 123.3125 537.90625 118.625 C 537.90625 113.769531 539.308594 109.839844 542.109375 106.828125 C 544.910156 103.816406 548.550781 102.3125 553.03125 102.3125 C 559.925781 102.3125 564.65625 105.363281 567.21875 111.46875 C 568.675781 114.925781 569.40625 119.480469 569.40625 125.125 C 569.40625 130.605469 568.707031 135.175781 567.3125 138.84375 C 564.644531 145.824219 559.75 149.3125 552.625 149.3125 Z M 549.5 111.03125 C 547.792969 112.363281 546.9375 114.625 546.9375 117.8125 C 546.9375 120.5 547.484375 122.515625 548.578125 123.859375 C 549.671875 125.203125 551.355469 125.875 553.625 125.875 C 554.855469 125.875 556.011719 125.519531 557.09375 124.8125 C 559.113281 123.519531 560.125 121.28125 560.125 118.09375 C 560.125 115.53125 559.527344 113.5 558.328125 112 C 557.128906 110.5 555.488281 109.75 553.40625 109.75 C 551.886719 109.75 550.582031 110.175781 549.5 111.03125 Z M 571.59375 148 " transform="matrix(-1,0.000000000000001592,-0.000000000000001592,-1,1296,528)"/>
<path style="fill-rule:nonzero;fill:rgb(1.960784%,10.196078%,20.392157%);fill-opacity:1;stroke-width:1;stroke-linecap:butt;stroke-linejoin:bevel;stroke:rgb(1.960784%,10.196078%,20.392157%);stroke-opacity:1;stroke-miterlimit:10;" d="M 559 160 C 570.597656 160 580 169.402344 580 181 C 580 192.597656 570.597656 202 559 202 L 528 202 L 528 160 Z M 559 160 " transform="matrix(-1,0.000000000000001592,-0.000000000000001592,-1,1296,528)"/>
<path style="fill-rule:nonzero;fill:rgb(0%,76.470588%,95.294118%);fill-opacity:1;stroke-width:1.3;stroke-linecap:butt;stroke-linejoin:bevel;stroke:rgb(100%,100%,100%);stroke-opacity:1;stroke-miterlimit:10;" d="M 549.675781 174.523437 C 549.175781 175.191406 548.9375 176.082031 548.957031 177.195312 L 544.800781 177.195312 C 544.84375 176.070312 545.035156 175.003906 545.378906 173.992187 C 545.742187 173.105469 546.316406 172.289062 547.097656 171.539062 C 547.679687 171.007812 548.375 170.601562 549.175781 170.320312 C 549.976562 170.039062 550.960937 169.898437 552.128906 169.898437 C 554.296875 169.898437 556.042969 170.457031 557.371094 171.578125 C 558.699219 172.699219 559.363281 174.199219 559.363281 176.085937 C 559.363281 177.417969 558.96875 178.542969 558.175781 179.460937 C 557.675781 180.035156 557.15625 180.425781 556.613281 180.632812 C 557.019531 180.632812 557.601562 180.980469 558.363281 181.679687 C 559.5 182.730469 560.066406 184.167969 560.066406 185.992187 C 560.066406 187.910156 559.402344 189.59375 558.074219 191.046875 C 556.746094 192.5 554.78125 193.226562 552.175781 193.226562 C 548.96875 193.226562 546.738281 192.179687 545.488281 190.085937 C 544.832031 188.972656 544.46875 187.511719 544.394531 185.710937 L 548.769531 185.710937 C 548.769531 186.617187 548.914062 187.367187 549.207031 187.960937 C 549.75 189.054687 550.734375 189.601562 552.160156 189.601562 C 553.035156 189.601562 553.796875 189.300781 554.449219 188.703125 C 555.101562 188.105469 555.425781 187.242187 555.425781 186.117187 C 555.425781 184.628906 554.820312 183.632812 553.613281 183.132812 C 552.925781 182.851562 551.84375 182.710937 550.363281 182.710937 L 550.363281 179.523437 C 551.8125 179.503906 552.820312 179.363281 553.394531 179.101562 C 554.382812 178.664062 554.878906 177.777344 554.878906 176.445312 C 554.878906 175.582031 554.625 174.878906 554.121094 174.335937 C 553.617187 173.792969 552.90625 173.523437 551.988281 173.523437 C 550.9375 173.523437 550.164062 173.855469 549.675781 174.523437 Z M 561.347656 192.664062 " transform="matrix(-1,0.000000000000001592,-0.000000000000001592,-1,1296,528)"/>
<path style=" stroke:none;fill-rule:nonzero;fill:rgb(0%,76.470588%,95.294118%);fill-opacity:1;" d="M 768 432 C 1088 320 688 208 1008 96 L 768 96 Z M 768 432 "/>
<path style="fill-rule:nonzero;fill:rgb(1.960784%,17.647059%,29.019608%);fill-opacity:1;stroke-width:1.6;stroke-linecap:butt;stroke-linejoin:bevel;stroke:rgb(100%,100%,100%);stroke-opacity:1;stroke-miterlimit:10;" d="M 788.339844 111.71875 C 787.339844 113.050781 786.859375 114.832031 786.902344 117.0625 L 778.589844 117.0625 C 778.671875 114.8125 779.058594 112.675781 779.746094 110.65625 C 780.476563 108.886719 781.621094 107.25 783.183594 105.75 C 784.351563 104.6875 785.734375 103.875 787.339844 103.3125 C 788.945313 102.75 790.914063 102.46875 793.246094 102.46875 C 797.578125 102.46875 801.074219 103.589844 803.730469 105.828125 C 806.386719 108.066406 807.714844 111.074219 807.714844 114.84375 C 807.714844 117.511719 806.921875 119.761719 805.339844 121.59375 C 804.339844 122.738281 803.296875 123.519531 802.214844 123.9375 C 803.027344 123.9375 804.195313 124.636719 805.714844 126.03125 C 807.984375 128.136719 809.121094 131.011719 809.121094 134.65625 C 809.121094 138.488281 807.792969 141.859375 805.136719 144.765625 C 802.480469 147.671875 798.546875 149.125 793.339844 149.125 C 786.921875 149.125 782.464844 147.03125 779.964844 142.84375 C 778.652344 140.613281 777.921875 137.699219 777.777344 134.09375 L 786.527344 134.09375 C 786.527344 135.90625 786.820313 137.40625 787.402344 138.59375 C 788.484375 140.78125 790.453125 141.875 793.308594 141.875 C 795.058594 141.875 796.585938 141.277344 797.886719 140.078125 C 799.1875 138.878906 799.839844 137.15625 799.839844 134.90625 C 799.839844 131.925781 798.632813 129.9375 796.214844 128.9375 C 794.839844 128.375 792.671875 128.09375 789.714844 128.09375 L 789.714844 121.71875 C 792.609375 121.675781 794.632813 121.394531 795.777344 120.875 C 797.757813 120 798.746094 118.230469 798.746094 115.5625 C 798.746094 113.832031 798.242188 112.425781 797.230469 111.34375 C 796.21875 110.261719 794.796875 109.71875 792.964844 109.71875 C 790.859375 109.71875 789.320313 110.386719 788.339844 111.71875 Z M 811.683594 148 " transform="matrix(1,-0.000000000000001715,0.000000000000001715,1,-0.000000000000682121,0.000000000000909495)"/>
<path style="fill-rule:nonzero;fill:rgb(1.960784%,10.196078%,20.392157%);fill-opacity:1;stroke-width:1;stroke-linecap:butt;stroke-linejoin:bevel;stroke:rgb(1.960784%,10.196078%,20.392157%);stroke-opacity:1;stroke-miterlimit:10;" d="M 799 160 C 810.597656 160 820 169.402344 820 181 C 820 192.597656 810.597656 202 799 202 L 768 202 L 768 160 Z M 799 160 " transform="matrix(1,-0.000000000000001715,0.000000000000001715,1,-0.000000000000682121,0.000000000000909495)"/>
<path style="fill-rule:nonzero;fill:rgb(99.607843%,23.921569%,32.156863%);fill-opacity:1;stroke-width:1.3;stroke-linecap:butt;stroke-linejoin:bevel;stroke:rgb(100%,100%,100%);stroke-opacity:1;stroke-miterlimit:10;" d="M 795.378906 187.78125 L 786.894531 187.78125 L 785.300781 192.515625 L 780.269531 192.515625 L 788.488281 169.484375 L 793.925781 169.484375 L 802.082031 192.515625 L 796.863281 192.515625 Z M 794.035156 183.8125 L 791.160156 174.75 L 788.191406 183.8125 Z M 802.566406 192.515625 " transform="matrix(1,-0.000000000000001715,0.000000000000001715,1,-0.000000000000682121,0.000000000000909495)"/>
<path style=" stroke:none;fill-rule:nonzero;fill:rgb(99.607843%,23.921569%,32.156863%);fill-opacity:1;" d="M 1008 96 C 688 208 1088 320 768 432 L 1008 432 Z M 1008 96 "/>
<path style="fill-rule:nonzero;fill:rgb(1.960784%,17.647059%,29.019608%);fill-opacity:1;stroke-width:1.6;stroke-linecap:butt;stroke-linejoin:bevel;stroke:rgb(100%,100%,100%);stroke-opacity:1;stroke-miterlimit:10;" d="M 800.914062 138.53125 L 783.945312 138.53125 L 780.757812 148 L 770.695312 148 L 787.132812 101.9375 L 798.007812 101.9375 L 814.320312 148 L 803.882812 148 Z M 798.226562 130.59375 L 792.476562 112.46875 L 786.539062 130.59375 Z M 815.289062 148 " transform="matrix(-1,0.000000000000001837,-0.000000000000001837,-1,1776,528)"/>
<path style="fill-rule:nonzero;fill:rgb(1.960784%,10.196078%,20.392157%);fill-opacity:1;stroke-width:1;stroke-linecap:butt;stroke-linejoin:bevel;stroke:rgb(1.960784%,10.196078%,20.392157%);stroke-opacity:1;stroke-miterlimit:10;" d="M 799 160 C 810.597656 160 820 169.402344 820 181 C 820 192.597656 810.597656 202 799 202 L 768 202 L 768 160 Z M 799 160 " transform="matrix(-1,0.000000000000001837,-0.000000000000001837,-1,1776,528)"/>
<path style="fill-rule:nonzero;fill:rgb(0%,76.470588%,95.294118%);fill-opacity:1;stroke-width:1.3;stroke-linecap:butt;stroke-linejoin:bevel;stroke:rgb(100%,100%,100%);stroke-opacity:1;stroke-miterlimit:10;" d="M 789.675781 174.523437 C 789.175781 175.191406 788.9375 176.082031 788.957031 177.195312 L 784.800781 177.195312 C 784.84375 176.070312 785.035156 175.003906 785.378906 173.992187 C 785.742187 173.105469 786.316406 172.289062 787.097656 171.539062 C 787.679687 171.007812 788.375 170.601562 789.175781 170.320312 C 789.976562 170.039062 790.960937 169.898437 792.128906 169.898437 C 794.296875 169.898437 796.042969 170.457031 797.371094 171.578125 C 798.699219 172.699219 799.363281 174.199219 799.363281 176.085937 C 799.363281 177.417969 798.96875 178.542969 798.175781 179.460937 C 797.675781 180.035156 797.15625 180.425781 796.613281 180.632812 C 797.019531 180.632812 797.601562 180.980469 798.363281 181.679687 C 799.5 182.730469 800.066406 184.167969 800.066406 185.992187 C 800.066406 187.910156 799.402344 189.59375 798.074219 191.046875 C 796.746094 192.5 794.78125 193.226562 792.175781 193.226562 C 788.96875 193.226562 786.738281 192.179687 785.488281 190.085937 C 784.832031 188.972656 784.46875 187.511719 784.394531 185.710937 L 788.769531 185.710937 C 788.769531 186.617187 788.914062 187.367187 789.207031 187.960937 C 789.75 189.054687 790.734375 189.601562 792.160156 189.601562 C 793.035156 189.601562 793.796875 189.300781 794.449219 188.703125 C 795.101562 188.105469 795.425781 187.242187 795.425781 186.117187 C 795.425781 184.628906 794.820312 183.632812 793.613281 183.132812 C 792.925781 182.851562 791.84375 182.710937 790.363281 182.710937 L 790.363281 179.523437 C 791.8125 179.503906 792.820312 179.363281 793.394531 179.101562 C 794.382812 178.664062 794.878906 177.777344 794.878906 176.445312 C 794.878906 175.582031 794.625 174.878906 794.121094 174.335937 C 793.617187 173.792969 792.90625 173.523437 791.988281 173.523437 C 790.9375 173.523437 790.164062 173.855469 789.675781 174.523437 Z M 801.347656 192.664062 " transform="matrix(-1,0.000000000000001837,-0.000000000000001837,-1,1776,528)"/>
</g>
</svg>
